#N canvas 70 71 777 512 12;
#X obj 167 319 vline~, f 10;
#X obj 167 348 outlet~;
#X obj 53 101 bng 15 250 50 0 empty empty empty 17 7 0 10 #fcfcfc #000000
#000000;
#X obj 53 168 t b b b, f 33;
#X msg 53 281 0 \$1;
#X obj 53 223 del \$2;
#X obj 53 252 f \$3, f 12;
#X obj 235 72 inlet hold;
#X obj 319 72 inlet release;
#X obj 137 72 inlet attack;
#X obj 53 72 inlet trig;
#X msg 281 278 0 1;
#X obj 167 252 pack 1 \$1;
#X obj 53 194 del \$1;
#X connect 0 0 1 0;
#X connect 2 0 3 0;
#X connect 3 0 13 0;
#X connect 3 1 12 0;
#X connect 3 2 11 0;
#X connect 4 0 0 0;
#X connect 5 0 6 0;
#X connect 6 0 4 0;
#X connect 7 0 5 1;
#X connect 8 0 6 1;
#X connect 9 0 12 1;
#X connect 9 0 13 1;
#X connect 10 0 2 0;
#X connect 11 0 0 0;
#X connect 12 0 0 0;
#X connect 13 0 5 0;
