#N canvas 70 71 777 512 12;
#X obj 53 72 inlet start;
#X obj 144 72 inlet times;
#X obj 144 129 unpack f f f, f 19;
#X obj 167 296 vline~, f 10;
#X obj 167 325 outlet~;
#X obj 53 101 bng 15 250 50 0 empty empty empty 17 7 0 10 #fcfcfc #000000
#000000;
#X listbox 154 101 20 0 0 0 - - - 0;
#X msg 281 255 0;
#X msg 167 255 1 \$1;
#X obj 167 226 f, f 6;
#X obj 53 168 t b b b, f 33;
#X obj 53 197 del, f 6;
#X obj 53 226 f, f 12;
#X msg 53 255 0 \$1;
#X connect 0 0 5 0;
#X connect 1 0 2 0;
#X connect 1 0 6 0;
#X connect 2 0 9 1;
#X connect 2 1 11 1;
#X connect 2 2 12 1;
#X connect 3 0 4 0;
#X connect 5 0 10 0;
#X connect 7 0 3 0;
#X connect 8 0 3 0;
#X connect 9 0 8 0;
#X connect 10 0 11 0;
#X connect 10 1 9 0;
#X connect 10 2 7 0;
#X connect 11 0 12 0;
#X connect 12 0 13 0;
#X connect 13 0 3 0;
