#N canvas 299 135 893 533 12;
#X obj 131 48 inlet attack time;
#X obj 264 48 inlet release time;
#X obj 26 48 inlet trigger;
#X obj 167 296 vline~, f 10;
#X obj 167 325 outlet~;
#X msg 281 255 0;
#X msg 167 255 1 \$1;
#X msg 53 255 0 \$1;
#X obj 53 168 t b b b, f 33;
#X floatatom 264 72 5 0 0 0 - - - 0;
#X floatatom 131 72 5 0 0 0 - - - 0;
#X obj 55 81 bng 15 250 50 0 empty empty empty 17 7 0 10 #fcfcfc #000000
#000000;
#X obj 167 226 f \$1, f 6;
#X obj 53 226 f \$2, f 12;
#X obj 53 197 del \$1;
#X connect 0 0 10 0;
#X connect 1 0 9 0;
#X connect 2 0 11 0;
#X connect 3 0 4 0;
#X connect 5 0 3 0;
#X connect 6 0 3 0;
#X connect 7 0 3 0;
#X connect 8 0 14 0;
#X connect 8 1 12 0;
#X connect 8 2 5 0;
#X connect 9 0 13 1;
#X connect 10 0 12 1;
#X connect 10 0 14 1;
#X connect 11 0 8 0;
#X connect 12 0 6 0;
#X connect 13 0 7 0;
#X connect 14 0 13 0;
