#N canvas 259 163 777 512 12;
#X obj 44 40 inlet start;
#X obj 171 50 inlet times;
#X obj 171 79 unpack f f f, f 19;
#X msg 89 220 1 \$1;
#X obj 89 191 f, f 5;
#X msg 153 289 0 \$1;
#X obj 153 260 f, f 7;
#X obj 44 340 vline~, f 10;
#X obj 44 419 outlet~;
#X obj 89 162 del 1;
#X floatatom 213 139 5 0 0 0 - - - 0;
#X obj 153 190 bng 15 250 50 0 empty empty empty 17 7 0 10 #fcfcfc
#000000 #000000;
#X obj 153 221 delay 100;
#X msg 44 191 0 1;
#X connect 0 0 13 0;
#X connect 0 0 9 0;
#X connect 1 0 2 0;
#X connect 2 0 4 1;
#X connect 2 1 10 0;
#X connect 2 2 6 1;
#X connect 3 0 7 0;
#X connect 4 0 3 0;
#X connect 5 0 7 0;
#X connect 6 0 5 0;
#X connect 7 0 8 0;
#X connect 9 0 4 0;
#X connect 9 0 11 0;
#X connect 10 0 12 1;
#X connect 11 0 12 0;
#X connect 12 0 6 0;
#X connect 13 0 7 0;
