#N canvas 30 25 1199 747 12;
#X obj 139 4 inlet;
#X obj 21 192 noteout;
#X obj 21 41 route reset;
#X floatatom 21 135 5 0 0 0 - - - 0;
#X obj 21 92 line, f 6;
#X obj 21 113 int;
#X obj 232 249 noteout;
#X floatatom 232 192 5 0 0 0 - - - 0;
#X obj 232 149 line, f 6;
#X obj 232 170 int;
#X obj 232 98 route full;
#X msg 21 70 0 \, 127 2500;
#X msg 232 127 0 \, 127 2500;
#X obj 348 206 noteout, f 12;
#X obj 348 127 unpack;
#X msg 44 152 0;
#X msg 67 170 1;
#X msg 278 227 1;
#X msg 255 209 1;
#X floatatom 348 155 5 0 0 0 - - - 0;
#X floatatom 389 155 5 0 0 0 - - - 0;
#X msg 430 154 1;
#X obj 113 110 loadbang;
#X connect 0 0 2 0;
#X connect 2 0 11 0;
#X connect 2 1 10 0;
#X connect 3 0 1 0;
#X connect 4 0 5 0;
#X connect 5 0 3 0;
#X connect 7 0 6 0;
#X connect 8 0 9 0;
#X connect 9 0 7 0;
#X connect 10 0 12 0;
#X connect 10 1 14 0;
#X connect 11 0 4 0;
#X connect 12 0 8 0;
#X connect 14 0 19 0;
#X connect 14 1 20 0;
#X connect 15 0 1 1;
#X connect 16 0 1 2;
#X connect 17 0 6 2;
#X connect 18 0 6 1;
#X connect 19 0 13 0;
#X connect 20 0 13 1;
#X connect 21 0 13 2;
#X connect 22 0 15 0;
#X connect 22 0 16 0;
#X connect 22 0 18 0;
#X connect 22 0 17 0;
#X connect 22 0 21 0;
