#N canvas 216 25 1064 725 12;
#X obj 164 503 dac~, f 6;
#X obj 13 325 inst/kick~;
#X obj 164 326 inst/snare~;
#X obj 316 326 inst/hitHat~;
#X obj 619 326 inst/bass~, f 11;
#X obj 13 220 seq/sequencer, f 29;
#X obj 13 195 tgl 15 0 empty empty empty 17 7 0 10 #fcfcfc #000000
#000000 0 1;
#X obj 13 297 sel 1 2 3 4, f 87;
#X obj 82 11 notein 1;
#X obj 82 40 pack f f;
#X obj 143 108 loadbang;
#X obj 213 162 inst/ctrl 48;
#X obj 213 137 tgl 15 0 empty empty empty 17 7 0 10 #fcfcfc #000000
#000000 0 1;
#X obj 213 108 == 0;
#X obj 82 261 t f f f f f, f 88;
#X obj 213 191 expr imodf($f1/127*160+40);
#X obj 82 69 softKeySelector;
#X floatatom 92 108 5 0 0 0 - - - 0;
#X msg 143 162 40;
#X obj 467 326 inst/ride~;
#N canvas 63 88 450 278 (subpatch) 0;
#X array \$0-display 4000 float 0;
#X coords 0 1 3999 -1 619 312 1;
#X restore 432 403 graph;
#X obj 248 503 tabwrite~ \$0-display;
#X obj 248 451 tgl 15 0 empty empty empty 17 7 0 10 #fcfcfc #000000
#000000 0 1;
#X obj 164 415 /~ 3;
#X obj 248 474 metro 125;
#X obj 326 131 s SoftKeySelector;
#N canvas 121 146 842 597 effects 0;
#X obj 161 80 inlet~;
#X obj 423 337 outlet~;
#X obj 511 115 inst/ctrl 55;
#X obj 511 139 / 127;
#X obj 423 308 *~, f 13;
#X obj 403 76 r SoftKeySelector, f 18;
#X obj 403 139 / 127;
#X obj 403 115 inst/ctrl 54;
#X obj 273 279 expr~ tanh($v1*$f2);
#X obj 403 163 + 1;
#X obj 207 139 / 127;
#X obj 305 139 / 127;
#X obj 207 115 inst/ctrl 49;
#X obj 305 115 inst/ctrl 50;
#X obj 161 211 hip~, f 7;
#X obj 238 240 lop~, f 10;
#X obj 305 163 * 17000;
#X obj 305 187 + 200;
#X obj 207 163 * 5000;
#X connect 0 0 14 0;
#X connect 2 0 3 0;
#X connect 3 0 4 1;
#X connect 4 0 1 0;
#X connect 5 0 2 0;
#X connect 5 0 7 0;
#X connect 5 0 12 0;
#X connect 5 0 13 0;
#X connect 6 0 9 0;
#X connect 7 0 6 0;
#X connect 8 0 4 0;
#X connect 9 0 8 1;
#X connect 10 0 18 0;
#X connect 11 0 16 0;
#X connect 12 0 10 0;
#X connect 13 0 11 0;
#X connect 14 0 15 0;
#X connect 15 0 8 0;
#X connect 16 0 17 0;
#X connect 17 0 15 1;
#X connect 18 0 14 1;
#X restore 164 447 pd effects;
#X connect 1 0 23 0;
#X connect 2 0 23 0;
#X connect 3 0 23 0;
#X connect 4 0 23 0;
#X connect 5 0 7 0;
#X connect 5 1 3 2;
#X connect 6 0 5 0;
#X connect 7 0 1 0;
#X connect 7 1 2 0;
#X connect 7 2 3 0;
#X connect 7 3 19 0;
#X connect 7 4 4 0;
#X connect 8 0 9 0;
#X connect 8 1 9 1;
#X connect 9 0 16 0;
#X connect 10 0 18 0;
#X connect 11 0 15 0;
#X connect 12 0 11 0;
#X connect 12 0 25 0;
#X connect 13 0 12 0;
#X connect 14 0 1 1;
#X connect 14 1 2 1;
#X connect 14 2 3 1;
#X connect 14 3 19 1;
#X connect 14 4 4 1;
#X connect 15 0 5 2;
#X connect 16 0 13 0;
#X connect 16 0 17 0;
#X connect 16 0 14 0;
#X connect 16 0 5 1;
#X connect 18 0 15 0;
#X connect 19 0 23 0;
#X connect 22 0 24 0;
#X connect 23 0 26 0;
#X connect 24 0 21 0;
#X connect 26 0 21 0;
#X connect 26 0 0 0;
#X connect 26 0 0 1;
