#N canvas 501 25 779 747 12;
#X obj 81 19 notein 1;
#X obj 322 101 sel 127;
#X obj 80 223 pack, f 41;
#X obj 81 43 pack, f 8;
#X obj 80 101 sel 127;
#X obj 140 101 sel 127;
#X obj 201 101 sel 127;
#X obj 261 101 sel 127;
#X obj 116 185 tgl 15 0 empty empty empty 17 7 0 10 #fcfcfc #000000
#000000 0 1;
#X obj 177 185 tgl 15 0 empty empty empty 17 7 0 10 #fcfcfc #000000
#000000 0 1;
#X obj 237 185 tgl 15 0 empty empty empty 17 7 0 10 #fcfcfc #000000
#000000 0 1;
#X obj 298 185 tgl 15 0 empty empty empty 17 7 0 10 #fcfcfc #000000
#000000 0 1;
#X obj 359 185 tgl 15 0 empty empty empty 17 7 0 10 #fcfcfc #000000
#000000 0 1;
#X obj 125 538 +~;
#X obj 120 599 dac~;
#X msg 80 181 82;
#X msg 140 181 83;
#X msg 201 181 84;
#X msg 262 181 85;
#X msg 323 181 86;
#X obj 80 139 switching_toggles, f 35;
#X obj 81 66 route 82 83 84 85 86, f 21;
#X obj 11 70 loadbang;
#X msg 11 99 0;
#X obj 80 251 LedOnOff;
#X obj 125 480 inst/kick~;
#X obj 217 481 inst/snare~;
#X obj 318 481 inst/hitHat~;
#X obj 426 481 inst/bass~;
#X text 156 537 Aggiungere distorsione sulla batteria;
#X obj 63 368 seq/sequencer;
#X obj 42 325 tgl 15 0 empty empty empty 17 7 0 10 #fcfcfc #000000
#000000 0 1;
#X floatatom 99 326 5 0 0 0 - - - 0;
#X connect 0 0 3 0;
#X connect 0 1 3 1;
#X connect 1 0 20 4;
#X connect 2 0 24 0;
#X connect 3 0 21 0;
#X connect 4 0 20 0;
#X connect 5 0 20 1;
#X connect 6 0 20 2;
#X connect 7 0 20 3;
#X connect 8 0 2 1;
#X connect 8 0 15 0;
#X connect 8 0 25 1;
#X connect 9 0 2 1;
#X connect 9 0 16 0;
#X connect 9 0 26 1;
#X connect 10 0 2 1;
#X connect 10 0 17 0;
#X connect 10 0 27 1;
#X connect 11 0 2 1;
#X connect 11 0 18 0;
#X connect 12 0 2 1;
#X connect 12 0 19 0;
#X connect 12 0 28 2;
#X connect 13 0 14 0;
#X connect 13 0 14 1;
#X connect 15 0 2 0;
#X connect 16 0 2 0;
#X connect 17 0 2 0;
#X connect 18 0 2 0;
#X connect 19 0 2 0;
#X connect 20 0 15 0;
#X connect 20 0 8 0;
#X connect 20 1 16 0;
#X connect 20 1 9 0;
#X connect 20 2 17 0;
#X connect 20 2 10 0;
#X connect 20 3 18 0;
#X connect 20 3 11 0;
#X connect 20 4 12 0;
#X connect 20 4 19 0;
#X connect 21 0 4 0;
#X connect 21 1 5 0;
#X connect 21 2 6 0;
#X connect 21 3 7 0;
#X connect 21 4 1 0;
#X connect 22 0 23 0;
#X connect 23 0 20 0;
#X connect 23 0 20 1;
#X connect 23 0 20 2;
#X connect 23 0 20 3;
#X connect 23 0 20 4;
#X connect 25 0 13 0;
#X connect 26 0 13 0;
#X connect 27 0 13 0;
#X connect 28 0 13 0;
#X connect 30 0 25 0;
#X connect 30 1 26 0;
#X connect 30 2 27 0;
#X connect 31 0 30 0;
#X connect 32 0 30 1;
