#N canvas 216 25 762 569 12;
#X obj 164 532 dac~, f 14;
#X obj 13 325 inst/kick~;
#X obj 164 326 inst/snare~;
#X obj 316 326 inst/hitHat~;
#X obj 619 326 inst/bass~, f 11;
#X obj 13 220 seq/sequencer, f 29;
#X obj 13 195 tgl 15 0 empty empty empty 17 7 0 10 #fcfcfc #000000
#000000 0 1;
#X obj 13 297 sel 1 2 3 4, f 87;
#X obj 82 11 notein 1;
#X obj 82 40 pack f f;
#X obj 145 108 loadbang;
#X obj 215 162 inst/ctrl 48;
#X obj 215 137 tgl 15 0 empty empty empty 17 7 0 10 #fcfcfc #000000
#000000 0 1;
#X obj 215 108 == 0;
#X obj 82 261 t f f f f f, f 88;
#X obj 215 191 expr imodf($f1/127*160+40);
#X obj 82 69 softKeySelector;
#X floatatom 92 108 5 0 0 0 - - - 0;
#X obj 164 415 /~ 4;
#X msg 145 162 40;
#X connect 1 0 18 0;
#X connect 2 0 18 0;
#X connect 3 0 18 0;
#X connect 4 0 18 0;
#X connect 5 0 7 0;
#X connect 6 0 5 0;
#X connect 7 0 1 0;
#X connect 7 1 2 0;
#X connect 7 2 3 0;
#X connect 7 4 4 0;
#X connect 8 0 9 0;
#X connect 8 1 9 1;
#X connect 9 0 16 0;
#X connect 10 0 19 0;
#X connect 11 0 15 0;
#X connect 12 0 11 0;
#X connect 13 0 12 0;
#X connect 14 0 1 1;
#X connect 14 1 2 1;
#X connect 14 2 3 1;
#X connect 14 4 4 1;
#X connect 15 0 5 1;
#X connect 16 0 13 0;
#X connect 16 0 17 0;
#X connect 16 0 14 0;
#X connect 18 0 0 0;
#X connect 18 0 0 1;
#X connect 19 0 15 0;
