#N canvas 254 83 892 655 12;
#X obj 54 29 inlet;
#X obj 54 58 route 82 83 84 85 86, f 58;
#X obj 54 87 t b f, f 9;
#X obj 134 87 t b f, f 9;
#X obj 215 87 t b f, f 9;
#X obj 295 87 t b f, f 9;
#X obj 376 87 t b f, f 9;
#X listbox 215 155 12 0 0 0 - - - 0;
#X obj 215 183 unpack f f;
#X obj 282 212 / 127;
#X obj 215 241 *, f 10;
#X obj 54 116 pack 1 f, f 9;
#X obj 134 116 pack 2 f, f 9;
#X obj 215 116 pack 3 f, f 9;
#X obj 295 116 pack 4 f, f 9;
#X obj 376 116 pack 5 f, f 9;
#X obj 215 466 outlet, f 10;
#X obj 457 87 outlet RestOfMidi;
#X text 19 490 This patch outputs 0 only if no soft key is active.
If one of them is active it outputs a number from 1 to 5;
#X obj 215 323 f;
#X obj 394 323 f;
#X obj 215 265 route 0;
#X obj 215 294 t b f b, f 26;
#X floatatom 245 352 5 0 0 0 - - - 0;
#X floatatom 424 352 5 0 0 0 - - - 0;
#X floatatom 215 438 5 0 0 0 - - - 0;
#X msg 159 323 0;
#X obj 159 294 sel -1;
#X obj 215 380 expr if($f1==$f2 \, -1 \, $f1);
#X obj 215 409 route -1;
#X connect 0 0 1 0;
#X connect 1 0 2 0;
#X connect 1 1 3 0;
#X connect 1 2 4 0;
#X connect 1 3 5 0;
#X connect 1 4 6 0;
#X connect 1 5 17 0;
#X connect 2 0 11 0;
#X connect 2 1 11 1;
#X connect 3 0 12 0;
#X connect 3 1 12 1;
#X connect 4 0 13 0;
#X connect 4 1 13 1;
#X connect 5 0 14 0;
#X connect 5 1 14 1;
#X connect 6 0 15 0;
#X connect 6 1 15 1;
#X connect 7 0 8 0;
#X connect 8 0 10 0;
#X connect 8 1 9 0;
#X connect 9 0 10 1;
#X connect 10 0 21 0;
#X connect 11 0 7 0;
#X connect 12 0 7 0;
#X connect 13 0 7 0;
#X connect 14 0 7 0;
#X connect 15 0 7 0;
#X connect 19 0 20 1;
#X connect 19 0 23 0;
#X connect 19 0 28 0;
#X connect 20 0 24 0;
#X connect 20 0 28 1;
#X connect 21 1 22 0;
#X connect 22 0 19 0;
#X connect 22 1 19 1;
#X connect 22 2 20 0;
#X connect 25 0 16 0;
#X connect 26 0 19 0;
#X connect 27 0 26 0;
#X connect 28 0 27 0;
#X connect 28 0 29 0;
#X connect 29 1 25 0;
