#N canvas 518 231 599 441 12;
#X obj 38 13 inlet;
#X obj 38 40 route 82 83 84 85 86, f 52;
#X obj 38 67 sel 127;
#X obj 110 67 sel 127;
#X floatatom 38 144 5 0 0 0 - - - 0;
#X floatatom 110 144 5 0 0 0 - - - 0;
#X floatatom 256 144 5 0 0 0 - - - 0;
#X floatatom 183 144 5 0 0 0 - - - 0;
#X floatatom 329 144 5 0 0 0 - - - 0;
#X obj 182 65 sel 127;
#X obj 254 65 sel 127;
#X obj 326 65 sel 127;
#X floatatom 38 330 5 0 0 0 - - - 0;
#X obj 110 171 t b f;
#X obj 183 171 t b f;
#X obj 256 171 t b f;
#X obj 329 171 t b f;
#X obj 58 258 loadbang;
#X obj 38 368 outlet;
#X msg 58 291 0;
#X obj 38 227 expr $f1 + 2*$f2 + 3*$f3 + 4*$f4 + 5*$f5, f 45;
#X text 105 297 This patch outputs 0 only if no soft key is active.
If one of them is active it outputs a number from 1 to 5;
#X obj 38 111 switching_toggles, f 42;
#X connect 0 0 1 0;
#X connect 1 0 2 0;
#X connect 1 1 3 0;
#X connect 1 2 9 0;
#X connect 1 3 10 0;
#X connect 1 4 11 0;
#X connect 2 0 22 0;
#X connect 3 0 22 1;
#X connect 4 0 20 0;
#X connect 5 0 13 0;
#X connect 6 0 15 0;
#X connect 7 0 14 0;
#X connect 8 0 16 0;
#X connect 9 0 22 2;
#X connect 10 0 22 3;
#X connect 11 0 22 4;
#X connect 12 0 18 0;
#X connect 13 0 20 0;
#X connect 13 1 20 1;
#X connect 14 0 20 0;
#X connect 14 1 20 2;
#X connect 15 0 20 0;
#X connect 15 1 20 3;
#X connect 16 0 20 0;
#X connect 16 1 20 4;
#X connect 17 0 19 0;
#X connect 19 0 12 0;
#X connect 20 0 12 0;
#X connect 22 0 4 0;
#X connect 22 1 5 0;
#X connect 22 2 7 0;
#X connect 22 3 6 0;
#X connect 22 4 8 0;
