#N canvas 0 47 1280 725 12;
#X obj 270 145 tgl 15 0 empty empty empty 17 7 0 10 #fcfcfc #000000
#000000 0 1;
#X obj 269 238 sel 1;
#X msg 269 262 1;
#X obj 323 145 tgl 15 0 empty empty empty 17 7 0 10 #fcfcfc #000000
#000000 0 1;
#X obj 323 237 sel 1;
#X obj 376 145 tgl 15 0 empty empty empty 17 7 0 10 #fcfcfc #000000
#000000 0 1;
#X obj 378 236 sel 1;
#X obj 432 145 tgl 15 0 empty empty empty 17 7 0 10 #fcfcfc #000000
#000000 0 1;
#X obj 433 235 sel 1;
#X msg 323 261 2;
#X msg 378 260 3;
#X msg 433 260 4;
#X msg 270 370 0;
#X obj 270 320 sel 1 2 3 4 5, f 93;
#X obj 485 145 tgl 15 0 empty empty empty 17 7 0 10 #fcfcfc #000000
#000000 0 1;
#X obj 486 235 sel 1;
#X msg 486 260 5;
#X obj 476 523 route 1 2 3 4 5, f 48;
#X obj 217 438 pack 1 0;
#X obj 217 410 t b;
#X msg 399 371 0;
#X obj 346 411 t b;
#X msg 529 372 0;
#X obj 476 412 t b;
#X msg 658 373 0;
#X obj 605 413 t b;
#X msg 788 373 0;
#X obj 735 413 t b;
#X obj 346 439 pack 2 0;
#X obj 476 440 pack 3 0;
#X obj 605 441 pack 4 0;
#X obj 735 441 pack 5 0;
#X obj 476 564 s t1;
#X obj 542 564 s t2;
#X obj 609 564 s t3;
#X obj 675 564 s t4;
#X obj 742 564 s t5;
#X obj 175 21 r t1;
#X obj 262 21 r t2;
#X obj 345 21 r t3;
#X obj 429 21 r t4;
#X obj 511 21 r t5;
#X obj 273 178 outlet;
#X obj 326 177 outlet;
#X obj 380 177 outlet;
#X obj 436 177 outlet;
#X obj 488 177 outlet;
#X obj 207 21 inlet;
#X obj 294 21 inlet;
#X obj 377 21 inlet;
#X obj 461 21 inlet;
#X obj 543 21 inlet, f 6;
#X connect 0 0 1 0;
#X connect 0 0 42 0;
#X connect 1 0 2 0;
#X connect 2 0 13 0;
#X connect 3 0 4 0;
#X connect 3 0 43 0;
#X connect 4 0 9 0;
#X connect 5 0 6 0;
#X connect 5 0 44 0;
#X connect 6 0 10 0;
#X connect 7 0 8 0;
#X connect 7 0 45 0;
#X connect 8 0 11 0;
#X connect 9 0 13 0;
#X connect 10 0 13 0;
#X connect 11 0 13 0;
#X connect 12 0 18 1;
#X connect 12 0 19 0;
#X connect 13 0 12 0;
#X connect 13 1 20 0;
#X connect 13 2 22 0;
#X connect 13 3 24 0;
#X connect 13 4 26 0;
#X connect 14 0 15 0;
#X connect 14 0 46 0;
#X connect 15 0 16 0;
#X connect 16 0 13 0;
#X connect 17 0 32 0;
#X connect 17 1 33 0;
#X connect 17 2 34 0;
#X connect 17 3 35 0;
#X connect 17 4 36 0;
#X connect 18 0 17 0;
#X connect 19 0 18 0;
#X connect 20 0 21 0;
#X connect 20 0 28 1;
#X connect 21 0 28 0;
#X connect 22 0 23 0;
#X connect 22 0 29 1;
#X connect 23 0 29 0;
#X connect 24 0 25 0;
#X connect 24 0 30 1;
#X connect 25 0 30 0;
#X connect 26 0 27 0;
#X connect 26 0 31 1;
#X connect 27 0 31 0;
#X connect 28 0 17 0;
#X connect 29 0 17 0;
#X connect 30 0 17 0;
#X connect 31 0 17 0;
#X connect 37 0 3 0;
#X connect 37 0 14 0;
#X connect 37 0 7 0;
#X connect 37 0 5 0;
#X connect 38 0 0 0;
#X connect 38 0 5 0;
#X connect 38 0 7 0;
#X connect 38 0 14 0;
#X connect 39 0 7 0;
#X connect 39 0 14 0;
#X connect 39 0 3 0;
#X connect 39 0 0 0;
#X connect 40 0 14 0;
#X connect 40 0 5 0;
#X connect 40 0 3 0;
#X connect 40 0 0 0;
#X connect 41 0 7 0;
#X connect 41 0 5 0;
#X connect 41 0 3 0;
#X connect 41 0 0 0;
#X connect 47 0 0 0;
#X connect 48 0 3 0;
#X connect 49 0 5 0;
#X connect 50 0 7 0;
#X connect 51 0 14 0;
#X coords 0 725 1 724 250 30 0;
