#N canvas 528 25 751 703 12;
#X obj 174 22 inlet tempo;
#X obj 315 649 outlet;
#X floatatom 174 46 5 0 0 0 - - - 0;
#N canvas 0 22 450 278 (subpatch) 0;
#X array seqKick 32 float 3;
#A 0 0 0.666667 0.666667 0.7 0.733333 0.733333 0.733333 0.733333 0.733333
0.733333 0.7 0.7 0.7 0.7 0.7 0.7 0.7 0.733333 0.733333 0.733333 0.7
0.666667 0.666667 0.666667 0.666667 0.633333 0.6 0.6 0.6 0.566667 0.566667
0.566667;
#X coords 0 0 32 1 200 30 1 0 0;
#X restore 497 74 graph;
#N canvas 0 22 450 278 (subpatch) 0;
#X array seqSnare 32 float 3;
#A 0 0 0 0 0 0 0 0 0 0 0 0 0 0 0 0 0 0 0 0 0 0 0 0 0 0 0 0 0 0 0 0
0;
#X coords 0 0 32 1 200 30 1 0 0;
#X restore 497 124 graph;
#N canvas 0 22 450 278 (subpatch) 0;
#X array seqHitHat 32 float 3;
#A 0 0 0 0 0 0 0 0 0 0 0 0 0 0 0 0 0 0 0 0 0 0 0 0 0 0 0 0 0 0 0 0
0;
#X coords 0 0 32 1 200 30 1 0 0;
#X restore 497 174 graph;
#X obj 84 126 tgl 15 0 empty empty empty 17 7 0 10 #fcfcfc #000000
#000000 0 1;
#N canvas 338 283 730 382 (subpatch) 0;
#X array seq 32 float 3;
#A 0 32 33 34 35 36 37 38 39 24 25 26 27 28 29 30 31 16 17 18 19 20
21 22 23 8 9 10 11 12 13 14 32;
#X coords 0 5 31 42 200 30 1 0 0;
#X restore 497 24 graph;
#X msg 310 85 \; seqKick const 0 \; seqSnare const 0 \; seqHitHat const
0, f 20;
#X obj 294 7 ctlin;
#X obj 310 32 sel 64;
#X text 320 51 Reset sequencer pressing the SUSTAIN button, f 24;
#X obj 84 22 notein 1;
#X obj 84 46 pack f f;
#X obj 84 94 sel 127;
#X obj 84 70 route 91;
#X msg 174 91 tempo \$1 permin;
#N canvas 195 25 958 747 sequencerLight 0;
#X obj 611 252 makenote, f 16;
#X obj 610 26 inlet;
#X obj 38 13 inlet;
#X obj 38 40 route 82 83 84 85 86, f 52;
#X obj 37 151 ../switching_toggles, f 41;
#X obj 38 67 sel 127;
#X obj 110 67 sel 127;
#X floatatom 37 324 5 0 0 0 - - - 0;
#X floatatom 37 174 5 0 0 0 - - - 0;
#X floatatom 108 174 5 0 0 0 - - - 0;
#X floatatom 250 174 5 0 0 0 - - - 0;
#X floatatom 179 174 5 0 0 0 - - - 0;
#X floatatom 322 174 5 0 0 0 - - - 0;
#X obj 182 65 sel 127;
#X obj 254 65 sel 127;
#X obj 326 65 sel 127;
#X floatatom 37 261 5 0 0 0 - - - 0;
#X obj 37 237 expr $f1+$f2+$f3+$f4+$f5, f 45;
#X obj 108 201 t b f;
#X obj 179 201 t b f;
#X obj 250 201 t b f;
#X obj 322 201 t b f;
#X obj 37 294 == 0;
#X msg 84 294 1;
#X obj 84 261 loadbang;
#X floatatom 610 50 5 0 0 0 - - - 0;
#X msg 760 222 125;
#X msg 655 143 3;
#X msg 704 143 1;
#X obj 637 89 route 0 8 16 24;
#X floatatom 37 414 5 0 0 0 - - - 0;
#X obj 37 390 expr $f1 + 8*(4 - 2 * imodf($f1/8));
#X text 138 373 From midi to seq;
#X text 706 182 From seq to midi;
#X obj 610 197 expr 32-(imodf($f1/8) - modf($f1/8))*8;
#X obj 34 468 expr 32-(imodf($f1/8) - modf($f1/8))*8 \; $f2 + 8*(4
- 2 * imodf($f2/8));
#X obj 611 292 pack f f, f 16;
#X obj 611 324 ../LedOnOff;
#X connect 0 0 36 0;
#X connect 0 1 36 1;
#X connect 1 0 25 0;
#X connect 2 0 3 0;
#X connect 3 0 5 0;
#X connect 3 1 6 0;
#X connect 3 2 13 0;
#X connect 3 3 14 0;
#X connect 3 4 15 0;
#X connect 4 0 8 0;
#X connect 4 1 9 0;
#X connect 4 2 11 0;
#X connect 4 3 10 0;
#X connect 4 4 12 0;
#X connect 5 0 4 0;
#X connect 6 0 4 1;
#X connect 8 0 17 0;
#X connect 9 0 18 0;
#X connect 10 0 20 0;
#X connect 11 0 19 0;
#X connect 12 0 21 0;
#X connect 13 0 4 2;
#X connect 14 0 4 3;
#X connect 15 0 4 4;
#X connect 16 0 22 0;
#X connect 17 0 16 0;
#X connect 18 0 17 0;
#X connect 18 1 17 1;
#X connect 19 0 17 0;
#X connect 19 1 17 2;
#X connect 20 0 17 0;
#X connect 20 1 17 3;
#X connect 21 0 17 0;
#X connect 21 1 17 4;
#X connect 22 0 7 0;
#X connect 23 0 7 0;
#X connect 24 0 23 0;
#X connect 25 0 29 0;
#X connect 25 0 34 0;
#X connect 26 0 0 2;
#X connect 27 0 0 1;
#X connect 28 0 0 1;
#X connect 29 0 27 0;
#X connect 29 1 27 0;
#X connect 29 2 27 0;
#X connect 29 3 27 0;
#X connect 29 4 28 0;
#X connect 31 0 30 0;
#X connect 34 0 0 0;
#X connect 36 0 37 0;
#X restore 5 268 pd sequencerLight;
#X obj 174 161 metro 0.125 120 permin;
#N canvas 14 177 561 504 counter 0;
#X obj 109 45 inlet;
#X obj 109 97 f 0;
#X obj 173 95 + 1, f 4;
#X floatatom 109 121 5 0 0 0 - - - 0;
#X floatatom 70 64 5 0 0 0 - - - 0;
#X obj 109 151 outlet;
#X obj 22 8 inlet;
#X obj 22 36 t b;
#X obj 22 101 select 31;
#X connect 0 0 1 0;
#X connect 1 0 2 0;
#X connect 1 0 3 0;
#X connect 2 0 1 1;
#X connect 3 0 5 0;
#X connect 3 0 8 0;
#X connect 4 0 1 1;
#X connect 6 0 7 0;
#X connect 7 0 4 0;
#X connect 8 0 4 0;
#X restore 85 219 pd counter;
#X f 13;
#X floatatom 85 243 5 0 0 0 - - - 0;
#X obj 164 267 t f f f f f;
#X floatatom 143 301 5 0 0 0 - - - 0;
#X floatatom 182 298 5 0 0 0 - - - 0;
#X floatatom 620 295 5 0 0 0 - - - 0;
#X obj 277 561 ../LedOnOff;
#X msg 319 507 reset;
#X obj 256 444 pack f f;
#X floatatom 257 365 5 0 0 0 - - - 0;
#X obj 309 405 tabread seqKick;
#X obj 334 442 print;
#X connect 0 0 2 0;
#X connect 2 0 16 0;
#X connect 6 0 18 0;
#X connect 6 0 19 0;
#X connect 9 1 10 0;
#X connect 10 0 8 0;
#X connect 12 0 13 0;
#X connect 12 1 13 1;
#X connect 13 0 15 0;
#X connect 14 0 6 0;
#X connect 15 0 14 0;
#X connect 15 1 17 0;
#X connect 16 0 18 0;
#X connect 18 0 19 1;
#X connect 19 0 20 0;
#X connect 20 0 21 0;
#X connect 20 0 17 1;
#X connect 21 0 22 0;
#X connect 21 1 23 0;
#X connect 21 4 24 0;
#X connect 26 0 25 0;
#X connect 27 0 25 0;
#X connect 28 0 27 0;
#X connect 28 0 29 0;
#X connect 29 0 27 1;
#X connect 29 0 30 0;
