#N canvas 15 25 863 747 12;
#X obj 193 34 inlet tempo;
#X obj 56 535 outlet;
#X floatatom 193 63 5 0 0 0 - - - 0;
#N canvas 527 494 450 278 (subpatch) 0;
#X array seqKick 32 float 3;
#A 0 3 0 0 0 0 3 3 0 0 0 0 0 3 3 0 0 0 0 0 0 0 0 3 0 3 0 0 0 0 0 0
3;
#X coords 0 0 32 4 224 40 1 0 0;
#X restore 336 85 graph;
#N canvas 527 494 450 278 (subpatch) 0;
#X array seqSnare 32 float 3;
#A 0 0 0 0 3 0 0 0 0 3 0 0 0 0 0 0 3 3 3 0 3 0 0 0 0 0 0 0 3 0 0 0
0;
#X coords 0 0 32 4 224 40 1 0 0;
#X restore 336 145 graph;
#N canvas 179 204 450 278 (subpatch) 0;
#X array seqHitHat 32 float 3;
#A 0 3 3 3 0 0 3 3 0 3 0 3 3 0 3 3 3 3 0 3 3 3 3 3 0 3 0 0 3 3 0 3
0;
#X coords 0 0 32 4 224 40 1 0 0;
#X restore 336 205 graph;
#X obj 83 142 tgl 15 0 empty empty empty 17 7 0 10 #fcfcfc #000000
#000000 0 1;
#X obj 867 4 ctlin;
#X obj 883 33 sel 64;
#X text 893 52 Reset sequencer pressing the SUSTAIN button, f 24;
#X obj 83 41 notein 1;
#X obj 83 65 pack f f;
#X obj 83 113 sel 127;
#X obj 83 89 route 91, f 13;
#X msg 193 151 tempo \$1 permin;
#N canvas 333 25 959 711 sequencerLight 0;
#X obj 32 380 makenote, f 16;
#X floatatom 32 323 5 0 0 0 - - - 0;
#X obj 32 351 expr 32-(imodf($f1/8) - modf($f1/8))*8;
#X obj 42 18 inlet midiNote;
#X obj 180 18 inlet sequencerStep;
#X obj 33 159 pack f f, f 30;
#X obj 180 86 t b f, f 9;
#X obj 42 57 ../softKeySelector;
#X msg 367 252 symbol seqKick;
#X msg 430 281 symbol seqSnare;
#X msg 494 310 symbol seqHitHat;
#X listbox 32 438 6 0 0 0 - - - 0;
#X obj 32 409 pack f f, f 16;
#X msg 86 232 5;
#N canvas 27 73 508 484 seqNotes 0;
#X obj 198 36 inlet;
#X obj 344 160 array get;
#X obj 311 219 until;
#X obj 324 302 list store;
#X obj 344 186 t b b l;
#X obj 311 244 f;
#X obj 349 245 + 1;
#X msg 368 219 0, f 2;
#X msg 311 275 get \$1 1;
#X msg 198 111 0;
#X msg 264 114 -1;
#X obj 198 69 t b b b s, f 29;
#X obj 53 303 expr $f1 + 8*(4 - 2 * imodf($f1/8));
#X obj 209 347 pack f f;
#X obj 160 236 f 0;
#X obj 224 234 + 1, f 4;
#X floatatom 160 260 5 0 0 0 - - - 0;
#X floatatom 331 103 5 0 0 0 - - - 0;
#X obj 160 155 t b;
#X obj 209 387 outlet;
#X obj 73 240 select 31;
#X connect 0 0 11 0;
#X connect 1 0 4 0;
#X connect 2 0 5 0;
#X connect 3 0 13 1;
#X connect 3 1 2 1;
#X connect 4 0 2 0;
#X connect 4 1 7 0;
#X connect 4 2 3 1;
#X connect 5 0 6 0;
#X connect 5 0 8 0;
#X connect 5 0 18 0;
#X connect 6 0 5 1;
#X connect 7 0 5 1;
#X connect 8 0 3 0;
#X connect 9 0 1 0;
#X connect 9 0 14 1;
#X connect 10 0 1 1;
#X connect 11 0 9 0;
#X connect 11 1 10 0;
#X connect 11 2 17 0;
#X connect 11 3 1 2;
#X connect 12 0 13 0;
#X connect 13 0 19 0;
#X connect 14 0 15 0;
#X connect 14 0 16 0;
#X connect 15 0 14 1;
#X connect 16 0 12 0;
#X connect 16 0 20 0;
#X connect 17 0 14 1;
#X connect 18 0 14 0;
#X restore 334 464 pd seqNotes;
#X obj 334 563 ../LedOnOff;
#X msg 285 464 reset;
#X obj 32 294 route 0;
#X msg 686 397 symbol zeros;
#X listbox 32 232 6 0 0 0 - - - 0;
#X obj 367 158 sel 1 2 3 4 5 0, f 55;
#X obj 327 18 inlet tempo;
#X obj 42 86 t f b b b f;
#X text 426 12 This formula [ $f1+8*(4-2*imodf($f1/8)) ]takes in input
the MIDI note from the button matrix and outputs the relative step
for the sequencer. This one [ 32-(imodf($f1/8)-modf($f1/8))*8 ] is
the inverse \, from a value in the sequence it outputs the relative
MIDI note., f 70;
#X msg 558 339 symbol seqPad;
#X msg 623 368 symbol seqBassNote;
#X floatatom 141 313 5 0 0 0 - - - 0;
#X obj 367 213 del 125;
#X obj 430 213 del 125;
#X obj 494 213 del 125;
#X obj 558 213 del 125;
#X obj 621 213 del 125;
#X obj 327 159 + 10;
#X obj 305 93 expr 6000/$f1;
#X connect 0 0 12 0;
#X connect 0 1 12 1;
#X connect 1 0 2 0;
#X connect 2 0 0 0;
#X connect 3 0 7 0;
#X connect 4 0 6 0;
#X connect 5 0 19 0;
#X connect 6 0 5 0;
#X connect 6 0 13 0;
#X connect 6 1 5 1;
#X connect 7 0 22 0;
#X connect 8 0 14 0;
#X connect 9 0 14 0;
#X connect 10 0 14 0;
#X connect 11 0 15 0;
#X connect 12 0 11 0;
#X connect 13 0 0 1;
#X connect 14 0 15 0;
#X connect 16 0 15 0;
#X connect 17 0 1 0;
#X connect 18 0 14 0;
#X connect 19 0 17 0;
#X connect 20 0 27 0;
#X connect 20 1 28 0;
#X connect 20 2 29 0;
#X connect 20 3 30 0;
#X connect 20 4 31 0;
#X connect 20 5 18 0;
#X connect 21 0 33 0;
#X connect 22 0 20 0;
#X connect 22 4 5 0;
#X connect 24 0 14 0;
#X connect 25 0 14 0;
#X connect 26 0 0 2;
#X connect 27 0 8 0;
#X connect 28 0 9 0;
#X connect 29 0 10 0;
#X connect 30 0 24 0;
#X connect 31 0 25 0;
#X connect 32 0 27 1;
#X connect 32 0 28 1;
#X connect 32 0 29 1;
#X connect 32 0 30 1;
#X connect 32 0 31 1;
#X connect 33 0 26 0;
#X connect 33 0 32 0;
#X restore 24 281 pd sequencerLight;
#N canvas 14 177 561 504 counter 0;
#X obj 109 45 inlet;
#X obj 109 97 f 0;
#X obj 173 95 + 1, f 4;
#X floatatom 109 121 5 0 0 0 - - - 0;
#X floatatom 70 64 5 0 0 0 - - - 0;
#X obj 109 151 outlet;
#X obj 22 8 inlet;
#X obj 22 36 t b;
#X obj 22 101 select 31;
#X connect 0 0 1 0;
#X connect 1 0 2 0;
#X connect 1 0 3 0;
#X connect 2 0 1 1;
#X connect 3 0 5 0;
#X connect 3 0 8 0;
#X connect 4 0 1 1;
#X connect 6 0 7 0;
#X connect 7 0 4 0;
#X connect 8 0 4 0;
#X restore 203 219 pd counter;
#X f 13;
#X floatatom 203 243 5 0 0 0 - - - 0;
#N canvas 0 22 450 278 (subpatch) 0;
#X array steps 32 float 3;
#A 0 0 1 2 3 4 5 6 7 8 9 10 11 12 13 14 15 16 17 18 19 20 21 22 23
24 25 26 27 28 29 30 31;
#X coords 0 0 32 31 224 32 1 0 0;
#X restore 336 33 graph;
#X msg 580 4 \; steps 0 0 1 2 3 4 5 6 7 8 9 10 11 12 13 14 15 16 17
18 19 20 21 22 23 24 25 26 27 28 29 30 31, f 36;
#N canvas 440 465 450 278 (subpatch) 0;
#X array zeros 32 float 3;
#A 0 0 0 0 0 0 0 0 0 0 0 0 0 0 0 0 0 0 0 0 0 0 0 0 0 0 0 0 0 0 0 0
0;
#X coords 0 0 32 1 224 32 1 0 0;
#X restore 580 85 graph;
#X obj 182 535 outlet;
#X obj 309 535 outlet;
#X obj 22 12 inlet start;
#X obj 56 487 tabread seqKick;
#X obj 182 487 tabread seqSnare;
#X obj 309 487 tabread seqHitHat;
#X obj 56 511 sel 3;
#X obj 182 511 sel 3;
#X obj 309 511 sel 3;
#X obj 193 180 metro 0.1 60 permin;
#X msg 241 92 120;
#X obj 241 63 loadbang;
#X obj 436 535 outlet;
#X obj 436 511 sel 3;
#N canvas 527 494 450 278 (subpatch) 0;
#X array seqPad 32 float 3;
#A 0 0 0 0 0 0 0 0 0 0 0 0 0 0 0 0 0 0 0 0 0 0 0 0 0 0 0 0 0 0 0 0
0;
#X coords 0 0 32 4 224 40 1 0 0;
#X restore 336 265 graph;
#N canvas 179 204 450 278 (subpatch) 0;
#X array seqBassNote 32 float 3;
#A 0 0 0 0 0 0 0 0 0 0 0 0 0 0 0 0 0 0 0 0 0 0 0 0 0 0 0 0 0 0 0 0
0;
#X coords 0 0 32 4 224 40 1 0 0;
#X restore 580 145 graph;
#X obj 436 487 tabread seqPad;
#N canvas 179 204 450 278 (subpatch) 0;
#X array seqBassVelocity 32 float 3;
#A 0 0 0 0 0 0 0 0 0 0 0 0 0 0 0 0 0 0 0 0 0 0 0 0 0 0 0 0 0 0 0 0
0;
#X coords 0 0 32 4 224 40 1 0 0;
#X restore 580 205 graph;
#X obj 562 487 tabread seqBassNote;
#X obj 704 487 tabread seqBassVelocity;
#X obj 879 487 tabread seqBassDuration;
#N canvas 179 204 450 278 (subpatch) 0;
#X array seqBassDuration 32 float 3;
#A 0 0 0 0 0 0 0 0 0 0 0 0 0 0 0 0 0 0 0 0 0 0 0 0 0 0 0 0 0 0 0 0
0;
#X coords 0 0 32 4 224 40 1 0 0;
#X restore 580 265 graph;
#X obj 671 537 pack f f f;
#X obj 671 576 outlet;
#X obj 56 442 t f f f f f f f, f 109;
#X msg 336 315 \; seqKick 0 3 0 0 0 0 3 3 0 0 0 0 0 3 3 0 0 0 0 0 0
0 0 3 0 3 0 0 0 0 0 0 3 \; seqSnare 0 0 0 0 3 0 0 0 0 3 0 0 0 0 0 0
3 3 3 0 3 0 0 0 0 0 0 0 3 0 0 0 0 \; seqHitHat 0 3 3 3 0 0 3 3 0 3
0 3 3 0 3 3 3 3 0 3 3 3 3 3 0 3 0 0 3 3 0 3 0 \;, f 77;
#X msg 883 86 \; seqKick const 0 \; seqSnare const 0 \; seqHitHat const
0 \; seqPad const 0 \; seqBassNote const 0 \; seqBassVelocity const
0 \; seqBassDuration const 0 \;;
#X obj 193 122 / 4;
#X connect 0 0 2 0;
#X connect 2 0 48 0;
#X connect 6 0 16 0;
#X connect 6 0 30 0;
#X connect 7 1 8 0;
#X connect 8 0 47 0;
#X connect 10 0 11 0;
#X connect 10 1 11 1;
#X connect 11 0 13 0;
#X connect 12 0 6 0;
#X connect 13 0 12 0;
#X connect 13 1 15 0;
#X connect 14 0 30 0;
#X connect 16 0 17 0;
#X connect 17 0 15 1;
#X connect 17 0 45 0;
#X connect 23 0 6 0;
#X connect 24 0 27 0;
#X connect 25 0 28 0;
#X connect 26 0 29 0;
#X connect 27 0 1 0;
#X connect 28 0 21 0;
#X connect 29 0 22 0;
#X connect 30 0 16 1;
#X connect 31 0 48 0;
#X connect 32 0 31 0;
#X connect 34 0 33 0;
#X connect 37 0 34 0;
#X connect 39 0 43 0;
#X connect 40 0 43 1;
#X connect 41 0 43 2;
#X connect 43 0 44 0;
#X connect 45 0 24 0;
#X connect 45 1 25 0;
#X connect 45 2 26 0;
#X connect 45 3 37 0;
#X connect 45 4 39 0;
#X connect 45 5 40 0;
#X connect 45 6 41 0;
#X connect 48 0 14 0;
#X connect 48 0 15 2;
