#N canvas 114 75 578 513 12;
#X obj 198 36 inlet;
#X obj 344 160 array get;
#X obj 311 219 until;
#X obj 324 302 list store;
#X obj 344 186 t b b l;
#X obj 311 244 f;
#X obj 349 245 + 1;
#X msg 368 219 0, f 2;
#X msg 311 275 get \$1 1;
#X msg 198 111 0;
#X msg 264 114 -1;
#X obj 198 69 t b b b s, f 29;
#X obj 53 303 expr $f1 + 8*(4 - 2 * imodf($f1/8));
#X obj 209 347 pack f f;
#X obj 160 236 f 0;
#X obj 224 234 + 1, f 4;
#X floatatom 160 260 5 0 0 0 - - - 0;
#X floatatom 331 103 5 0 0 0 - - - 0;
#X obj 160 155 t b;
#X obj 209 387 outlet;
#X obj 83 236 select 31;
#X floatatom 53 327 5 0 0 0 - - - 0;
#X connect 0 0 11 0;
#X connect 1 0 4 0;
#X connect 2 0 5 0;
#X connect 3 0 13 1;
#X connect 3 1 2 1;
#X connect 4 0 2 0;
#X connect 4 1 7 0;
#X connect 4 2 3 1;
#X connect 5 0 6 0;
#X connect 5 0 8 0;
#X connect 5 0 18 0;
#X connect 6 0 5 1;
#X connect 7 0 5 1;
#X connect 8 0 3 0;
#X connect 9 0 1 0;
#X connect 9 0 14 1;
#X connect 10 0 1 1;
#X connect 11 0 9 0;
#X connect 11 1 10 0;
#X connect 11 2 17 0;
#X connect 11 3 1 2;
#X connect 12 0 13 0;
#X connect 12 0 21 0;
#X connect 13 0 19 0;
#X connect 14 0 15 0;
#X connect 14 0 16 0;
#X connect 15 0 14 1;
#X connect 16 0 12 0;
#X connect 16 0 20 0;
#X connect 17 0 14 1;
#X connect 18 0 14 0;
#X connect 20 0 17 0;
