#N canvas 219 25 1052 747 12;
#X obj 230 118 inlet tempo;
#X obj 30 483 outlet;
#X floatatom 230 158 5 1 240 0 - - - 0;
#X obj 103 235 tgl 15 0 empty empty empty 17 7 0 10 #fcfcfc #000000
#000000 0 1;
#X obj 103 31 notein 1;
#X obj 103 60 pack f f;
#X obj 103 118 sel 127;
#X obj 103 89 route 91, f 34;
#X msg 170 235 tempo \$1 permin;
#N canvas 131 25 1051 747 sequencerLight 0;
#X obj 33 258 makenote, f 16;
#X floatatom 33 201 5 0 0 0 - - - 0;
#X obj 33 229 expr 32-(imodf($f1/8) - modf($f1/8))*8;
#X obj 33 18 inlet midiNote;
#X obj 180 18 inlet sequencerStep;
#X obj 33 115 pack f f, f 30;
#X obj 180 56 t b f, f 9;
#X obj 33 57 ../softKeySelector;
#X listbox 33 316 6 0 0 0 - - - 0;
#X obj 33 287 pack f f, f 16;
#X msg 87 144 5;
#X obj 329 355 ../LedOnOff;
#X msg 280 316 reset;
#X obj 33 172 route 0;
#X listbox 33 144 6 0 0 0 - - - 0;
#X obj 337 18 inlet tempo;
#X text 465 14 This formula [ $f1+8*(4-2*imodf($f1/8)) ]takes in input
the MIDI note from the button matrix and outputs the relative step
for the sequencer. This one [ 32-(imodf($f1/8)-modf($f1/8))*8 ] is
the inverse \, from a value in the sequence it outputs the relative
MIDI note., f 71;
#X floatatom 142 191 5 0 0 0 - - - 0;
#X obj 376 117 + 10;
#X obj 337 76 expr 6000/$f1;
#X obj 329 316 sequenceDisplay;
#X obj 329 200 del, f 7;
#X floatatom 329 117 5 0 0 0 - - - 0;
#X obj 329 164 bng 15 250 50 0 empty empty empty 17 7 0 10 #fcfcfc
#000000 #000000;
#X obj 329 258 pack f;
#X msg 329 287 symbol seq\$1;
#X obj 329 229 f, f 17;
#X connect 0 0 9 0;
#X connect 0 1 9 1;
#X connect 1 0 2 0;
#X connect 2 0 0 0;
#X connect 3 0 7 0;
#X connect 4 0 6 0;
#X connect 5 0 14 0;
#X connect 6 0 5 0;
#X connect 6 0 10 0;
#X connect 6 1 5 1;
#X connect 7 0 5 0;
#X connect 7 0 22 0;
#X connect 8 0 11 0;
#X connect 9 0 8 0;
#X connect 10 0 0 1;
#X connect 12 0 11 0;
#X connect 13 0 1 0;
#X connect 14 0 13 0;
#X connect 15 0 19 0;
#X connect 17 0 0 2;
#X connect 18 0 21 1;
#X connect 19 0 17 0;
#X connect 19 0 18 0;
#X connect 20 0 11 0;
#X connect 21 0 26 0;
#X connect 22 0 23 0;
#X connect 22 0 26 1;
#X connect 23 0 21 0;
#X connect 24 0 25 0;
#X connect 25 0 20 0;
#X connect 26 0 24 0;
#X restore 338 377 pd sequencerLight;
#N canvas 14 177 561 504 counter 0;
#X obj 109 45 inlet;
#X obj 109 97 f 0;
#X obj 173 95 + 1, f 4;
#X floatatom 109 121 5 0 0 0 - - - 0;
#X floatatom 70 64 5 0 0 0 - - - 0;
#X obj 109 151 outlet;
#X obj 22 8 inlet;
#X obj 22 36 t b;
#X obj 22 101 select 31;
#X connect 0 0 1 0;
#X connect 1 0 2 0;
#X connect 1 0 3 0;
#X connect 2 0 1 1;
#X connect 3 0 5 0;
#X connect 3 0 8 0;
#X connect 4 0 1 1;
#X connect 6 0 7 0;
#X connect 7 0 4 0;
#X connect 8 0 4 0;
#X restore 103 293 pd counter;
#X floatatom 103 317 5 0 0 0 - - - 0;
#X obj 136 483 outlet;
#X obj 242 483 outlet;
#X obj 12 41 inlet start;
#X obj 30 459 sel 3;
#X obj 136 459 sel 3;
#X obj 242 459 sel 3;
#X msg 163 157 120;
#X obj 163 118 loadbang;
#X obj 348 483 outlet;
#X obj 348 459 sel 3;
#N canvas 0 25 683 648 seqNoteIn 1;
#X obj 234 10 inlet;
#X obj 234 39 ../softKeySelector, f 19;
#X obj 307 434 tabread;
#X obj 68 267 sequenceDisplay;
#X obj 68 587 ../LedOnOff;
#X msg 276 391 set seq\$1;
#X obj 307 463 expr if($f1 == 3 \, 0 \, 3);
#X msg 68 238 symbol seq\$1;
#X obj 364 98 unpack, f 7;
#X listbox 403 199 9 0 0 0 - - - 0;
#X obj 315 209 route 0, f 9;
#X obj 315 180 pack f f, f 12;
#X obj 52 50 ctlin;
#X obj 68 79 sel 64;
#X msg 100 195 \; seq\$1 const 0;
#X obj 68 108 f;
#X floatatom 68 137 5 0 0 0 - - - 0;
#X text 6 7 Reset current sequence pressing SUSTAIN, f 23;
#X obj 68 165 t f f;
#X obj 307 522 pack f f f, f 20;
#X obj 375 238 unpack f f;
#X msg 307 571 \; seq\$2 \$3 \$1;
#X obj 230 228 sel 127;
#X obj 230 286 t b b b;
#X obj 442 304 expr $f1+8*(4-2*imodf($f1/8));
#X obj 364 151 t b f;
#X obj 276 336 f;
#X listbox 325 548 20 0 0 0 - - - 0;
#X obj 230 257 del 2;
#X obj 397 373 f;
#X obj 364 69 route 0 1 2 3 4 5 6 7 98;
#X obj 120 556 pack f f;
#X obj 120 481 f;
#X connect 0 0 1 0;
#X connect 1 0 11 0;
#X connect 1 0 15 1;
#X connect 1 1 30 0;
#X connect 2 0 6 0;
#X connect 3 0 4 0;
#X connect 5 0 2 0;
#X connect 6 0 19 0;
#X connect 6 0 31 1;
#X connect 7 0 3 0;
#X connect 8 0 25 0;
#X connect 8 1 22 0;
#X connect 10 1 20 0;
#X connect 11 0 9 0;
#X connect 11 0 10 0;
#X connect 12 1 13 0;
#X connect 13 0 15 0;
#X connect 15 0 16 0;
#X connect 16 0 18 0;
#X connect 18 0 7 0;
#X connect 18 1 14 0;
#X connect 19 0 21 0;
#X connect 19 0 27 0;
#X connect 20 0 26 1;
#X connect 20 0 19 1;
#X connect 20 1 24 0;
#X connect 20 1 32 1;
#X connect 22 0 28 0;
#X connect 23 0 32 0;
#X connect 23 1 29 0;
#X connect 23 2 26 0;
#X connect 24 0 19 2;
#X connect 24 0 29 1;
#X connect 25 0 11 0;
#X connect 25 1 11 1;
#X connect 26 0 5 0;
#X connect 28 0 23 0;
#X connect 29 0 2 0;
#X connect 30 9 8 0;
#X connect 31 0 4 0;
#X connect 32 0 31 0;
#X restore 321 118 pd seqNoteIn;
#X obj 454 459 sel 3;
#X obj 454 483 outlet;
#X obj 30 406 t f f f f f, f 61;
#X obj 30 435 tabread seq1;
#X obj 136 435 tabread seq2;
#X obj 242 435 tabread seq3;
#X obj 348 435 tabread seq4;
#X obj 454 435 tabread seq5;
#N canvas 0 22 450 278 (subpatch) 0;
#X array seq0 32 float 3;
#A 0 0 0 0 0 0 0 0 0 0 0 0 0 0 0 0 0 0 0 0 0 0 0 0 0 0 0 0 0 0 0 0
0;
#X coords 0 1 32 0 224 50 1 0 0;
#X restore 459 23 graph;
#N canvas 0 22 450 278 (subpatch) 0;
#X array seq1 32 float 3;
#A 0 0 0 0 0 0 0 0 0 0 0 0 0 0 0 0 0 0 0 0 0 0 0 0 0 0 0 0 0 0 0 0
0;
#X coords 0 5 32 0 224 50 1 0 0;
#X restore 459 93 graph;
#N canvas 0 22 450 278 (subpatch) 0;
#X array seq2 32 float 3;
#A 0 0 0 0 0 0 0 0 0 0 0 0 0 0 0 0 0 0 0 0 0 0 0 0 0 0 0 0 0 0 0 0
0;
#X coords 0 5 32 0 224 50 1 0 0;
#X restore 459 164 graph;
#N canvas 0 22 450 278 (subpatch) 0;
#X array seq3 32 float 3;
#A 0 0 0 0 0 0 0 0 0 0 0 0 0 0 0 0 0 0 0 0 0 0 0 0 0 0 0 0 0 0 0 0
0;
#X coords 0 5 32 0 224 50 1 0 0;
#X restore 703 23 graph;
#N canvas 0 22 450 278 (subpatch) 0;
#X array seq4 32 float 3;
#A 0 0 0 0 0 0 0 0 0 0 0 0 0 0 0 0 0 0 0 0 0 0 0 0 0 0 0 0 0 0 0 0
0;
#X coords 0 5 32 0 224 50 1 0 0;
#X restore 703 94 graph;
#N canvas 0 22 450 278 (subpatch) 0;
#X array seq5 32 float 3;
#A 0 0 0 0 0 0 0 0 0 0 0 0 0 0 0 0 0 0 0 0 0 0 0 0 0 0 0 0 0 0 0 0
0;
#X coords 0 5 32 0 224 50 1 0 0;
#X restore 703 164 graph;
#X obj 170 264 metro 0.1 60 permin;
#X obj 260 196 / 4, f 4;
#X msg 459 305 \; seq0 const 0;
#X msg 459 234 \; seq1 0 3 0 0 0 0 0 0 0 3 0 0 0 3 0 0 0 0 0 0 0 3
0 0 0 0 3 3 0 3 0 0 0 \; seq2 0 0 0 0 3 3 0 0 0 0 0 3 0 0 0 0 0 3 3
3 0 0 0 3 0 3 0 0 3 0 0 3 3 \; seq3 0 3 3 3 0 3 3 3 0 3 3 0 3 3 0 3
3 3 0 0 3 3 3 3 0 3 0 3 0 3 3 0 3 \;, f 75;
#X connect 0 0 2 0;
#X connect 2 0 38 0;
#X connect 3 0 10 0;
#X connect 3 0 37 0;
#X connect 4 0 5 0;
#X connect 4 1 5 1;
#X connect 5 0 7 0;
#X connect 6 0 3 0;
#X connect 7 0 6 0;
#X connect 7 1 9 0;
#X connect 7 1 22 0;
#X connect 8 0 37 0;
#X connect 10 0 11 0;
#X connect 11 0 9 1;
#X connect 11 0 25 0;
#X connect 14 0 3 0;
#X connect 15 0 1 0;
#X connect 16 0 12 0;
#X connect 17 0 13 0;
#X connect 18 0 38 0;
#X connect 19 0 18 0;
#X connect 21 0 20 0;
#X connect 23 0 24 0;
#X connect 25 0 26 0;
#X connect 25 1 27 0;
#X connect 25 2 28 0;
#X connect 25 3 29 0;
#X connect 25 4 30 0;
#X connect 26 0 15 0;
#X connect 27 0 16 0;
#X connect 28 0 17 0;
#X connect 29 0 21 0;
#X connect 30 0 23 0;
#X connect 37 0 10 1;
#X connect 38 0 8 0;
#X connect 38 0 9 2;
