#N canvas 215 99 968 575 12;
#X obj 319 118 inlet tempo;
#X obj 105 155 tgl 15 0 empty empty empty 17 7 0 10 #fcfcfc #000000
#000000 0 1;
#X obj 105 31 notein 1;
#X obj 105 60 pack f f;
#X obj 105 118 sel 127;
#X obj 105 89 route 91, f 46;
#X msg 138 176 tempo \$1 permin;
#N canvas 425 212 788 507 sequencerLight 0;
#X obj 29 77 inlet midiNote;
#X obj 278 72 inlet sequencerStep;
#X obj 29 101 ../softKeySelector;
#X obj 29 291 ../LedOnOff;
#X obj 226 24 inlet tempo;
#X obj 226 48 expr 6000/$f1;
#X obj 90 232 outlet seqCode;
#N canvas 355 25 479 695 sequenceInterface 0;
#X obj 96 567 outlet noteOut;
#X obj 96 501 sequenceDisplay;
#X obj 308 557 outlet seqCode;
#X obj 96 11 inlet KeySelector;
#X obj 228 11 inlet restOfMidi;
#X obj 96 255 sel 0;
#X msg 20 400 64 0 \, 65 0 \, 66 0 \, 67 0 \, 68 0 \, 69 0 \, 70 0
\, 71 0, f 6;
#X obj 228 184 tgl 15 0 empty empty empty 17 7 0 10 #fcfcfc #000000
#000000 0 1;
#X obj 288 184 unpack;
#X obj 327 213 / 127;
#X obj 288 242 *, f 6;
#X obj 288 300 t b f;
#X obj 288 271 route 0;
#X listbox 191 438 8 0 0 0 - - - 0;
#X obj 191 339 pack f f f, f 11;
#X msg 96 439 symbol seq0;
#X msg 191 250 0;
#X obj 191 165 bng 15 250 50 0 empty empty empty 17 7 0 10 #fcfcfc
#000000 #000000;
#N canvas 97 25 1074 731 patternHandler 0;
#X obj 186 5 inlet;
#X obj 332 668 outlet;
#X obj 298 219 tabread currentSeq;
#X obj 186 668 outlet;
#X obj 186 523 pack f f, f 11;
#X msg 186 612 symbol seq\$1-\$2;
#X listbox 186 641 12 0 0 0 - - - 0;
#X obj 298 248 expr imodf($f1) \; imodf(($f1-imodf($f1))*10+0.01);
#X listbox 186 34 9 0 0 0 - - - 0;
#X obj 186 64 route 0;
#X obj 417 562 pack f f, f 11;
#X obj 417 533 + 63;
#X obj 491 533 + 63;
#X listbox 430 591 10 0 0 0 - - - 0;
#X msg 417 619 \$2 2 \, \$1 1;
#X obj 571 398 pack f f, f 13;
#X msg 571 455 \; currentSeq \$1 \$2;
#X listbox 581 427 9 0 0 0 - - - 0;
#X msg 332 484 64 0 \, 65 0 \, 66 0 \, 67 0 \, 68 0 \, 69 0 \, 70 0
\, 71 0, f 5;
#X obj 221 484 t b f, f 6;
#X obj 221 391 expr if($f1==0 \, $f2 \, $f1-63), f 16;
#X floatatom 227 434 5 0 0 0 - - - 0;
#X floatatom 417 505 5 0 0 0 - - - 0;
#X obj 186 93 unpack f f f, f 13;
#X obj 221 122 pack f f;
#X floatatom 491 505 5 0 0 0 - - - 0;
#X obj 298 351 t b f;
#X floatatom 625 233 5 0 0 0 - - - 0;
#X obj 627 311 expr $f2+($f1-63)/10;
#X obj 186 191 t f f, f 58;
#X obj 571 369 f;
#X obj 627 340 t b f;
#X obj 417 444 t f b b, f 8;
#X obj 417 668 outlet;
#X obj 221 155 route 0 127, f 116;
#X floatatom 677 340 5 0 0 0 - - - 0;
#X floatatom 350 304 5 0 0 0 - - - 0;
#X connect 0 0 8 0;
#X connect 2 0 7 0;
#X connect 4 0 5 0;
#X connect 4 0 33 0;
#X connect 5 0 6 0;
#X connect 6 0 3 0;
#X connect 7 0 22 0;
#X connect 7 0 26 0;
#X connect 7 0 28 1;
#X connect 7 0 36 0;
#X connect 7 1 25 0;
#X connect 8 0 9 0;
#X connect 9 1 23 0;
#X connect 10 0 14 0;
#X connect 10 0 13 0;
#X connect 11 0 10 0;
#X connect 12 0 10 1;
#X connect 14 0 1 0;
#X connect 15 0 16 0;
#X connect 15 0 17 0;
#X connect 18 0 1 0;
#X connect 19 0 4 0;
#X connect 19 1 4 1;
#X connect 20 0 19 0;
#X connect 20 0 32 0;
#X connect 20 0 21 0;
#X connect 22 0 11 0;
#X connect 23 0 2 0;
#X connect 23 0 29 0;
#X connect 23 1 24 0;
#X connect 23 2 24 1;
#X connect 24 0 34 0;
#X connect 25 0 12 0;
#X connect 26 0 20 0;
#X connect 26 1 20 1;
#X connect 27 0 28 0;
#X connect 28 0 31 0;
#X connect 28 0 35 0;
#X connect 29 0 4 0;
#X connect 29 1 30 1;
#X connect 30 0 15 0;
#X connect 31 0 30 0;
#X connect 31 1 15 1;
#X connect 32 0 22 0;
#X connect 32 1 25 0;
#X connect 32 2 18 0;
#X connect 34 0 20 0;
#X connect 34 1 27 0;
#X restore 191 472 pd patternHandler;
#X obj 228 68 unpack, f 9;
#X obj 228 126 pack f f, f 9;
#X obj 228 97 expr if($f1<63 \, 127 \, $f1);
#X obj 228 155 route 81 98 93 127;
#X msg 289 428 0 0 0;
#X obj 257 399 t b b;
#X obj 257 368 inlet reset;
#X text 12 593 This subpatch handles the messages to be sent to [ledOnOff]
to correctly display all patterns and selectors;
#X connect 1 0 0 0;
#X connect 3 0 14 0;
#X connect 3 0 17 0;
#X connect 3 0 5 0;
#X connect 4 0 19 0;
#X connect 5 0 6 0;
#X connect 5 0 15 0;
#X connect 6 0 0 0;
#X connect 7 0 14 1;
#X connect 8 0 10 0;
#X connect 8 1 9 0;
#X connect 9 0 10 1;
#X connect 10 0 12 0;
#X connect 11 0 14 0;
#X connect 11 1 14 2;
#X connect 12 1 11 0;
#X connect 13 0 18 0;
#X connect 14 0 13 0;
#X connect 15 0 1 0;
#X connect 16 0 14 2;
#X connect 17 0 16 0;
#X connect 18 0 1 0;
#X connect 18 1 0 0;
#X connect 18 2 2 0;
#X connect 19 0 21 0;
#X connect 19 1 20 1;
#X connect 20 0 22 0;
#X connect 21 0 20 0;
#X connect 22 0 7 0;
#X connect 22 4 8 0;
#X connect 23 0 18 0;
#X connect 24 0 13 0;
#X connect 24 1 23 0;
#X connect 25 0 24 0;
#X restore 29 203 pd sequenceInterface;
#N canvas 164 201 422 274 InstSelector 0;
#X obj 31 196 outlet;
#X obj 31 13 inlet;
#X obj 31 110 f;
#X obj 98 110 f;
#X obj 31 71 t b f b, f 10;
#X floatatom 61 139 5 0 0 0 - - - 0;
#X floatatom 128 139 5 0 0 0 - - - 0;
#X floatatom 81 42 5 0 0 0 - - - 0;
#X msg 31 167 \$1 1;
#X msg 99 167 \$1 0;
#X obj 31 42 + 81;
#X text 164 23 If one of the instruments is selected this patch tunrs
ON the relative LED and turns OFF the instrument previously selected.
, f 35;
#X connect 1 0 7 0;
#X connect 1 0 10 0;
#X connect 2 0 3 1;
#X connect 2 0 5 0;
#X connect 2 0 8 0;
#X connect 3 0 6 0;
#X connect 3 0 9 0;
#X connect 4 0 2 0;
#X connect 4 1 2 1;
#X connect 4 2 3 0;
#X connect 8 0 0 0;
#X connect 9 0 0 0;
#X connect 10 0 4 0;
#X restore 397 232 pd InstSelector;
#X obj 166 101 sel 31;
#X obj 166 125 del, f 9;
#X obj 226 72 * 0.8;
#X text 27 395 There are a couple of frequently used formulas. The
formula [ $f1+8*(4-2*imodf($f1/8)) ]takes in input the MIDI note from
the button matrix and outputs the relative step for the sequencer.
The one [ 32-(imodf($f1/8)-modf($f1/8))*8 ] is the inverse \, from
a value in the sequence it outputs the relative MIDI note., f 59;
#X text 27 355 This subpatch controls the user interface by turning
on and off the various LED in the APCkey25;
#N canvas 339 89 605 539 stepIndicator_V3 0;
#X obj 260 28 inlet step;
#X obj 59 421 outlet toLed;
#X obj 59 177 expr 32-(imodf($f1/8)-modf($f1/8))*8;
#X obj 364 28 inlet keySelector;
#X obj 457 81 inlet seq;
#X obj 364 243 tabread;
#X msg 457 110 set seq\$1-\$2;
#X msg 364 110 set seq0;
#X obj 364 52 sel 0;
#X obj 59 255 f, f 5;
#X obj 126 284 f;
#X floatatom 69 313 5 0 0 0 - - - 0;
#X floatatom 136 313 5 0 0 0 - - - 0;
#X msg 59 351 \$1 5;
#X obj 126 352 pack f f;
#X obj 427 289 tgl 15 0 empty empty empty 17 7 0 10 #fcfcfc #000000
#000000 0 1;
#X obj 427 309 == 0;
#X obj 427 209 notein 1, f 18;
#X obj 427 233 expr $f1*($f2/127);
#X obj 427 257 sel 91;
#X obj 374 81 loadbang;
#X listbox 457 149 8 0 0 0 - - - 0;
#X floatatom 364 272 4 0 0 0 - - - 0;
#X floatatom 322 335 5 0 0 0 - - - 0;
#X obj 297 392 pack, f 10;
#X obj 297 363 f, f 4;
#X obj 427 333 sel 1;
#X text 70 81 The step indicator light is managed here., f 25;
#X obj 295 138 t f f;
#X obj 59 226 t b f b, f 10;
#X obj 374 174 f;
#X obj 374 149 bng 15 250 50 0 empty empty empty 17 7 0 10 #fcfcfc
#000000 #000000;
#X connect 0 0 28 0;
#X connect 2 0 29 0;
#X connect 2 0 23 0;
#X connect 3 0 8 0;
#X connect 4 0 6 0;
#X connect 5 0 22 0;
#X connect 6 0 21 0;
#X connect 6 0 5 0;
#X connect 6 0 31 0;
#X connect 7 0 21 0;
#X connect 7 0 5 0;
#X connect 7 0 31 0;
#X connect 8 0 7 0;
#X connect 9 0 10 1;
#X connect 9 0 11 0;
#X connect 9 0 13 0;
#X connect 10 0 12 0;
#X connect 10 0 14 0;
#X connect 13 0 1 0;
#X connect 14 0 1 0;
#X connect 15 0 16 0;
#X connect 16 0 26 0;
#X connect 17 0 18 0;
#X connect 17 1 18 1;
#X connect 18 0 19 0;
#X connect 19 0 15 0;
#X connect 20 0 7 0;
#X connect 22 0 24 1;
#X connect 22 0 14 1;
#X connect 23 0 25 1;
#X connect 24 0 1 0;
#X connect 25 0 24 0;
#X connect 26 0 25 0;
#X connect 28 0 5 0;
#X connect 28 1 2 0;
#X connect 28 1 30 1;
#X connect 29 0 9 0;
#X connect 29 1 9 1;
#X connect 29 2 10 0;
#X connect 30 0 5 0;
#X connect 31 0 30 0;
#X restore 213 232 pd stepIndicator_V3;
#X obj 29 154 t f f f, f 53;
#X connect 0 0 2 0;
#X connect 1 0 9 0;
#X connect 1 0 14 0;
#X connect 2 0 15 0;
#X connect 2 1 7 1;
#X connect 4 0 5 0;
#X connect 5 0 11 0;
#X connect 7 0 3 0;
#X connect 7 1 6 0;
#X connect 7 1 14 2;
#X connect 8 0 3 0;
#X connect 9 0 10 0;
#X connect 10 0 7 2;
#X connect 11 0 10 1;
#X connect 14 0 3 0;
#X connect 15 0 7 0;
#X connect 15 1 14 1;
#X connect 15 2 8 0;
#X restore 203 342 pd sequencerLight;
#N canvas 341 122 639 475 counter 0;
#X obj 157 367 outlet;
#X obj 13 79 inlet OnOff;
#X obj 104 79 inlet metro;
#X obj 195 38 == 0;
#X obj 234 145 < 63;
#X obj 195 9 inlet softKey;
#X obj 104 184 f;
#X obj 139 184 + 1;
#X msg 122 137 0;
#X obj 13 167 sel 31;
#X obj 13 108 route 0;
#N canvas 261 197 450 300 start 0;
#X obj 108 88 loadbang;
#X obj 108 123 t b b b, f 14;
#X msg 203 157 1;
#X obj 155 161 bng 15 250 50 0 empty empty empty 17 7 0 10 #fcfcfc
#000000 #000000;
#X msg 108 158 0;
#X obj 108 202 outlet;
#X obj 182 202 outlet;
#X connect 0 0 1 0;
#X connect 1 0 4 0;
#X connect 1 1 3 0;
#X connect 1 2 2 0;
#X connect 2 0 5 0;
#X connect 3 0 6 0;
#X connect 4 0 5 0;
#X restore 265 38 pd start;
#X f 13;
#X obj 104 341 route -1;
#X obj 195 254 / 127;
#X obj 104 312 expr if($f1%$f2==0 \, $f1 \, -1);
#X obj 195 283 * 5;
#X obj 242 283 int;
#X msg 353 67 0;
#X obj 195 67 t f f, f 6;
#X obj 297 283 + 1;
#X obj 234 96 ../inst/ctrl 53;
#X obj 195 196 ../inst/ctrl 52, f 23;
#X text 202 214 Master FX Jump step, f 14;
#X text 262 114 Master FX Repeat step, f 11;
#X text 16 396 Here we find the counter for steps and also the effects
based on the step number., f 43;
#X connect 1 0 10 0;
#X connect 2 0 6 0;
#X connect 3 0 18 0;
#X connect 4 0 7 1;
#X connect 5 0 3 0;
#X connect 6 0 7 0;
#X connect 6 0 9 0;
#X connect 6 0 14 0;
#X connect 7 0 6 1;
#X connect 8 0 6 1;
#X connect 9 0 8 0;
#X connect 10 0 8 0;
#X connect 11 0 18 0;
#X connect 11 1 17 0;
#X connect 12 1 0 0;
#X connect 13 0 15 0;
#X connect 14 0 12 0;
#X connect 15 0 16 0;
#X connect 16 0 19 0;
#X connect 17 0 20 1;
#X connect 17 0 21 1;
#X connect 18 0 21 0;
#X connect 18 1 20 0;
#X connect 19 0 14 1;
#X connect 20 0 4 0;
#X connect 21 0 13 0;
#X restore 105 263 pd counter;
#X obj 14 31 inlet start;
#N canvas 93 60 1053 653 seqNoteIn 0;
#X obj 379 36 ../softKeySelector, f 19;
#X obj 22 480 sequenceDisplay;
#X obj 471 593 ../LedOnOff;
#X obj 176 7 ctlin, f 6;
#X obj 379 7 inlet noteIn;
#X obj 232 7 inlet selectedSeq;
#X listbox 315 26 6 0 0 0 - - - 0;
#X msg 22 451 symbol seq0;
#X msg 76 408 \; seq\$1-\$2 const 0;
#X obj 76 322 f;
#X obj 131 322 f;
#X obj 76 351 pack, f 8;
#X listbox 96 380 5 0 0 0 - - - 0;
#X obj 836 406 tabread;
#X msg 698 345 set seq\$1-\$2;
#X obj 836 435 expr if($f1==3 \, 0 \, 3);
#X obj 836 474 tabwrite, f 22;
#X floatatom 846 344 5 0 0 0 - - - 0;
#X obj 836 315 expr $f1+8*(4-2*imodf($f1/8));
#X obj 836 377 t f f, f 22;
#X obj 379 235 route 5, f 8;
#X listbox 736 503 6 0 0 0 - - - 0;
#X obj 726 484 pack f 0;
#X obj 790 286 route 0;
#X obj 509 65 route 0 1 2 3 4 5 6 7 64 65 66 67 68 69 70 71 81 98,
f 53;
#X obj 149 175 pack f f f, f 12;
#X obj 149 56 / 127;
#X obj 149 85 *, f 7;
#X obj 169 146 unpack;
#X obj 149 117 t b f, f 10;
#X listbox 149 204 13 0 0 0 - - - 0;
#X obj 95 232 unpack f f f, f 16;
#X obj 22 261 sel 64;
#X obj 22 290 t b b b, f 16;
#X obj 284 264 notein 2, f 9;
#X obj 284 293 / 1000;
#X obj 284 322 + 3, f 6;
#X floatatom 284 351 5 0 0 0 - - - 0;
#X obj 379 475 tabwrite, f 10;
#X obj 481 322 expr $f1+8*(4-2*imodf($f1/8));
#X obj 471 475 pack f 0;
#X obj 425 293 route 0;
#X obj 344 322 > 0;
#X obj 284 379 *, f 5;
#X msg 379 322 set seq5-\$1;
#X obj 393 426 f, f 5;
#X obj 393 387 t b f, f 8;
#X listbox 481 494 9 0 0 0 - - - 0;
#X obj 379 206 route 5 0, f 53;
#X obj 379 264 unpack, f 7;
#X obj 698 292 pack, f 7;
#X listbox 765 231 9 0 0 0 - - - 0;
#X obj 653 257 unpack f f f f, f 20;
#X text 11 5 Reset current sequence pressing SUSTAIN, f 12;
#X text 20 616 This subpatch handles user input on the sequencer and
saves it in the relevant array, f 98;
#X obj 410 98 unpack f f, f 13;
#X obj 526 98 unpack f f, f 18;
#X obj 526 124 expr $f1*($f2/127);
#X obj 379 177 pack f f f f, f 26;
#X obj 526 148 t b f;
#X obj 406 122 t b f;
#X connect 0 0 58 0;
#X connect 0 1 24 0;
#X connect 1 0 2 0;
#X connect 3 0 26 0;
#X connect 3 1 27 1;
#X connect 4 0 0 0;
#X connect 5 0 6 0;
#X connect 5 0 28 0;
#X connect 5 0 55 0;
#X connect 7 0 1 0;
#X connect 9 0 11 0;
#X connect 10 0 11 1;
#X connect 11 0 12 0;
#X connect 11 0 8 0;
#X connect 13 0 15 0;
#X connect 14 0 13 0;
#X connect 14 0 16 0;
#X connect 15 0 16 0;
#X connect 15 0 22 1;
#X connect 18 0 17 0;
#X connect 18 0 19 0;
#X connect 19 0 13 0;
#X connect 19 1 16 1;
#X connect 20 0 49 0;
#X connect 22 0 21 0;
#X connect 22 0 2 0;
#X connect 23 1 18 0;
#X connect 23 1 22 0;
#X connect 24 18 56 0;
#X connect 25 0 30 0;
#X connect 25 0 31 0;
#X connect 26 0 27 0;
#X connect 27 0 29 0;
#X connect 28 0 25 0;
#X connect 28 1 25 1;
#X connect 29 0 25 0;
#X connect 29 1 25 2;
#X connect 31 0 9 1;
#X connect 31 1 10 1;
#X connect 31 2 32 0;
#X connect 32 0 33 0;
#X connect 33 0 7 0;
#X connect 33 1 9 0;
#X connect 33 2 10 0;
#X connect 34 0 35 0;
#X connect 34 1 42 0;
#X connect 35 0 36 0;
#X connect 36 0 37 0;
#X connect 37 0 43 0;
#X connect 39 0 46 0;
#X connect 40 0 47 0;
#X connect 40 0 2 0;
#X connect 41 1 39 0;
#X connect 41 1 40 0;
#X connect 42 0 43 1;
#X connect 43 0 45 1;
#X connect 44 0 38 0;
#X connect 45 0 38 0;
#X connect 45 0 40 1;
#X connect 46 0 45 0;
#X connect 46 1 38 1;
#X connect 48 0 20 0;
#X connect 48 2 51 0;
#X connect 48 2 52 0;
#X connect 49 0 44 0;
#X connect 49 1 41 0;
#X connect 50 0 14 0;
#X connect 52 1 50 0;
#X connect 52 2 50 1;
#X connect 52 3 23 0;
#X connect 55 0 60 0;
#X connect 55 1 58 2;
#X connect 56 0 57 0;
#X connect 56 1 57 1;
#X connect 57 0 59 0;
#X connect 58 0 48 0;
#X connect 59 0 58 0;
#X connect 59 1 58 3;
#X connect 60 0 58 0;
#X connect 60 1 58 1;
#X restore 203 371 pd seqNoteIn;
#X f 32;
#N canvas 0 22 450 278 (subpatch) 0;
#X array seq0 32 float 3;
#A 0 0 0 0 0 0 0 0 0 0 0 0 0 0 0 0 0 0 0 0 0 0 0 0 0 0 0 0 0 0 0 0
0;
#X coords 0 1 32 0 224 50 1 0 0;
#X restore 449 23 graph;
#X obj 105 371 outlet;
#X msg 449 84 \; seq0 const 0;
#N canvas 55 36 1112 736 allSequences 0;
#N canvas 0 22 450 278 (subpatch) 0;
#X array seq1-1 32 float 3;
#A 0 3 0 0 0 0 0 0 0 3 0 0 0 0 0 0 0 3 0 0 0 0 0 0 0 3 0 0 0 0 0 0
0;
#X coords 0 5 32 0 224 50 1 0 0;
#X restore 27 74 graph;
#N canvas 0 22 450 278 (subpatch) 0;
#X array seq2-1 32 float 3;
#A 0 0 0 0 0 3 0 0 0 0 0 0 0 3 0 0 0 0 0 0 0 3 0 0 0 0 0 0 0 3 3 3
3;
#X coords 0 5 32 0 224 50 1 0 0;
#X restore 27 207 graph;
#N canvas 0 22 450 278 (subpatch) 0;
#X array seq3-1 32 float 3;
#A 0 0 0 3 0 0 3 3 3 0 0 3 0 0 3 3 3 0 0 3 0 0 3 3 3 0 0 3 0 0 0 0
0;
#X coords 0 5 32 0 224 50 1 0 0;
#X restore 27 341 graph;
#N canvas 0 22 450 278 (subpatch) 0;
#X array seq4-1 32 float 3;
#A 0 0 0 0 0 0 0 0 0 0 0 0 0 0 0 0 0 0 0 0 0 0 0 0 0 0 0 0 0 0 0 3
0;
#X coords 0 5 32 0 224 50 1 0 0;
#X restore 27 473 graph;
#N canvas 0 22 450 278 (subpatch) 0;
#X array seq5-1 32 float 3;
#A 0 3.041 0 3.044 0 3.049 0 3.048 0 3.041 0 3.046 0 3.049 0 3.056
0 3.041 0 3.044 0 3.049 0 3.048 0 3.041 0 3.046 0 3.049 0 3.051 0;
#X coords 0 4 32 0 224 50 1 0 0;
#X restore 27 605 graph;
#N canvas 0 22 450 278 (subpatch) 0;
#X array seq1-2 32 float 3;
#A 0 3 0 0 0 0 0 0 0 3 0 0 0 0 0 0 0 3 0 0 0 0 0 0 0 3 0 0 3 3 3 3
3;
#X coords 0 5 32 0 224 50 1 0 0;
#X restore 261 74 graph;
#N canvas 0 22 450 278 (subpatch) 0;
#X array seq2-2 32 float 3;
#A 0 0 0 0 0 3 0 0 0 0 0 0 0 3 0 0 0 0 0 0 0 3 0 0 0 0 0 0 0 3 0 0
0;
#X coords 0 5 32 0 224 50 1 0 0;
#X restore 261 207 graph;
#N canvas 0 22 450 278 (subpatch) 0;
#X array seq3-2 32 float 3;
#A 0 3 3 3 0 0 0 0 0 3 3 3 0 0 0 0 0 3 3 3 0 0 0 0 0 3 3 3 0 0 0 0
0;
#X coords 0 5 32 0 224 50 1 0 0;
#X restore 261 341 graph;
#N canvas 0 22 450 278 (subpatch) 0;
#X array seq4-2 32 float 3;
#A 0 0 0 0 3 0 0 0 0 0 3 0 0 0 0 0 0 0 3 0 0 0 0 0 0 0 3 0 0 0 0 0
0;
#X coords 0 5 32 0 224 50 1 0 0;
#X restore 261 473 graph;
#N canvas 0 22 450 278 (subpatch) 0;
#X array seq5-2 32 float 3;
#A 0 0 0 0 0 0 0 0 0 0 0 0 0 0 0 0 0 0 0 0 0 0 0 0 0 0 0 0 0 0 0 0
0;
#X coords 0 4 32 0 224 50 1 0 0;
#X restore 261 605 graph;
#N canvas 0 22 450 278 (subpatch) 0;
#X array seq1-3 32 float 3;
#A 0 3 0 0 0 0 0 0 0 0 0 3 0 0 0 0 0 0 0 3 0 0 0 0 0 0 0 3 0 0 0 0
0;
#X coords 0 5 32 0 224 50 1 0 0;
#X restore 495 74 graph;
#N canvas 0 22 450 278 (subpatch) 0;
#X array seq2-3 32 float 3;
#A 0 0 3 0 0 0 0 0 0 0 0 3 0 0 0 0 0 0 0 3 0 0 0 0 0 0 0 3 0 0 0 0
0;
#X coords 0 5 32 0 224 50 1 0 0;
#X restore 495 207 graph;
#N canvas 0 22 450 278 (subpatch) 0;
#X array seq3-3 32 float 3;
#A 0 3 3 3 3 3 3 3 3 3 3 3 3 3 3 3 3 3 3 3 3 3 3 3 3 3 3 3 3 3 3 3
3;
#X coords 0 5 32 0 224 50 1 0 0;
#X restore 495 341 graph;
#N canvas 0 22 450 278 (subpatch) 0;
#X array seq4-3 32 float 3;
#A 0 0 0 0 3 0 0 0 0 0 0 3 0 0 0 0 0 0 0 3 0 0 0 0 0 0 0 3 0 0 0 0
0;
#X coords 0 5 32 0 224 50 1 0 0;
#X restore 495 473 graph;
#N canvas 0 22 450 278 (subpatch) 0;
#X array seq5-3 32 float 3;
#A 0 3.041 0 0 3.041 3.041 0 0 0 3.041 0 0 3.041 0 0 0 0 3.041 3.053
0 3.041 0 0 3.053 0 3.041 0 3.053 3.041 0 0 0 0;
#X coords 0 4 32 0 224 50 1 0 0;
#X restore 495 605 graph;
#N canvas 0 22 450 278 (subpatch) 0;
#X array seq1-4 32 float 3;
#A 0 3 0 0 0 0 0 0 0 0 0 0 3 0 0 0 0 0 0 0 3 0 0 0 0 0 0 0 3 0 0 0
0;
#X coords 0 5 32 0 224 50 1 0 0;
#X restore 729 74 graph;
#N canvas 0 22 450 278 (subpatch) 0;
#X array seq2-4 32 float 3;
#A 0 0 0 0 0 3 0 0 0 0 0 0 0 3 0 0 0 0 0 0 0 3 0 0 0 0 0 0 0 3 0 0
0;
#X coords 0 5 32 0 224 50 1 0 0;
#X restore 729 207 graph;
#N canvas 0 22 450 278 (subpatch) 0;
#X array seq3-4 32 float 3;
#A 0 3 0 0 0 0 0 0 0 3 0 0 0 0 0 0 0 3 0 0 0 0 0 0 0 3 0 0 0 0 0 0
0;
#X coords 0 5 32 0 224 50 1 0 0;
#X restore 729 341 graph;
#N canvas 0 22 450 278 (subpatch) 0;
#X array seq4-4 32 float 3;
#A 0 0 0 0 3 0 0 0 0 0 0 0 3 0 0 0 0 0 0 0 3 0 0 0 0 0 0 0 3 0 0 0
0;
#X coords 0 5 32 0 224 50 1 0 0;
#X restore 729 473 graph;
#N canvas 0 22 450 278 (subpatch) 0;
#X array seq5-4 32 float 3;
#A 0 3.036 3.038 3.04 3.041 3.043 3.045 3.047 3.048 3.036 3.038 3.04
3.041 3.043 3.045 3.047 3.048 3.036 3.038 3.04 3.041 3.043 3.045 3.047
3.048 3.036 3.038 3.04 3.041 3.043 3.045 3.047 3.048;
#X coords 0 4 32 0 224 50 1 0 0;
#X restore 729 605 graph;
#N canvas 0 22 450 278 (subpatch) 0;
#X array seq1-5 32 float 3;
#A 0 3 0 0 0 0 0 0 0 0 0 0 0 3 0 0 0 0 0 0 0 3 0 0 0 0 0 0 0 3 0 0
0;
#X coords 0 5 32 0 224 50 1 0 0;
#X restore 27 140 graph;
#N canvas 0 22 450 278 (subpatch) 0;
#X array seq2-5 32 float 3;
#A 0 0 3 0 0 0 0 0 0 0 0 0 0 3 0 0 0 0 0 0 0 3 0 0 0 0 0 0 0 3 0 0
0;
#X coords 0 5 32 0 224 50 1 0 0;
#X restore 27 274 graph;
#N canvas 0 22 450 278 (subpatch) 0;
#X array seq3-5 32 float 3;
#A 0 0 0 3 0 3 0 3 0 0 0 3 0 3 3 3 0 0 3 3 0 3 0 3 0 0 0 3 0 3 3 3
0;
#X coords 0 5 32 0 224 50 1 0 0;
#X restore 27 407 graph;
#N canvas 0 22 450 278 (subpatch) 0;
#X array seq4-5 32 float 3;
#A 0 0 0 0 3 0 0 0 0 0 0 0 0 3 0 0 0 0 0 0 0 3 0 0 0 0 0 0 0 3 0 0
0;
#X coords 0 5 32 0 224 50 1 0 0;
#X restore 27 539 graph;
#N canvas 0 22 450 278 (subpatch) 0;
#X array seq5-5 32 float 3;
#A 0 0 0 0 0 0 0 0 0 0 0 0 0 0 0 0 0 0 0 0 0 0 0 0 0 0 0 0 0 0 0 0
0;
#X coords 0 4 32 0 224 50 1 0 0;
#X restore 27 671 graph;
#N canvas 0 22 450 278 (subpatch) 0;
#X array seq1-6 32 float 3;
#A 0 3 0 0 0 0 0 0 0 0 0 0 0 0 3 0 0 0 0 0 0 0 3 0 0 0 0 0 0 0 3 0
0;
#X coords 0 5 32 0 224 50 1 0 0;
#X restore 261 140 graph;
#N canvas 0 22 450 278 (subpatch) 0;
#X array seq2-6 32 float 3;
#A 0 0 3 0 0 0 0 0 0 0 0 0 0 0 3 0 0 0 0 0 0 0 3 0 0 0 0 0 0 0 3 0
0;
#X coords 0 5 32 0 224 50 1 0 0;
#X restore 261 274 graph;
#N canvas 0 22 450 278 (subpatch) 0;
#X array seq3-6 32 float 3;
#A 0 3 0 0 0 0 0 0 0 3 0 0 0 3 3 3 0 3 0 0 0 3 3 3 0 3 0 0 0 0 0 0
0;
#X coords 0 5 32 0 224 50 1 0 0;
#X restore 261 407 graph;
#N canvas 0 22 450 278 (subpatch) 0;
#X array seq4-6 32 float 3;
#A 0 0 0 0 3 0 0 0 0 0 0 0 0 0 3 0 0 0 0 0 0 0 3 0 0 0 0 0 0 0 3 0
0;
#X coords 0 5 32 0 224 50 1 0 0;
#X restore 261 539 graph;
#N canvas 0 22 450 278 (subpatch) 0;
#X array seq5-6 32 float 3;
#A 0 0 0 0 0 0 0 0 0 0 0 0 0 0 0 0 0 0 0 0 0 0 0 0 0 0 0 0 0 0 0 0
0;
#X coords 0 4 32 0 224 50 1 0 0;
#X restore 261 671 graph;
#N canvas 0 22 450 278 (subpatch) 0;
#X array seq1-7 32 float 3;
#A 0 3 0 0 0 0 0 0 0 0 0 0 0 0 0 3 0 0 0 0 0 0 0 3 0 0 0 0 0 0 0 3
0;
#X coords 0 5 32 0 224 50 1 0 0;
#X restore 495 140 graph;
#N canvas 0 22 450 278 (subpatch) 0;
#X array seq2-7 32 float 3;
#A 0 0 0 0 0 3 0 0 0 0 0 0 0 0 0 3 0 0 3 0 0 3 0 3 0 0 0 0 0 0 0 3
0;
#X coords 0 5 32 0 224 50 1 0 0;
#X restore 495 274 graph;
#N canvas 0 22 450 278 (subpatch) 0;
#X array seq3-7 32 float 3;
#A 0 0 0 3 0 0 0 0 0 0 0 0 0 0 0 3 0 0 0 0 0 0 0 3 0 0 0 0 0 0 0 3
0;
#X coords 0 5 32 0 224 50 1 0 0;
#X restore 495 407 graph;
#N canvas 0 22 450 278 (subpatch) 0;
#X array seq4-7 32 float 3;
#A 0 0 0 0 3 0 0 0 0 0 0 0 0 0 0 3 0 0 0 0 0 0 0 3 0 0 0 0 0 0 0 3
0;
#X coords 0 5 32 0 224 50 1 0 0;
#X restore 495 539 graph;
#N canvas 0 22 450 278 (subpatch) 0;
#X array seq5-7 32 float 3;
#A 0 0 0 0 0 0 0 0 0 0 0 0 0 0 0 0 0 0 0 0 0 0 0 0 0 0 0 0 0 0 0 0
0;
#X coords 0 4 32 0 224 50 1 0 0;
#X restore 495 671 graph;
#N canvas 0 22 450 278 (subpatch) 0;
#X array seq1-8 32 float 3;
#A 0 3 0 3 0 0 3 0 0 3 0 0 3 0 0 3 0 3 0 3 0 3 0 0 3 3 0 3 0 0 0 3
0;
#X coords 0 5 32 0 224 50 1 0 0;
#X restore 729 140 graph;
#N canvas 0 22 450 278 (subpatch) 0;
#X array seq2-8 32 float 3;
#A 0 0 3 0 0 0 0 0 3 0 0 0 0 0 0 0 3 0 0 0 0 0 0 0 3 0 0 0 0 0 0 0
3;
#X coords 0 5 32 0 224 50 1 0 0;
#X restore 729 274 graph;
#N canvas 0 22 450 278 (subpatch) 0;
#X array seq3-8 32 float 3;
#A 0 0 0 3 0 0 0 0 0 0 0 0 0 0 0 0 3 0 0 0 0 0 0 0 3 0 0 0 0 0 0 0
3;
#X coords 0 5 32 0 224 50 1 0 0;
#X restore 729 407 graph;
#N canvas 0 22 450 278 (subpatch) 0;
#X array seq4-8 32 float 3;
#A 0 0 0 0 3 0 0 0 0 0 0 0 0 0 0 0 3 0 0 0 0 0 0 0 3 0 0 0 0 0 0 0
3;
#X coords 0 5 32 0 224 50 1 0 0;
#X restore 729 539 graph;
#N canvas 0 22 450 278 (subpatch) 0;
#X array seq5-8 32 float 3;
#A 0 0 0 0 0 0 0 0 0 0 0 0 0 0 0 0 0 0 0 0 0 0 0 0 0 0 0 0 0 0 0 0
0;
#X coords 0 4 32 0 224 50 1 0 0;
#X restore 729 671 graph;
#X text 25 16 As the name suggests \, all patterns are saved here.
;
#X restore 449 127 pd allSequences;
#X floatatom 325 304 5 0 0 0 - - - 0;
#X obj 319 147 / 2, f 4;
#X obj 138 205 metro 0.1 120 permin;
#N canvas 0 22 450 278 (subpatch) 0;
#X array currentSeq 6 float 3;
#A 0 0 1 1 1 1 4;
#X coords 0 9 6 0 50 80 1 0 0;
#X restore 449 238 graph;
#X floatatom 272 147 5 0 0 0 - - - 0;
#N canvas 212 52 789 467 seqTrigger 0;
#X obj 135 239 sel 3;
#X obj 241 239 sel 3;
#X obj 347 239 sel 3;
#X obj 453 239 sel 3;
#X obj 347 331 outlet;
#X msg 135 268 1;
#X msg 241 268 2;
#X msg 347 268 3;
#X msg 453 268 4;
#X obj 559 239 sel 0;
#X msg 146 171 set seq1-\$1;
#X msg 253 171 set seq2-\$1;
#X msg 360 171 set seq3-\$1;
#X msg 467 171 set seq4-\$1;
#X msg 574 171 set seq5-\$1;
#X obj 146 142 route 1 2 3 4 5, f 77;
#X obj 135 210 tabread seq1-1;
#X obj 241 210 tabread seq2-1;
#X obj 347 210 tabread seq3-1;
#X obj 453 210 tabread seq4-1;
#X obj 559 210 tabread seq5-1;
#X obj 30 47 inlet counter;
#X obj 559 268 expr imodf(($f1-3)*1000+0.5);
#N canvas 252 48 560 635 Pattern 0;
#X obj 189 16 inlet;
#X obj 236 45 sel 31, f 7;
#X obj 236 183 array get, f 12;
#X obj 203 241 until;
#X obj 216 328 list store;
#X obj 236 212 t b b l;
#X obj 203 270 f;
#X obj 241 270 + 1;
#X msg 259 241 0, f 2;
#X msg 203 299 get \$1 1;
#X msg 276 154 -1;
#X msg 236 154 0;
#X msg 236 95 symbol currentSeq;
#X obj 236 125 t b b s, f 12;
#X obj 236 74 bng 15 250 50 0 empty empty empty 17 7 0 10 #fcfcfc #000000
#000000;
#X obj 191 446 outlet;
#X obj 145 328 route 6;
#X obj 15 415 tabwrite currentSeq;
#X obj 145 357 + 1;
#X obj 191 415 pack;
#X obj 216 386 int;
#X obj 216 357 expr if(modf($f1) == 0 \, $f1 \, modf($f1)*10+0.1);
#X text 15 477 The sequence to be read is stored in the 'currentSeq'
array. The first digit represents the pattern to be played \, the digit
after the decimal point is the eventual pattern to be played when the
sequence starts again., f 62;
#X connect 0 0 1 0;
#X connect 1 0 14 0;
#X connect 2 0 5 0;
#X connect 3 0 6 0;
#X connect 4 0 21 0;
#X connect 4 1 3 1;
#X connect 5 0 3 0;
#X connect 5 1 8 0;
#X connect 5 2 4 1;
#X connect 6 0 7 0;
#X connect 6 0 9 0;
#X connect 6 0 16 0;
#X connect 7 0 6 1;
#X connect 8 0 6 1;
#X connect 9 0 4 0;
#X connect 10 0 2 1;
#X connect 11 0 2 0;
#X connect 12 0 13 0;
#X connect 13 0 11 0;
#X connect 13 1 10 0;
#X connect 13 2 2 2;
#X connect 14 0 12 0;
#X connect 16 1 18 0;
#X connect 16 1 19 0;
#X connect 18 0 17 1;
#X connect 19 0 15 0;
#X connect 20 0 17 0;
#X connect 20 0 19 1;
#X connect 21 0 20 0;
#X restore 30 113 pd Pattern;
#X obj 30 71 t f f f f f f, f 76;
#X obj 559 292 expr if($f1<4 \, 5 \, $f1);
#X text 28 368 By sending the numbers 1 to 4 we play kick \, snare
\, hit hat and ride respectively. For the bass \, numbers 5 to 127
are used and they represent the MIDI notes it will be played., f 82
;
#X connect 0 0 5 0;
#X connect 1 0 6 0;
#X connect 2 0 7 0;
#X connect 3 0 8 0;
#X connect 5 0 4 0;
#X connect 6 0 4 0;
#X connect 7 0 4 0;
#X connect 8 0 4 0;
#X connect 9 1 22 0;
#X connect 10 0 16 0;
#X connect 11 0 17 0;
#X connect 12 0 18 0;
#X connect 13 0 19 0;
#X connect 14 0 20 0;
#X connect 15 0 10 0;
#X connect 15 1 11 0;
#X connect 15 2 12 0;
#X connect 15 3 13 0;
#X connect 15 4 14 0;
#X connect 16 0 0 0;
#X connect 17 0 1 0;
#X connect 18 0 2 0;
#X connect 19 0 3 0;
#X connect 20 0 9 0;
#X connect 21 0 24 0;
#X connect 22 0 25 0;
#X connect 23 0 15 0;
#X connect 24 0 23 0;
#X connect 24 1 16 0;
#X connect 24 2 17 0;
#X connect 24 3 18 0;
#X connect 24 4 19 0;
#X connect 24 5 20 0;
#X connect 25 0 4 0;
#X restore 105 342 pd seqTrigger;
#X msg 449 185 \; currentSeq 0 0 1 1 1 1 1;
#X obj 449 156 loadbang;
#X obj 336 342 outlet step;
#X obj 172 235 inlet softKey;
#X text 52 409 This sub-patch is the heart of the project \, from here
all trig signals for the instruments are sent \, user input is interpreted
and the graphical user interface is managed.;
#X text 179 72 91 is the MIDI note for START/STOP;
#X connect 0 0 16 0;
#X connect 0 0 19 0;
#X connect 1 0 8 0;
#X connect 1 0 17 0;
#X connect 2 0 3 0;
#X connect 2 1 3 1;
#X connect 3 0 5 0;
#X connect 4 0 1 0;
#X connect 5 0 4 0;
#X connect 5 1 7 0;
#X connect 5 1 10 1;
#X connect 6 0 17 0;
#X connect 7 0 10 0;
#X connect 8 0 15 0;
#X connect 8 0 20 0;
#X connect 9 0 1 0;
#X connect 15 0 7 2;
#X connect 15 0 23 0;
#X connect 16 0 6 0;
#X connect 16 0 7 1;
#X connect 17 0 8 1;
#X connect 20 0 12 0;
#X connect 22 0 21 0;
#X connect 24 0 8 2;
