#N canvas 270 25 879 620 12;
#X obj 198 36 inlet;
#X obj 338 130 array get;
#X obj 305 189 until;
#X obj 318 272 list store;
#X obj 338 156 t b b l;
#X obj 305 214 f;
#X obj 343 215 + 1;
#X msg 361 189 0, f 2;
#X msg 305 245 get \$1 1;
#X msg 264 98 -1;
#X obj 218 420 expr $f1 + 8*(4 - 2 * imodf($f1/8));
#X obj 297 477 pack f f;
#X obj 297 537 outlet;
#X floatatom 218 446 5 0 0 0 - - - 0;
#X msg 198 108 0;
#X obj 274 173 bng 15 250 50 0 empty empty empty 17 7 0 10 #fcfcfc
#000000 #000000;
#X obj 242 355 f, f 5;
#X msg 274 304 0;
#X obj 301 355 + 1;
#X msg 74 33 symbol seq1;
#X obj 218 272 sel 31;
#X obj 198 69 t b b b s, f 29;
#X obj 274 272 t b;
#X obj 318 304 t b f;
#X connect 0 0 21 0;
#X connect 1 0 4 0;
#X connect 2 0 5 0;
#X connect 3 0 23 0;
#X connect 3 1 2 1;
#X connect 4 0 2 0;
#X connect 4 1 7 0;
#X connect 4 2 3 1;
#X connect 5 0 6 0;
#X connect 5 0 8 0;
#X connect 6 0 5 1;
#X connect 7 0 5 1;
#X connect 8 0 3 0;
#X connect 9 0 1 1;
#X connect 10 0 13 0;
#X connect 11 0 12 0;
#X connect 13 0 11 0;
#X connect 14 0 1 0;
#X connect 15 0 22 0;
#X connect 16 0 18 0;
#X connect 16 0 10 0;
#X connect 16 0 20 0;
#X connect 17 0 16 1;
#X connect 18 0 16 1;
#X connect 19 0 21 0;
#X connect 20 0 17 0;
#X connect 21 0 14 0;
#X connect 21 1 9 0;
#X connect 21 2 15 0;
#X connect 21 3 1 2;
#X connect 22 0 17 0;
#X connect 23 0 16 0;
#X connect 23 1 11 1;
