#N canvas 35 25 1142 747 12;
#X obj 726 678 outlet~;
#X obj 726 644 *~, f 27;
#X obj 14 17 inlet Note;
#X floatatom 63 46 5 0 0 0 - - - 0;
#X obj 14 46 sel 0;
#X obj 218 17 notein 1, f 10;
#X floatatom 303 137 4 0 0 0 - - - 0;
#X text 1046 212 Volume;
#X obj 303 17 inlet mod;
#X msg 976 136 0;
#X obj 303 194 ctrl 48;
#X obj 407 194 ctrl 49;
#X obj 512 194 ctrl 50;
#X obj 616 194 ctrl 51;
#X obj 721 194 ctrl 52;
#X obj 825 194 ctrl 53;
#X obj 930 194 ctrl 54;
#X obj 1035 194 ctrl 55;
#X msg 1081 136 127;
#X obj 349 106 t b b b b b b b b, f 105;
#X obj 303 165 t f f f f f f f f, f 105;
#X obj 218 46 pack f f;
#X msg 767 136 127;
#X msg 662 136 100;
#X obj 303 66 == 5;
#X msg 349 136 0;
#X text 376 9 This allows the parameters of the bass to be changed
only if its selector switch has been pressed. They can be restored
to the default values by pressing SHIFT, f 99;
#X obj 46 111 t f b, f 28;
#X text 310 212 Attack;
#X obj 512 256 / 127;
#X obj 242 284 bng 15 250 50 0 empty empty empty 17 7 0 10 #fcfcfc
#000000 #000000;
#X obj 407 256 / 127;
#X text 428 212 Hold;
#X text 526 211 Decay;
#X obj 46 160 mtof;
#X obj 46 313 osc~, f 8;
#X msg 63 74 40;
#X obj 303 304 + 1;
#X obj 56 184 s freq;
#X obj 874 280 r freq;
#X obj 407 280 * 900;
#X obj 407 304 + 100;
#X obj 512 280 * 2900;
#X obj 303 256 / 127;
#N canvas 76 170 783 451 chorus 0;
#X obj 46 40 delwrite~ delay1 10000;
#X obj 122 150 vd~ delay1 1000;
#X obj 36 11 inlet~;
#X obj 36 396 outlet~;
#X obj 374 123 +~ 0.2;
#X obj 122 103 cos~;
#X obj 248 128 cos~;
#X obj 374 152 cos~;
#X obj 500 176 cos~;
#X obj 500 222 vd~ delay1 1000;
#X obj 374 199 vd~ delay1 1000;
#X obj 248 175 vd~ delay1 1000;
#X obj 122 261 +~, f 25;
#X obj 122 127 expr~ ($v1+1)*10;
#X obj 248 152 expr~ ($v1+1)*10;
#X obj 374 176 expr~ ($v1+1)*10;
#X obj 500 199 expr~ ($v1+1)*10;
#X obj 36 367 expr~ $v1*(1+$v3)+$v2*$v3, f 30;
#X obj 243 290 inlet mix;
#X obj 243 338 vline~;
#X msg 243 314 \$1 5;
#X obj 122 285 /~ 4;
#X obj 248 99 +~ 0.3;
#X obj 500 147 +~ 0.4;
#X obj 122 309 expr~ tanh($v1);
#X obj 122 74 phasor~ 2;
#X obj 264 27 inlet time;
#X connect 1 0 12 0;
#X connect 2 0 0 0;
#X connect 2 0 17 0;
#X connect 4 0 7 0;
#X connect 4 0 23 0;
#X connect 5 0 13 0;
#X connect 6 0 14 0;
#X connect 7 0 15 0;
#X connect 8 0 16 0;
#X connect 9 0 12 0;
#X connect 10 0 12 0;
#X connect 11 0 12 0;
#X connect 12 0 21 0;
#X connect 13 0 1 0;
#X connect 14 0 11 0;
#X connect 15 0 10 0;
#X connect 16 0 9 0;
#X connect 17 0 3 0;
#X connect 18 0 20 0;
#X connect 19 0 17 2;
#X connect 20 0 19 0;
#X connect 21 0 24 0;
#X connect 22 0 4 0;
#X connect 22 0 6 0;
#X connect 23 0 8 0;
#X connect 24 0 17 1;
#X connect 25 0 5 0;
#X connect 25 0 22 0;
#X connect 26 0 25 0;
#X restore 724 543 pd chorus;
#X text 630 212 Drive;
#X msg 558 136 50;
#X msg 453 136 35;
#X obj 349 48 route 98;
#X obj 349 77 sel 127;
#X msg 871 136 127;
#X floatatom 721 233 5 0 0 0 - - - 0;
#X floatatom 303 233 5 0 0 0 - - - 0;
#X floatatom 407 233 5 0 0 0 - - - 0;
#X floatatom 512 233 5 0 0 0 - - - 0;
#X floatatom 616 233 5 0 0 0 - - - 0;
#X floatatom 825 233 5 0 0 0 - - - 0;
#X floatatom 930 233 5 0 0 0 - - - 0;
#X floatatom 1035 233 5 0 0 0 - - - 0;
#N canvas 261 197 450 300 start 0;
#X obj 108 88 loadbang;
#X obj 108 123 t b b b, f 14;
#X msg 203 157 1;
#X obj 155 161 bng 15 250 50 0 empty empty empty 17 7 0 10 #fcfcfc
#000000 #000000;
#X msg 108 158 0;
#X obj 108 202 outlet;
#X obj 182 202 outlet;
#X connect 0 0 1 0;
#X connect 1 0 4 0;
#X connect 1 1 3 0;
#X connect 1 2 2 0;
#X connect 2 0 5 0;
#X connect 3 0 6 0;
#X connect 4 0 5 0;
#X restore 275 90 pd start;
#X obj 210 431 *~, f 5;
#X obj 46 212 sig~;
#X obj 99 260 +~ 1;
#X obj 46 284 *~, f 8;
#X obj 99 236 pow~ 2;
#X obj 726 602 lop~, f 9;
#X obj 930 256 / 127;
#X obj 874 399 +, f 8;
#X obj 930 304 t b f;
#X obj 930 280 * 6000;
#X obj 721 256 / 127;
#X obj 303 280 * 200;
#X obj 512 304 + 200;
#X obj 242 333 ../envAHD 1 100 200, f 39;
#X obj 99 212 ../envAR 1 10;
#X obj 187 188 + 10;
#X obj 187 164 * 100;
#X obj 1035 256 / 127;
#X obj 997 454 vline~;
#X msg 1021 424 \$1 5;
#X obj 616 256 / 127;
#X obj 686 469 *~;
#X obj 553 388 clip~ -0.9 0.8;
#X obj 825 256 / 50;
#X obj 825 280 + 0.1;
#X obj 874 304 * 2, f 6;
#X text 730 212 Chorus amt;
#X text 834 212 Chorus mix;
#X text 940 212 LP Freq;
#X connect 1 0 0 0;
#X connect 2 0 3 0;
#X connect 2 0 4 0;
#X connect 4 1 27 0;
#X connect 5 0 21 0;
#X connect 5 1 21 1;
#X connect 6 0 20 0;
#X connect 8 0 24 0;
#X connect 9 0 16 1;
#X connect 10 0 52 0;
#X connect 11 0 53 0;
#X connect 12 0 54 0;
#X connect 13 0 55 0;
#X connect 14 0 51 0;
#X connect 15 0 56 0;
#X connect 16 0 57 0;
#X connect 17 0 58 0;
#X connect 18 0 17 1;
#X connect 19 0 25 0;
#X connect 19 1 47 0;
#X connect 19 2 46 0;
#X connect 19 3 23 0;
#X connect 19 4 22 0;
#X connect 19 5 50 0;
#X connect 19 6 9 0;
#X connect 19 7 18 0;
#X connect 20 0 10 0;
#X connect 20 1 11 0;
#X connect 20 2 12 0;
#X connect 20 3 13 0;
#X connect 20 4 14 0;
#X connect 20 5 15 0;
#X connect 20 6 16 0;
#X connect 20 7 17 0;
#X connect 21 0 48 0;
#X connect 22 0 14 1;
#X connect 23 0 13 1;
#X connect 24 0 6 0;
#X connect 25 0 10 1;
#X connect 27 0 34 0;
#X connect 27 1 30 0;
#X connect 27 1 74 0;
#X connect 29 0 42 0;
#X connect 30 0 73 0;
#X connect 31 0 40 0;
#X connect 34 0 38 0;
#X connect 34 0 61 0;
#X connect 35 0 60 0;
#X connect 36 0 27 0;
#X connect 37 0 73 1;
#X connect 39 0 85 0;
#X connect 40 0 41 0;
#X connect 41 0 73 2;
#X connect 42 0 72 0;
#X connect 43 0 71 0;
#X connect 43 0 76 0;
#X connect 44 0 65 0;
#X connect 46 0 12 1;
#X connect 47 0 11 1;
#X connect 48 0 49 0;
#X connect 49 0 19 0;
#X connect 50 0 15 1;
#X connect 51 0 70 0;
#X connect 52 0 43 0;
#X connect 53 0 31 0;
#X connect 54 0 29 0;
#X connect 55 0 80 0;
#X connect 56 0 83 0;
#X connect 57 0 66 0;
#X connect 58 0 77 0;
#X connect 59 0 6 0;
#X connect 59 1 19 0;
#X connect 60 0 82 0;
#X connect 60 0 44 0;
#X connect 61 0 63 0;
#X connect 62 0 63 1;
#X connect 63 0 35 0;
#X connect 64 0 62 0;
#X connect 65 0 1 0;
#X connect 66 0 69 0;
#X connect 67 0 65 1;
#X connect 68 0 67 0;
#X connect 68 1 67 1;
#X connect 69 0 68 0;
#X connect 70 0 44 1;
#X connect 71 0 37 0;
#X connect 72 0 73 3;
#X connect 73 0 60 1;
#X connect 74 0 64 0;
#X connect 75 0 74 2;
#X connect 76 0 75 0;
#X connect 77 0 79 0;
#X connect 78 0 1 1;
#X connect 79 0 78 0;
#X connect 80 0 81 1;
#X connect 81 0 44 0;
#X connect 82 0 81 0;
#X connect 83 0 84 0;
#X connect 84 0 44 2;
#X connect 85 0 67 0;
