#N canvas 0 25 1280 747 12;
#X floatatom 199 157 4 0 0 0 - - - 0;
#X obj 739 688 outlet~;
#X obj 739 655 *~;
#X obj 34 15 notein 2, f 10;
#X obj 34 181 pack 0 0 0;
#X obj 34 236 route 1 2 3, f 22;
#X obj 12 75 inlet Note;
#X floatatom 1067 603 5 0 0 0 - - - 0;
#X text 268 25 This allows the parameters of the Bass to be changed
only if its selector switch has been pressed., f 22;
#X floatatom 199 235 5 0 0 0 - - - 0;
#X floatatom 323 235 5 0 0 0 - - - 0;
#X floatatom 447 235 5 0 0 0 - - - 0;
#X floatatom 571 235 5 0 0 0 - - - 0;
#X floatatom 695 235 5 0 0 0 - - - 0;
#X floatatom 819 235 5 0 0 0 - - - 0;
#X floatatom 943 235 5 0 0 0 - - - 0;
#X floatatom 1067 235 5 0 0 0 - - - 0;
#X obj 1010 11 notein 1;
#X obj 1010 40 pack f f;
#X obj 1010 98 sel 127;
#X obj 1010 69 route 98;
#X msg 1134 147 120;
#X text 1095 214 Volume;
#X msg 1010 147 30;
#X msg 886 147 64;
#X msg 762 147 10;
#X msg 638 147 0;
#X text 227 214 Detune;
#X obj 200 532 bob~, f 36;
#X text 330 214 LP Cutoff;
#X text 433 214 LP Resonance;
#X obj 447 258 / 127;
#X obj 323 258 / 127;
#X floatatom 323 311 9 0 0 0 - - - 0;
#X floatatom 457 311 9 0 0 0 - - - 0;
#X obj 324 488 vline~;
#X obj 324 414 +;
#X msg 390 147 127;
#X msg 514 147 0;
#X msg 266 147 0;
#X text 1078 10 Reset to default values by pressing SHIFT, f 17;
#X obj 1067 258 / 127;
#X obj 199 46 inlet mod;
#X obj 199 196 ctrl 48;
#X obj 323 196 ctrl 49;
#X obj 447 196 ctrl 50;
#X obj 571 196 ctrl 51;
#X obj 695 196 ctrl 52;
#X obj 819 196 ctrl 53;
#X obj 943 196 ctrl 54;
#X obj 1067 196 ctrl 55;
#X obj 34 351 voice~;
#X obj 84 371 voice~;
#X obj 134 391 voice~;
#X obj 946 41 loadbang;
#X msg 946 65 127;
#X msg 324 451 \$1 30;
#X obj 280 282 mtof;
#X floatatom 280 311 5 0 0 0 - - - 0;
#X obj 323 339 t b f;
#X obj 280 339 * 2;
#X obj 323 282 * 15000;
#X obj 34 152 poly 3 1, f 10;
#X obj 447 282 * 3.9999;
#X obj 134 450 /~ 1.5;
#X connect 0 0 43 0;
#X connect 0 0 44 0;
#X connect 0 0 45 0;
#X connect 0 0 46 0;
#X connect 0 0 47 0;
#X connect 0 0 48 0;
#X connect 0 0 49 0;
#X connect 0 0 50 0;
#X connect 2 0 1 0;
#X connect 3 0 62 0;
#X connect 3 1 62 1;
#X connect 4 0 5 0;
#X connect 5 0 51 0;
#X connect 5 1 52 0;
#X connect 5 2 53 0;
#X connect 6 0 62 0;
#X connect 7 0 2 1;
#X connect 9 0 51 1;
#X connect 9 0 52 1;
#X connect 9 0 53 1;
#X connect 10 0 32 0;
#X connect 11 0 31 0;
#X connect 16 0 41 0;
#X connect 17 0 18 0;
#X connect 17 1 18 1;
#X connect 18 0 20 0;
#X connect 19 0 39 0;
#X connect 19 0 21 0;
#X connect 19 0 24 0;
#X connect 19 0 23 0;
#X connect 19 0 25 0;
#X connect 19 0 26 0;
#X connect 19 0 38 0;
#X connect 19 0 37 0;
#X connect 20 0 19 0;
#X connect 21 0 50 1;
#X connect 23 0 49 1;
#X connect 24 0 48 1;
#X connect 25 0 47 1;
#X connect 26 0 46 1;
#X connect 28 0 2 0;
#X connect 31 0 63 0;
#X connect 32 0 61 0;
#X connect 33 0 59 0;
#X connect 35 0 28 1;
#X connect 36 0 56 0;
#X connect 37 0 44 1;
#X connect 38 0 45 1;
#X connect 39 0 43 1;
#X connect 41 0 7 0;
#X connect 42 0 0 0;
#X connect 43 0 9 0;
#X connect 44 0 10 0;
#X connect 45 0 11 0;
#X connect 46 0 12 0;
#X connect 47 0 13 0;
#X connect 48 0 14 0;
#X connect 49 0 15 0;
#X connect 50 0 16 0;
#X connect 51 0 64 0;
#X connect 52 0 64 0;
#X connect 53 0 64 0;
#X connect 54 0 55 0;
#X connect 55 0 19 0;
#X connect 56 0 35 0;
#X connect 57 0 58 0;
#X connect 58 0 60 0;
#X connect 59 0 36 0;
#X connect 59 1 36 1;
#X connect 60 0 36 0;
#X connect 61 0 33 0;
#X connect 62 0 4 0;
#X connect 62 1 4 1;
#X connect 62 1 57 0;
#X connect 62 2 4 2;
#X connect 63 0 28 2;
#X connect 63 0 34 0;
#X connect 64 0 28 0;
