#N canvas 35 41 1245 731 12;
#X obj 822 694 outlet~;
#X obj 822 607 *~, f 27;
#X obj 14 47 inlet Note;
#X floatatom 63 76 5 0 0 0 - - - 0;
#X obj 14 76 sel 0;
#X obj 357 16 notein 1, f 10;
#X floatatom 311 163 4 0 0 0 - - - 0;
#X text 1116 292 Volume;
#X obj 280 16 inlet mod;
#X msg 984 162 0;
#X obj 311 220 ctrl 48;
#X obj 415 220 ctrl 49;
#X obj 520 220 ctrl 50;
#X obj 624 220 ctrl 51;
#X obj 729 220 ctrl 52;
#X obj 833 220 ctrl 53;
#X obj 938 220 ctrl 54;
#X obj 1043 220 ctrl 55;
#X msg 1151 216 127;
#X obj 357 132 t b b b b b b b b, f 105;
#X obj 311 191 t f f f f f f f f, f 105;
#X obj 357 45 pack f f;
#X msg 775 162 127;
#X msg 670 162 100;
#X obj 311 92 == 5;
#X msg 357 162 0;
#X text 424 65 This allows the parameters of the bass to be changed
only if its selector switch has been pressed. They can be restored
to the default values by pressing SHIFT, f 99;
#X text 318 238 Attack;
#X obj 520 282 / 127;
#X obj 251 331 bng 15 250 50 0 empty empty empty 17 7 0 10 #fcfcfc
#000000 #000000;
#X obj 415 282 / 127;
#X text 436 238 Hold;
#X text 534 237 Decay;
#X obj 46 190 mtof;
#X obj 46 389 osc~, f 8;
#X msg 63 104 40;
#X obj 311 330 + 1;
#X obj 56 214 s freq;
#X obj 672 316 r freq;
#X obj 415 306 * 900;
#X obj 415 330 + 100;
#X obj 520 306 * 2900;
#X obj 311 282 / 127;
#X text 638 238 Drive;
#X msg 566 162 50;
#X msg 461 162 35;
#X obj 357 74 route 98;
#X obj 357 103 sel 127;
#X floatatom 729 259 5 0 0 0 - - - 0;
#X floatatom 311 259 5 0 0 0 - - - 0;
#X floatatom 415 259 5 0 0 0 - - - 0;
#X floatatom 520 259 5 0 0 0 - - - 0;
#X floatatom 625 258 5 0 0 0 - - - 0;
#X floatatom 833 259 5 0 0 0 - - - 0;
#X floatatom 1043 259 5 0 0 0 - - - 0;
#N canvas 261 197 450 300 start 0;
#X obj 108 88 loadbang;
#X obj 108 123 t b b b, f 14;
#X msg 203 157 1;
#X obj 155 161 bng 15 250 50 0 empty empty empty 17 7 0 10 #fcfcfc
#000000 #000000;
#X msg 108 158 0;
#X obj 108 202 outlet;
#X obj 182 202 outlet;
#X connect 0 0 1 0;
#X connect 1 0 4 0;
#X connect 1 1 3 0;
#X connect 1 2 2 0;
#X connect 2 0 5 0;
#X connect 3 0 6 0;
#X connect 4 0 5 0;
#X restore 283 116 pd start;
#X obj 218 453 *~, f 5;
#X obj 46 242 sig~;
#X obj 99 290 +~ 1;
#X obj 46 314 *~, f 8;
#X obj 672 435 +, f 13;
#X obj 728 340 t b f;
#X obj 311 306 * 200;
#X obj 520 330 + 200;
#X obj 250 359 ../envAHD 1 100 200, f 39;
#X obj 187 218 + 10;
#X obj 187 194 * 100;
#X obj 1008 480 vline~;
#X msg 1043 310 \$1 5;
#X obj 624 282 / 127;
#X text 739 238 LP Freq;
#N canvas 395 94 530 499 keyboard 0;
#X obj 114 67 notein 2, f 24;
#X obj 65 192 f;
#X floatatom 124 125 5 0 0 0 - - - 0;
#X obj 114 96 expr if($f2==0 \, -1 \, $f1);
#X obj 114 153 route -1;
#X obj 65 290 outlet;
#X obj 65 237 pack f f, f 12;
#X obj 100 192 t b b f;
#X obj 65 153 inlet;
#X obj 65 261 route 1;
#X connect 0 0 3 0;
#X connect 0 1 3 1;
#X connect 1 0 6 0;
#X connect 3 0 2 0;
#X connect 3 0 4 0;
#X connect 4 1 7 0;
#X connect 6 0 9 0;
#X connect 7 0 6 0;
#X connect 7 1 1 0;
#X connect 7 2 6 1;
#X connect 8 0 1 1;
#X connect 9 0 5 0;
#X restore 117 116 pd keyboard;
#X obj 99 242 ../envAR 5 10;
#X obj 1043 282 / 127;
#X obj 424 454 expr~ $v1*(1-$f3)+$v2*$f3, f 29;
#X obj 46 141 t f b b, f 28;
#X obj 99 266 pow~ 3;
#X obj 612 493 bob~, f 18;
#X msg 777 464 1;
#X obj 116 389 phasor~;
#X obj 833 282 / 127;
#X obj 857 529 *~, f 12;
#X obj 792 240 bng 15 250 50 0 empty empty empty 17 7 0 10 #fcfcfc
#000000 #000000;
#X msg 879 162 10;
#N canvas 62 59 579 408 wavefold 0;
#X obj 111 60 inlet~ in;
#X obj 111 245 outlet~ out;
#X obj 111 89 *~ 2;
#X obj 111 217 expr~ if($v1<-1 \, -2-$v1 \, $v1);
#X obj 111 128 expr~ if($v1>1.5 \, $v1-1.5 \, $v1);
#X obj 111 157 expr~ if($v1<-1.5 \, $v1+1.5 \, $v1);
#X obj 111 188 expr~ if($v1>0.5 \, 2-$v1 \, $v1);
#X connect 0 0 2 0;
#X connect 2 0 4 0;
#X connect 3 0 1 0;
#X connect 4 0 5 0;
#X connect 5 0 6 0;
#X connect 6 0 3 0;
#X restore 524 395 pd wavefold;
#X obj 857 558 rev2~ 90 90 3000 100;
#X obj 822 665 expr~ tanh($v1*2);
#X msg 162 347 0;
#X obj 524 419 lop~ 2000;
#X obj 857 582 *~ 0.5;
#X obj 729 282 / 127;
#X obj 672 340 * 5, f 6;
#X obj 822 636 hip~ 100;
#X floatatom 208 116 5 0 0 0 - - - 0;
#X obj 117 68 / 127;
#X text 116 46 Kbd OnOff;
#X obj 208 92 ctrl 51;
#X obj 208 63 == 0;
#X obj 117 92 > 0.5;
#N canvas 133 247 874 630 chorus 0;
#X obj 52 438 outlet~;
#X obj 91 144 phasor~;
#X obj 241 154 +~ 0.2, f 8;
#X obj 395 154 +~ 0.2, f 8;
#X obj 541 154 +~ 0.2, f 8;
#X obj 91 173 cos~;
#X obj 241 183 cos~;
#X obj 395 183 cos~;
#X obj 541 183 cos~;
#X obj 91 232 expr~ ($v1+1) * $f2;
#X obj 241 232 expr~ ($v1+1) * $f2;
#X obj 395 232 expr~ ($v1+1) * $f2;
#X obj 541 232 expr~ ($v1+1) * $f2;
#X obj 52 32 inlet~;
#X obj 91 86 r freq;
#X obj 66 57 delwrite~ \$0-chorus 10000;
#X obj 91 261 vd~ \$0-chorus 10;
#X obj 241 261 vd~ \$0-chorus 10;
#X obj 395 261 vd~ \$0-chorus 0;
#X obj 541 261 vd~ \$0-chorus 10;
#X obj 252 309 inlet;
#X floatatom 252 333 5 0 0 0 - - - 0;
#X obj 252 380 vline~;
#X msg 252 356 \$1 10;
#X obj 91 115 / 500;
#X floatatom 178 184 5 0 0 0 - - - 0;
#X obj 52 409 expr~ $v1*(1-$v3)+$v2*$v3, f 29;
#X obj 91 316 /~ 2;
#X obj 178 115 / 100;
#X connect 1 0 2 0;
#X connect 1 0 5 0;
#X connect 2 0 3 0;
#X connect 2 0 6 0;
#X connect 3 0 4 0;
#X connect 3 0 7 0;
#X connect 4 0 8 0;
#X connect 5 0 9 0;
#X connect 6 0 10 0;
#X connect 7 0 11 0;
#X connect 8 0 12 0;
#X connect 9 0 16 0;
#X connect 10 0 17 0;
#X connect 11 0 18 0;
#X connect 12 0 19 0;
#X connect 13 0 15 0;
#X connect 13 0 26 0;
#X connect 13 0 27 0;
#X connect 14 0 24 0;
#X connect 14 0 28 0;
#X connect 16 0 27 0;
#X connect 17 0 27 0;
#X connect 18 0 27 0;
#X connect 19 0 27 0;
#X connect 20 0 21 0;
#X connect 21 0 23 0;
#X connect 22 0 26 2;
#X connect 23 0 22 0;
#X connect 24 0 1 0;
#X connect 25 0 12 1;
#X connect 25 0 11 1;
#X connect 25 0 10 1;
#X connect 25 0 9 1;
#X connect 26 0 0 0;
#X connect 27 0 26 1;
#X connect 28 0 25 0;
#X restore 773 537 pd chorus;
#X floatatom 938 259 5 0 0 0 - - - 0;
#X obj 938 282 / 127;
#X text 966 238 Rev;
#X text 840 238 Chorus;
#X obj 84 346 *~ 1.7;
#X obj 151 289 * 0.7;
#X obj 151 319 + 1.013;
#X obj 728 316 * 2000;
#X connect 1 0 92 0;
#X connect 2 0 3 0;
#X connect 2 0 4 0;
#X connect 4 1 75 0;
#X connect 5 0 21 0;
#X connect 5 1 21 1;
#X connect 6 0 20 0;
#X connect 8 0 24 0;
#X connect 8 0 97 0;
#X connect 9 0 16 1;
#X connect 10 0 49 0;
#X connect 11 0 50 0;
#X connect 12 0 51 0;
#X connect 13 0 52 0;
#X connect 14 0 48 0;
#X connect 15 0 53 0;
#X connect 16 0 100 0;
#X connect 17 0 54 0;
#X connect 18 0 17 1;
#X connect 19 0 25 0;
#X connect 19 1 45 0;
#X connect 19 2 44 0;
#X connect 19 3 23 0;
#X connect 19 4 22 0;
#X connect 19 5 83 0;
#X connect 19 6 9 0;
#X connect 19 7 18 0;
#X connect 20 0 10 0;
#X connect 20 1 11 0;
#X connect 20 2 12 0;
#X connect 20 3 13 0;
#X connect 20 4 14 0;
#X connect 20 5 15 0;
#X connect 20 6 16 0;
#X connect 20 7 17 0;
#X connect 21 0 46 0;
#X connect 22 0 14 1;
#X connect 22 0 82 0;
#X connect 23 0 13 1;
#X connect 24 0 6 0;
#X connect 25 0 10 1;
#X connect 28 0 41 0;
#X connect 29 0 64 0;
#X connect 29 0 87 0;
#X connect 30 0 39 0;
#X connect 33 0 37 0;
#X connect 33 0 57 0;
#X connect 34 0 56 0;
#X connect 35 0 75 0;
#X connect 36 0 64 1;
#X connect 38 0 91 0;
#X connect 39 0 40 0;
#X connect 40 0 64 2;
#X connect 41 0 63 0;
#X connect 42 0 62 0;
#X connect 42 0 66 0;
#X connect 44 0 12 1;
#X connect 45 0 11 1;
#X connect 46 0 47 0;
#X connect 47 0 19 0;
#X connect 48 0 90 0;
#X connect 49 0 42 0;
#X connect 50 0 30 0;
#X connect 51 0 28 0;
#X connect 52 0 69 0;
#X connect 53 0 80 0;
#X connect 54 0 73 0;
#X connect 55 0 6 0;
#X connect 55 1 19 0;
#X connect 56 0 74 0;
#X connect 56 0 84 0;
#X connect 57 0 59 0;
#X connect 58 0 59 1;
#X connect 59 0 34 0;
#X connect 59 0 104 0;
#X connect 60 0 77 1;
#X connect 60 0 85 3;
#X connect 61 0 60 0;
#X connect 61 1 60 1;
#X connect 62 0 36 0;
#X connect 63 0 64 3;
#X connect 64 0 56 1;
#X connect 65 0 72 2;
#X connect 66 0 65 0;
#X connect 67 0 1 1;
#X connect 68 0 67 0;
#X connect 69 0 74 2;
#X connect 69 0 105 0;
#X connect 71 0 75 0;
#X connect 72 0 76 0;
#X connect 73 0 68 0;
#X connect 74 0 77 0;
#X connect 75 0 33 0;
#X connect 75 1 29 0;
#X connect 75 2 72 0;
#X connect 76 0 58 0;
#X connect 77 0 81 0;
#X connect 77 0 99 0;
#X connect 78 0 77 2;
#X connect 79 0 56 0;
#X connect 80 0 99 1;
#X connect 81 0 85 0;
#X connect 82 0 78 0;
#X connect 83 0 15 1;
#X connect 84 0 88 0;
#X connect 85 0 89 0;
#X connect 86 0 0 0;
#X connect 87 0 79 1;
#X connect 87 0 34 1;
#X connect 88 0 74 1;
#X connect 89 0 1 0;
#X connect 90 0 107 0;
#X connect 91 0 60 0;
#X connect 92 0 86 0;
#X connect 93 0 94 0;
#X connect 94 0 98 0;
#X connect 96 0 93 0;
#X connect 97 0 96 0;
#X connect 98 0 71 0;
#X connect 99 0 1 0;
#X connect 100 0 101 0;
#X connect 101 0 81 1;
#X connect 104 0 79 0;
#X connect 105 0 106 0;
#X connect 106 0 104 1;
#X connect 107 0 61 0;
