#N canvas 0 25 1280 747 12;
#X obj 817 652 outlet~;
#X obj 817 653 *~, f 27;
#X obj 65 17 inlet Note;
#X text 454 78 Reset to default values by pressing SHIFT, f 47;
#X obj 1085 256 / 127;
#X floatatom 114 46 5 0 0 0 - - - 0;
#X obj 65 46 sel 0;
#X obj 268 17 notein 1, f 10;
#X floatatom 353 137 4 0 0 0 - - - 0;
#X text 1096 212 Volume;
#X obj 353 17 inlet mod;
#X msg 1026 136 0;
#X obj 353 194 ctrl 48;
#X obj 457 194 ctrl 49;
#X obj 562 194 ctrl 50;
#X obj 666 194 ctrl 51;
#X obj 771 194 ctrl 52;
#X obj 875 194 ctrl 53;
#X obj 980 194 ctrl 54;
#X obj 1085 194 ctrl 55;
#X msg 1131 136 127;
#X obj 399 106 t b b b b b b b b, f 105;
#X obj 353 165 t f f f f f f f f, f 105;
#X obj 268 46 pack f f;
#X msg 817 136 127;
#X msg 712 136 100;
#X obj 353 66 == 5;
#X msg 399 136 0;
#X text 426 9 This allows the parameters of the bass to be changed
only if its selector switch has been pressed. They can be restored
to the default values by pressing SHIFT, f 99;
#X obj 97 111 t f b, f 29;
#X obj 666 256 / 127;
#X obj 875 256 / 127;
#X obj 298 487 ../envAHD;
#X text 360 212 Attack;
#X obj 562 256 / 127;
#X obj 299 284 bng 15 250 50 0 empty empty empty 17 7 0 10 #fcfcfc
#000000 #000000;
#X obj 980 256 / 127;
#X obj 457 256 / 127;
#X text 478 212 Hold;
#X text 576 211 Decay;
#X obj 353 453 pack f f f, f 27;
#X obj 457 404 t b f;
#X obj 562 404 t b f;
#X obj 315 587 *~, f 30;
#X listbox 381 486 28 0 0 0 - - - 0;
#X obj 97 140 mtof;
#X obj 97 364 osc~, f 8;
#X msg 114 74 40;
#X obj 353 304 + 1;
#X obj 145 318 line, f 5;
#X msg 231 289 1 5;
#X obj 231 260 del 15;
#X msg 198 260 1;
#X obj 97 338 *, f 5;
#X obj 97 219 t b f;
#X msg 145 260 1.3 15;
#X obj 145 219 t b b b, f 10;
#X obj 817 624 bob~, f 17;
#X obj 875 285 * 15000;
#X obj 107 164 s freq;
#X obj 819 285 r freq;
#X obj 457 280 * 900;
#X obj 457 304 + 100;
#X obj 562 304 + 100;
#X obj 562 280 * 2900;
#X obj 353 256 / 127;
#X obj 683 453 expr~ tanh($v1*(1+$f2));
#X obj 636 393 +~;
#N canvas 67 79 719 600 chorus 0;
#X obj 35 66 delwrite~ delay1 10000;
#X obj 36 340 vd~ delay1 1000;
#X obj 23 37 inlet~;
#X obj 25 475 outlet~;
#X obj 162 162 +~ 0.2;
#X obj 288 211 +~ 0.2;
#X obj 419 251 +~ 0.2;
#X obj 36 282 cos~;
#X obj 162 279 cos~;
#X obj 288 289 cos~;
#X obj 419 289 cos~;
#X obj 419 340 vd~ delay1 1000;
#X obj 288 340 vd~ delay1 1000;
#X obj 163 340 vd~ delay1 1000;
#X obj 111 401 +~, f 25;
#X obj 583 361 inlet mod;
#X floatatom 583 385 5 0 0 0 - - - 0;
#X obj 36 317 expr~ ($v1+1)*10;
#X obj 162 317 expr~ ($v1+1)*10;
#X obj 288 317 expr~ ($v1+1)*10;
#X obj 419 317 expr~ ($v1+1)*10;
#X obj 35 120 phasor~ 0.1414;
#X obj 25 434 expr~ $v1*(1-$f3)+$f3*$v2;
#X connect 1 0 14 0;
#X connect 2 0 0 0;
#X connect 2 0 22 0;
#X connect 4 0 5 0;
#X connect 4 0 8 0;
#X connect 5 0 6 0;
#X connect 5 0 9 0;
#X connect 6 0 10 0;
#X connect 7 0 17 0;
#X connect 8 0 18 0;
#X connect 9 0 19 0;
#X connect 10 0 20 0;
#X connect 11 0 14 1;
#X connect 12 0 14 1;
#X connect 13 0 14 0;
#X connect 14 0 22 1;
#X connect 15 0 16 0;
#X connect 16 0 22 2;
#X connect 17 0 1 0;
#X connect 21 0 4 0;
#X connect 21 0 7 0;
#X connect 22 0 3 0;
#X restore 606 453 pd chorus;
#X text 785 212 Drive;
#X text 687 213 Chorus;
#X text 882 212 Lp Cut;
#X text 987 212 Lp Res;
#X obj 819 314 * 4;
#X obj 875 347 +, f 5;
#X obj 875 309 t b f;
#X obj 711 598 *~, f 16;
#X obj 820 562 + 1;
#X obj 353 280 * 150;
#X obj 298 516 pow~ 4;
#X msg 608 136 50;
#X msg 503 136 35;
#X obj 399 48 route 98;
#X obj 399 77 sel 127;
#X msg 921 136 127;
#X obj 980 285 * 2;
#X floatatom 771 233 5 0 0 0 - - - 0;
#X obj 771 256 / 127;
#X obj 771 280 * 3;
#X floatatom 353 233 5 0 0 0 - - - 0;
#X floatatom 457 233 5 0 0 0 - - - 0;
#X floatatom 562 233 5 0 0 0 - - - 0;
#X floatatom 666 233 5 0 0 0 - - - 0;
#X floatatom 875 233 5 0 0 0 - - - 0;
#X floatatom 980 233 5 0 0 0 - - - 0;
#X floatatom 1085 233 5 0 0 0 - - - 0;
#N canvas 261 197 450 300 start 0;
#X obj 108 88 loadbang;
#X obj 108 123 t b b b, f 14;
#X msg 203 157 1;
#X obj 155 161 bng 15 250 50 0 empty empty empty 17 7 0 10 #fcfcfc
#000000 #000000;
#X msg 108 158 0;
#X obj 108 202 outlet;
#X obj 182 202 outlet;
#X connect 0 0 1 0;
#X connect 1 0 4 0;
#X connect 1 1 3 0;
#X connect 1 2 2 0;
#X connect 2 0 5 0;
#X connect 3 0 6 0;
#X connect 4 0 5 0;
#X restore 325 90 pd start;
#X connect 1 0 0 0;
#X connect 2 0 5 0;
#X connect 2 0 6 0;
#X connect 4 0 1 1;
#X connect 6 1 29 0;
#X connect 7 0 23 0;
#X connect 7 1 23 1;
#X connect 8 0 22 0;
#X connect 10 0 26 0;
#X connect 11 0 18 1;
#X connect 12 0 89 0;
#X connect 13 0 90 0;
#X connect 14 0 91 0;
#X connect 15 0 92 0;
#X connect 16 0 86 0;
#X connect 17 0 93 0;
#X connect 18 0 94 0;
#X connect 19 0 95 0;
#X connect 20 0 19 1;
#X connect 21 0 27 0;
#X connect 21 1 81 0;
#X connect 21 2 80 0;
#X connect 21 3 25 0;
#X connect 21 4 24 0;
#X connect 21 5 84 0;
#X connect 21 6 11 0;
#X connect 21 7 20 0;
#X connect 22 0 12 0;
#X connect 22 1 13 0;
#X connect 22 2 14 0;
#X connect 22 3 15 0;
#X connect 22 4 16 0;
#X connect 22 5 17 0;
#X connect 22 6 18 0;
#X connect 22 7 19 0;
#X connect 23 0 82 0;
#X connect 24 0 16 1;
#X connect 25 0 15 1;
#X connect 26 0 8 0;
#X connect 27 0 12 1;
#X connect 29 0 45 0;
#X connect 29 1 35 0;
#X connect 29 1 56 0;
#X connect 30 0 68 1;
#X connect 31 0 58 0;
#X connect 32 0 79 0;
#X connect 34 0 64 0;
#X connect 35 0 32 0;
#X connect 36 0 77 0;
#X connect 36 0 85 0;
#X connect 37 0 61 0;
#X connect 40 0 44 0;
#X connect 40 0 32 1;
#X connect 41 0 40 0;
#X connect 41 1 40 1;
#X connect 42 0 40 0;
#X connect 42 1 40 2;
#X connect 43 0 76 0;
#X connect 45 0 54 0;
#X connect 45 0 59 0;
#X connect 46 0 67 0;
#X connect 47 0 29 0;
#X connect 48 0 40 0;
#X connect 49 0 53 0;
#X connect 50 0 49 0;
#X connect 51 0 50 0;
#X connect 52 0 49 0;
#X connect 53 0 46 0;
#X connect 54 0 53 0;
#X connect 54 1 53 1;
#X connect 55 0 49 0;
#X connect 56 0 55 0;
#X connect 56 1 52 0;
#X connect 56 2 51 0;
#X connect 57 0 1 0;
#X connect 58 0 75 0;
#X connect 60 0 73 0;
#X connect 61 0 62 0;
#X connect 62 0 41 0;
#X connect 63 0 42 0;
#X connect 64 0 63 0;
#X connect 65 0 78 0;
#X connect 66 0 43 1;
#X connect 67 0 68 0;
#X connect 67 0 66 0;
#X connect 68 0 43 1;
#X connect 73 0 74 0;
#X connect 74 0 57 1;
#X connect 75 0 74 0;
#X connect 75 1 74 1;
#X connect 76 0 57 0;
#X connect 77 0 76 1;
#X connect 78 0 48 0;
#X connect 79 0 43 0;
#X connect 80 0 14 1;
#X connect 81 0 13 1;
#X connect 82 0 83 0;
#X connect 83 0 21 0;
#X connect 84 0 17 1;
#X connect 85 0 57 2;
#X connect 86 0 87 0;
#X connect 87 0 88 0;
#X connect 88 0 66 1;
#X connect 89 0 65 0;
#X connect 90 0 37 0;
#X connect 91 0 34 0;
#X connect 92 0 30 0;
#X connect 93 0 31 0;
#X connect 94 0 36 0;
#X connect 95 0 4 0;
#X connect 96 0 8 0;
#X connect 96 1 21 0;
