#N canvas 508 25 772 747 12;
#X obj 114 14 ctlin \$1;
#X obj 50 243 outlet;
#X obj 204 14 inlet defaultValue;
#X floatatom 68 86 5 0 0 0 - - - 0;
#X floatatom 50 221 5 0 0 0 - - - 0;
#X obj 20 14 inlet isON;
#X floatatom 20 86 5 0 0 0 - - - 0;
#X floatatom 114 85 5 0 0 0 - - - 0;
#X obj 50 174 pack f f;
#X obj 114 129 t b f, f 11;
#X obj 50 198 route 2, f 13;
#X obj 50 129 +;
#X msg 68 46 0;
#X floatatom 204 92 5 0 0 0 - - - 0;
#X msg 166 49 1;
#X connect 0 0 7 0;
#X connect 0 1 3 0;
#X connect 2 0 13 0;
#X connect 2 0 14 0;
#X connect 3 0 11 0;
#X connect 4 0 1 0;
#X connect 5 0 6 0;
#X connect 5 0 12 0;
#X connect 6 0 11 1;
#X connect 7 0 9 0;
#X connect 8 0 10 0;
#X connect 9 0 8 0;
#X connect 9 1 8 1;
#X connect 10 0 4 0;
#X connect 11 0 8 0;
#X connect 12 0 3 0;
#X connect 13 0 9 0;
#X connect 14 0 3 0;
