#N canvas 382 25 677 300 12;
#X obj 114 14 ctlin \$1;
#X obj 50 243 outlet;
#X floatatom 68 86 5 0 0 0 - - - 0;
#X floatatom 50 221 5 0 0 0 - - - 0;
#X obj 20 14 inlet isON;
#X floatatom 20 86 5 0 0 0 - - - 0;
#X floatatom 114 85 5 0 0 0 - - - 0;
#X obj 50 174 pack f f, f 20;
#X obj 113 129 t b f, f 11;
#X obj 50 198 route 2, f 13;
#X obj 50 129 +;
#X msg 68 46 0;
#X obj 194 14 inlet default;
#X obj 194 58 t f b;
#X msg 157 58 1;
#X text 226 91 Here we ensure that the knob is only read when it receives
the number 1 in the left inlet. The value associated with the knob
is entered as an argument when creating the object.;
#X connect 0 0 6 0;
#X connect 0 1 2 0;
#X connect 2 0 10 0;
#X connect 3 0 1 0;
#X connect 4 0 5 0;
#X connect 4 0 11 0;
#X connect 5 0 10 1;
#X connect 6 0 8 0;
#X connect 7 0 9 0;
#X connect 8 0 7 0;
#X connect 8 1 7 1;
#X connect 9 0 3 0;
#X connect 10 0 7 0;
#X connect 11 0 2 0;
#X connect 12 0 13 0;
#X connect 13 0 8 0;
#X connect 13 1 14 0;
#X connect 14 0 2 0;
