#N canvas 30 33 1239 739 12;
#X obj 66 229 bng 15 250 50 0 empty empty empty 17 7 0 10 #fcfcfc #000000
#000000;
#X obj 639 573 outlet~;
#X obj 639 544 *~, f 35;
#X text 893 205 Volume;
#X floatatom 154 223 6 0 0 0 - - - 0;
#X floatatom 258 226 5 0 0 0 - - - 0;
#X floatatom 886 226 5 0 0 0 - - - 0;
#X floatatom 572 226 5 0 0 0 - - - 0;
#X floatatom 676 226 5 0 0 0 - - - 0;
#X floatatom 781 226 5 0 0 0 - - - 0;
#X floatatom 467 226 5 0 0 0 - - - 0;
#X floatatom 363 226 5 0 0 0 - - - 0;
#X text 272 205 Decay;
#X text 480 205 TO DO;
#X text 161 205 Attack;
#X obj 128 399 vline~;
#X obj 154 251 / 127;
#X obj 110 428 *~;
#X obj 72 370 noise~;
#X msg 128 370 1 \$2 \, 0 \$3 \$2;
#X obj 128 341 pack f f f, f 19;
#X text 374 205 HPF cutoff;
#X obj 363 254 / 127;
#X obj 337 447 hip~;
#X obj 154 280 * 30;
#X obj 258 312 + 30, f 5;
#X obj 258 254 / 127;
#X obj 258 283 * 200;
#X floatatom 363 341 8 0 0 0 - - - 0;
#X obj 363 312 + 3000;
#X obj 363 283 * 15000;
#X obj 497 476 delwrite~ my-delay-line 10000;
#X obj 548 448 *~, f 5;
#X obj 425 419 vd~ my-delay-line 1000;
#X obj 520 390 vline~;
#X text 575 205 Dly time;
#X text 680 205 Feedback;
#X obj 781 249 / 127;
#X obj 566 306 inlet tempo;
#X msg 520 361 \$1 20;
#N canvas 258 144 789 528 sync 0;
#X obj 193 125 expr 60/$f1*1000;
#X obj 193 154 t b f;
#X obj 53 38 inlet;
#X obj 193 96 inlet tempo;
#X obj 53 280 outlet;
#X obj 53 251 *, f 25;
#X obj 53 67 / 127;
#X obj 53 125 int;
#X floatatom 88 126 5 0 0 0 - - - 0;
#X obj 53 154 tabread delayTimes;
#N canvas 0 22 450 278 (subpatch) 0;
#X array delayTimes 12 float 3;
#A 0 0.166667 0.25 0.33333 0.5 0.666666 0.75 1 1.33333 1.5 2 3 4;
#X coords 0 0 12 4 200 140 1 0 0;
#X restore 373 142 graph;
#X obj 375 420 tabwrite delayTimes;
#X obj 395 333 t b b;
#X obj 396 308 bng 15 250 50 0 empty empty empty 17 7 0 10 #fcfcfc
#000000 #000000;
#X msg 375 386 4;
#X msg 505 385 11;
#X floatatom 123 285 5 0 0 0 - - - 0;
#X obj 53 96 * 5;
#X connect 0 0 1 0;
#X connect 1 0 5 0;
#X connect 1 1 5 1;
#X connect 2 0 6 0;
#X connect 3 0 0 0;
#X connect 5 0 4 0;
#X connect 5 0 16 0;
#X connect 6 0 17 0;
#X connect 7 0 8 0;
#X connect 7 0 9 0;
#X connect 9 0 5 0;
#X connect 12 0 14 0;
#X connect 12 1 15 0;
#X connect 13 0 12 0;
#X connect 17 0 7 0;
#X restore 520 332 pd sync;
#X obj 881 467 / 300;
#X obj 66 20 notein 1, f 10;
#X obj 21 20 inlet;
#X floatatom 154 130 4 0 0 0 - - - 0;
#X obj 154 20 inlet mod;
#X obj 154 187 ctrl 48;
#X obj 258 187 ctrl 49;
#X obj 363 187 ctrl 50;
#X obj 467 187 ctrl 51;
#X obj 572 187 ctrl 52;
#X obj 676 187 ctrl 53;
#X obj 781 187 ctrl 54;
#X obj 886 187 ctrl 55;
#X msg 932 129 127;
#X obj 200 99 t b b b b b b b b, f 105;
#X obj 154 158 t f f f f f f f f, f 105;
#X obj 66 104 pack f f;
#X text 227 12 This allows the parameters of the hithat to be changed
only if its selector switch has been pressed. They can be restored
to the default values by pressing SHIFT, f 99;
#X obj 154 49 == 3;
#X msg 513 129 0;
#X obj 791 448 *~;
#X text 785 205 Dly Lvl;
#X obj 676 419 / 127;
#X obj 28 159 sel 127;
#X obj 91 159 sel 127;
#X obj 28 130 route 2 6 98;
#X msg 618 129 0;
#X msg 722 129 0;
#X msg 827 129 0;
#X msg 200 129 14;
#X msg 304 129 30;
#X msg 409 129 41;
#N canvas 261 197 450 300 start 0;
#X obj 108 88 loadbang;
#X obj 108 123 t b b b, f 14;
#X msg 203 157 1;
#X obj 155 161 bng 15 250 50 0 empty empty empty 17 7 0 10 #fcfcfc
#000000 #000000;
#X msg 108 158 0;
#X obj 108 202 outlet;
#X obj 182 202 outlet;
#X connect 0 0 1 0;
#X connect 1 0 4 0;
#X connect 1 1 3 0;
#X connect 1 2 2 0;
#X connect 2 0 5 0;
#X connect 3 0 6 0;
#X connect 4 0 5 0;
#X restore 147 74 pd start;
#X connect 0 0 20 0;
#X connect 2 0 1 0;
#X connect 4 0 16 0;
#X connect 5 0 26 0;
#X connect 6 0 41 0;
#X connect 7 0 40 0;
#X connect 8 0 63 0;
#X connect 9 0 37 0;
#X connect 11 0 22 0;
#X connect 15 0 17 1;
#X connect 16 0 24 0;
#X connect 17 0 23 0;
#X connect 18 0 17 0;
#X connect 19 0 15 0;
#X connect 20 0 19 0;
#X connect 22 0 30 0;
#X connect 23 0 31 0;
#X connect 23 0 2 0;
#X connect 24 0 20 1;
#X connect 25 0 20 2;
#X connect 26 0 27 0;
#X connect 27 0 25 0;
#X connect 28 0 23 1;
#X connect 29 0 28 0;
#X connect 30 0 29 0;
#X connect 32 0 31 0;
#X connect 33 0 32 0;
#X connect 33 0 61 0;
#X connect 34 0 33 0;
#X connect 37 0 61 1;
#X connect 38 0 40 1;
#X connect 39 0 34 0;
#X connect 40 0 39 0;
#X connect 41 0 2 1;
#X connect 42 0 57 0;
#X connect 42 1 57 1;
#X connect 43 0 0 0;
#X connect 44 0 56 0;
#X connect 45 0 59 0;
#X connect 46 0 4 0;
#X connect 47 0 5 0;
#X connect 48 0 11 0;
#X connect 49 0 10 0;
#X connect 50 0 7 0;
#X connect 51 0 8 0;
#X connect 52 0 9 0;
#X connect 53 0 6 0;
#X connect 54 0 53 1;
#X connect 55 0 70 0;
#X connect 55 1 71 0;
#X connect 55 2 72 0;
#X connect 55 3 60 0;
#X connect 55 4 67 0;
#X connect 55 5 68 0;
#X connect 55 6 69 0;
#X connect 55 7 54 0;
#X connect 56 0 46 0;
#X connect 56 1 47 0;
#X connect 56 2 48 0;
#X connect 56 3 49 0;
#X connect 56 4 50 0;
#X connect 56 5 51 0;
#X connect 56 6 52 0;
#X connect 56 7 53 0;
#X connect 57 0 66 0;
#X connect 59 0 44 0;
#X connect 60 0 49 1;
#X connect 61 0 2 0;
#X connect 63 0 32 1;
#X connect 64 0 0 0;
#X connect 65 0 55 0;
#X connect 66 0 64 0;
#X connect 66 1 64 0;
#X connect 66 2 65 0;
#X connect 67 0 50 1;
#X connect 68 0 51 1;
#X connect 69 0 52 1;
#X connect 70 0 46 1;
#X connect 71 0 47 1;
#X connect 72 0 48 1;
#X connect 73 0 44 0;
#X connect 73 1 55 0;
