#N canvas 401 25 879 747 12;
#X obj 63 169 notein 1;
#X obj 14 278 inlet;
#X text 449 148 Decay;
#X obj 63 196 pack 0 0;
#X obj 504 206 ==, f 4;
#X floatatom 324 151 4 0 0 0 - - - 0;
#X obj 452 240 pack 0 0;
#X floatatom 522 381 5 0 0 0 - - - 0;
#X obj 452 265 route 1;
#X obj 234 207 ==, f 4;
#X obj 182 241 pack 0 0;
#X floatatom 228 382 5 0 0 0 - - - 0;
#X obj 182 266 route 1;
#X obj 63 253 sel 127;
#X obj 371 685 outlet~;
#X obj 319 274 loadbang;
#X text 367 92 This allows the parameters of the HitHat to be changed
only if its selector switch has been presseds allows to modify;
#X obj 63 223 route 2 6;
#X obj 371 616 *~;
#X text 177 150 HPF cutoff;
#X obj 203 473 hip~;
#X obj 172 427 noise~;
#X obj 228 405 / 127;
#X obj 228 429 * 10000;
#X obj 541 532 vline~;
#X msg 600 479 1;
#X obj 469 479 pack 0 f;
#X obj 448 575 expr~ $v1*$v1;
#X obj 522 413 * 6, f 5;
#X obj 522 444 + 20;
#X obj 85 306 t b b b, f 74;
#X msg 238 353 85;
#X msg 532 352 13;
#X obj 324 96 inlet;
#X obj 181 166 ctlin 48;
#X obj 451 165 ctlin 49;
#X obj 717 231 ==, f 4;
#X obj 665 265 pack 0 0;
#X floatatom 665 366 5 0 0 0 - - - 0;
#X obj 665 290 route 1;
#X text 662 169 Volume;
#X msg 675 337 120;
#X obj 664 186 ctlin 55;
#X obj 371 657 *~;
#X obj 665 405 - 1;
#X obj 665 549 / 126;
#X connect 0 0 3 0;
#X connect 0 1 3 1;
#X connect 1 0 30 0;
#X connect 3 0 17 0;
#X connect 4 0 6 0;
#X connect 5 0 4 1;
#X connect 5 0 9 1;
#X connect 5 0 36 1;
#X connect 6 0 8 0;
#X connect 7 0 28 0;
#X connect 8 0 7 0;
#X connect 9 0 10 0;
#X connect 10 0 12 0;
#X connect 11 0 22 0;
#X connect 12 0 11 0;
#X connect 13 0 30 0;
#X connect 15 0 31 0;
#X connect 15 0 32 0;
#X connect 15 0 41 0;
#X connect 17 0 13 0;
#X connect 17 1 13 0;
#X connect 18 0 43 0;
#X connect 20 0 18 0;
#X connect 21 0 20 0;
#X connect 22 0 23 0;
#X connect 23 0 20 1;
#X connect 24 0 27 0;
#X connect 25 0 24 0;
#X connect 26 0 24 0;
#X connect 27 0 18 1;
#X connect 28 0 29 0;
#X connect 29 0 26 1;
#X connect 30 1 26 0;
#X connect 30 2 25 0;
#X connect 31 0 11 0;
#X connect 32 0 7 0;
#X connect 33 0 5 0;
#X connect 34 0 10 1;
#X connect 34 1 9 0;
#X connect 35 0 6 1;
#X connect 35 1 4 0;
#X connect 36 0 37 0;
#X connect 37 0 39 0;
#X connect 38 0 44 0;
#X connect 39 0 38 0;
#X connect 41 0 38 0;
#X connect 42 0 37 1;
#X connect 42 1 36 0;
#X connect 43 0 14 0;
#X connect 44 0 45 0;
#X connect 45 0 43 1;
