#N canvas 30 33 1239 739 12;
#X obj 66 229 bng 15 250 50 0 empty empty empty 17 7 0 10 #fcfcfc #000000
#000000;
#X obj 644 653 outlet~;
#X obj 644 624 *~, f 35;
#X text 893 205 Volume;
#X floatatom 154 223 6 0 0 0 - - - 0;
#X floatatom 258 226 5 0 0 0 - - - 0;
#X floatatom 886 226 5 0 0 0 - - - 0;
#X floatatom 572 226 5 0 0 0 - - - 0;
#X floatatom 676 226 5 0 0 0 - - - 0;
#X floatatom 781 226 5 0 0 0 - - - 0;
#X floatatom 467 226 5 0 0 0 - - - 0;
#X floatatom 363 226 5 0 0 0 - - - 0;
#X text 272 205 Decay;
#X text 161 205 Attack;
#X obj 154 251 / 127;
#X obj 82 428 *~, f 9;
#X obj 82 359 noise~;
#X obj 363 254 / 127;
#X obj 337 497 hip~;
#X obj 154 280 * 30;
#X obj 258 312 + 30, f 5;
#X obj 258 254 / 127;
#X obj 258 283 * 200;
#X floatatom 363 341 8 0 0 0 - - - 0;
#X obj 363 312 + 3000;
#X obj 363 283 * 15000;
#X obj 66 20 notein 1, f 10;
#X obj 21 20 inlet;
#X floatatom 154 130 4 0 0 0 - - - 0;
#X obj 154 20 inlet mod;
#X obj 154 187 ctrl 48;
#X obj 258 187 ctrl 49;
#X obj 363 187 ctrl 50;
#X obj 467 187 ctrl 51;
#X obj 572 187 ctrl 52;
#X obj 676 187 ctrl 53;
#X obj 781 187 ctrl 54;
#X obj 886 187 ctrl 55;
#X msg 932 129 127;
#X obj 200 99 t b b b b b b b b, f 105;
#X obj 154 158 t f f f f f f f f, f 105;
#X obj 66 104 pack f f;
#X text 227 12 This allows the parameters of the hithat to be changed
only if its selector switch has been pressed. They can be restored
to the default values by pressing SHIFT, f 99;
#X obj 154 49 == 3;
#X msg 513 129 0;
#X obj 28 159 sel 127;
#X obj 91 159 sel 127;
#X obj 28 130 route 2 6 98;
#X msg 618 129 0;
#X msg 722 129 0;
#X msg 827 129 0;
#X msg 200 129 14;
#X msg 304 129 30;
#X msg 409 129 41;
#N canvas 261 197 450 300 start 0;
#X obj 108 88 loadbang;
#X obj 108 123 t b b b, f 14;
#X msg 203 157 1;
#X obj 155 161 bng 15 250 50 0 empty empty empty 17 7 0 10 #fcfcfc
#000000 #000000;
#X msg 108 158 0;
#X obj 108 202 outlet;
#X obj 182 202 outlet;
#X connect 0 0 1 0;
#X connect 1 0 4 0;
#X connect 1 1 3 0;
#X connect 1 2 2 0;
#X connect 2 0 5 0;
#X connect 3 0 6 0;
#X connect 4 0 5 0;
#X restore 147 74 pd start;
#X obj 886 257 / 250;
#X obj 142 359 ../envAR, f 17;
#X obj 142 388 pow~ 4;
#X obj 886 589 vline~;
#X msg 886 560 \$1 5;
#X text 373 205 Hp freq;
#X text 474 205 Random;
#X obj 467 249 / 127;
#X obj 489 278 random 100;
#X obj 467 374 *, f 8;
#X obj 489 350 t b f;
#X obj 489 302 / 100;
#X obj 489 326 - 0.5;
#X obj 467 398 sig~, f 5;
#X obj 435 537 *~, f 5;
#X connect 0 0 56 0;
#X connect 0 0 63 0;
#X connect 2 0 1 0;
#X connect 4 0 14 0;
#X connect 5 0 21 0;
#X connect 6 0 55 0;
#X connect 10 0 62 0;
#X connect 11 0 17 0;
#X connect 14 0 19 0;
#X connect 15 0 18 0;
#X connect 16 0 15 0;
#X connect 17 0 25 0;
#X connect 18 0 69 0;
#X connect 19 0 56 1;
#X connect 20 0 56 2;
#X connect 21 0 22 0;
#X connect 22 0 20 0;
#X connect 23 0 18 1;
#X connect 24 0 23 0;
#X connect 25 0 24 0;
#X connect 26 0 41 0;
#X connect 26 1 41 1;
#X connect 27 0 0 0;
#X connect 28 0 40 0;
#X connect 29 0 43 0;
#X connect 30 0 4 0;
#X connect 31 0 5 0;
#X connect 32 0 11 0;
#X connect 33 0 10 0;
#X connect 34 0 7 0;
#X connect 35 0 8 0;
#X connect 36 0 9 0;
#X connect 37 0 6 0;
#X connect 38 0 37 1;
#X connect 39 0 51 0;
#X connect 39 1 52 0;
#X connect 39 2 53 0;
#X connect 39 3 44 0;
#X connect 39 4 48 0;
#X connect 39 5 49 0;
#X connect 39 6 50 0;
#X connect 39 7 38 0;
#X connect 40 0 30 0;
#X connect 40 1 31 0;
#X connect 40 2 32 0;
#X connect 40 3 33 0;
#X connect 40 4 34 0;
#X connect 40 5 35 0;
#X connect 40 6 36 0;
#X connect 40 7 37 0;
#X connect 41 0 47 0;
#X connect 43 0 28 0;
#X connect 44 0 33 1;
#X connect 45 0 0 0;
#X connect 46 0 39 0;
#X connect 47 0 45 0;
#X connect 47 1 45 0;
#X connect 47 2 46 0;
#X connect 48 0 34 1;
#X connect 49 0 35 1;
#X connect 50 0 36 1;
#X connect 51 0 30 1;
#X connect 52 0 31 1;
#X connect 53 0 32 1;
#X connect 54 0 28 0;
#X connect 54 1 39 0;
#X connect 55 0 59 0;
#X connect 56 0 57 0;
#X connect 57 0 15 1;
#X connect 58 0 2 1;
#X connect 59 0 58 0;
#X connect 62 0 64 0;
#X connect 63 0 66 0;
#X connect 64 0 68 0;
#X connect 65 0 64 0;
#X connect 65 1 64 1;
#X connect 66 0 67 0;
#X connect 67 0 65 0;
#X connect 68 0 69 1;
#X connect 69 0 2 0;
