#N canvas 30 33 1239 739 12;
#X obj 96 270 bng 15 250 50 0 empty empty empty 17 7 0 10 #fcfcfc #000000
#000000;
#X obj 644 653 outlet~;
#X obj 644 624 *~, f 35;
#X text 893 205 Volume;
#X floatatom 154 223 6 0 0 0 - - - 0;
#X floatatom 258 226 5 0 0 0 - - - 0;
#X floatatom 886 226 5 0 0 0 - - - 0;
#X floatatom 572 226 5 0 0 0 - - - 0;
#X floatatom 676 226 5 0 0 0 - - - 0;
#X floatatom 781 226 5 0 0 0 - - - 0;
#X floatatom 467 226 5 0 0 0 - - - 0;
#X floatatom 363 226 5 0 0 0 - - - 0;
#X text 268 205 Decay;
#X text 165 205 Attack;
#X obj 154 251 / 127;
#X obj 174 423 noise~;
#X obj 363 254 / 127;
#X obj 154 280 * 30;
#X obj 258 254 / 127;
#X obj 66 20 notein 1, f 10;
#X obj 21 20 inlet;
#X floatatom 154 130 4 0 0 0 - - - 0;
#X obj 154 20 inlet mod;
#X obj 154 187 ctrl 48;
#X obj 258 187 ctrl 49;
#X obj 363 187 ctrl 50;
#X obj 467 187 ctrl 51;
#X obj 572 187 ctrl 52;
#X obj 676 187 ctrl 53;
#X obj 781 187 ctrl 54;
#X obj 886 187 ctrl 55;
#X msg 932 129 127;
#X obj 200 99 t b b b b b b b b, f 105;
#X obj 154 158 t f f f f f f f f, f 105;
#X obj 66 104 pack f f;
#X text 227 12 This allows the parameters of the hithat to be changed
only if its selector switch has been pressed. They can be restored
to the default values by pressing SHIFT, f 99;
#X obj 154 49 == 3;
#X msg 513 129 0;
#X obj 28 159 sel 127;
#X obj 91 159 sel 127;
#X obj 28 130 route 2 6 98;
#X msg 618 129 0;
#X msg 722 129 0;
#X msg 827 129 0;
#X msg 304 129 30;
#N canvas 261 197 450 300 start 0;
#X obj 108 88 loadbang;
#X obj 108 123 t b b b, f 14;
#X msg 203 157 1;
#X obj 155 161 bng 15 250 50 0 empty empty empty 17 7 0 10 #fcfcfc
#000000 #000000;
#X msg 108 158 0;
#X obj 108 202 outlet;
#X obj 182 202 outlet;
#X connect 0 0 1 0;
#X connect 1 0 4 0;
#X connect 1 1 3 0;
#X connect 1 2 2 0;
#X connect 2 0 5 0;
#X connect 3 0 6 0;
#X connect 4 0 5 0;
#X restore 147 74 pd start;
#X obj 100 394 ../envAR, f 23;
#X obj 100 423 pow~ 4;
#X obj 886 589 vline~;
#X msg 886 560 \$1 5;
#X text 374 205 Hp freq;
#X text 477 205 Rdm amt;
#X text 582 205 Rdm seed;
#N canvas 194 138 1040 551 randomSeq 0;
#X msg 75 149 seed \$1;
#X obj 47 62 inlet step;
#X obj 47 129 bng 15 250 50 0 empty empty empty 17 7 0 10 #fcfcfc #000000
#000000;
#X obj 75 265 outlet;
#X obj 154 62 inlet seed;
#X obj 75 120 f 57, f 8;
#X obj 75 236 + 0.1;
#X obj 75 178 random 9;
#X obj 75 207 / 10;
#X obj 154 86 * 10;
#X obj 75 91 sel 0 31;
#X connect 0 0 7 0;
#X connect 1 0 2 0;
#X connect 1 0 10 0;
#X connect 2 0 7 0;
#X connect 4 0 9 0;
#X connect 5 0 0 0;
#X connect 6 0 3 0;
#X connect 7 0 8 0;
#X connect 8 0 6 0;
#X connect 9 0 5 1;
#X connect 10 0 5 0;
#X connect 10 1 5 0;
#X restore 516 283 pd randomSeq;
#X obj 516 259 inlet step;
#X obj 467 249 / 127;
#X obj 100 452 *~, f 11;
#X obj 338 530 hip~;
#X obj 363 323 * 10000;
#X floatatom 516 307 5 0 0 0 - - - 0;
#X obj 467 273 t b f;
#X obj 467 312 *, f 5;
#X obj 309 307 + 50;
#X obj 258 370 +, f 5;
#X obj 258 307 t b f;
#X obj 363 381 t b f;
#X floatatom 378 491 10 0 0 0 - - - 0;
#X obj 363 352 + 4000;
#X msg 467 336 1 \$1;
#X obj 467 360 -;
#X obj 363 450 *, f 5;
#X floatatom 268 395 8 0 0 0 - - - 0;
#X floatatom 493 412 5 0 0 0 - - - 0;
#X obj 258 283 * 500;
#X obj 886 257 / 150;
#X msg 200 129 15;
#X msg 409 129 50;
#X obj 309 283 * 400;
#X connect 0 0 46 0;
#X connect 2 0 1 0;
#X connect 4 0 14 0;
#X connect 5 0 18 0;
#X connect 6 0 74 0;
#X connect 7 0 53 1;
#X connect 10 0 55 0;
#X connect 11 0 16 0;
#X connect 14 0 17 0;
#X connect 15 0 56 1;
#X connect 16 0 58 0;
#X connect 17 0 46 1;
#X connect 18 0 73 0;
#X connect 19 0 34 0;
#X connect 19 1 34 1;
#X connect 20 0 0 0;
#X connect 21 0 33 0;
#X connect 22 0 36 0;
#X connect 23 0 4 0;
#X connect 24 0 5 0;
#X connect 25 0 11 0;
#X connect 26 0 10 0;
#X connect 27 0 7 0;
#X connect 28 0 8 0;
#X connect 29 0 9 0;
#X connect 30 0 6 0;
#X connect 31 0 30 1;
#X connect 32 0 75 0;
#X connect 32 1 44 0;
#X connect 32 2 76 0;
#X connect 32 3 37 0;
#X connect 32 4 41 0;
#X connect 32 5 42 0;
#X connect 32 6 43 0;
#X connect 32 7 31 0;
#X connect 33 0 23 0;
#X connect 33 1 24 0;
#X connect 33 2 25 0;
#X connect 33 3 26 0;
#X connect 33 4 27 0;
#X connect 33 5 28 0;
#X connect 33 6 29 0;
#X connect 33 7 30 0;
#X connect 34 0 40 0;
#X connect 36 0 21 0;
#X connect 37 0 26 1;
#X connect 38 0 0 0;
#X connect 39 0 32 0;
#X connect 40 0 38 0;
#X connect 40 1 38 0;
#X connect 40 2 39 0;
#X connect 41 0 27 1;
#X connect 42 0 28 1;
#X connect 43 0 29 1;
#X connect 44 0 24 1;
#X connect 45 0 21 0;
#X connect 45 1 32 0;
#X connect 46 0 47 0;
#X connect 47 0 56 0;
#X connect 48 0 2 1;
#X connect 49 0 48 0;
#X connect 53 0 59 0;
#X connect 53 0 61 0;
#X connect 54 0 53 0;
#X connect 55 0 60 0;
#X connect 56 0 57 0;
#X connect 57 0 2 0;
#X connect 58 0 67 0;
#X connect 60 0 61 0;
#X connect 60 1 61 1;
#X connect 61 0 68 0;
#X connect 61 0 77 0;
#X connect 62 0 63 0;
#X connect 63 0 46 2;
#X connect 63 0 71 0;
#X connect 64 0 63 0;
#X connect 64 1 63 1;
#X connect 65 0 70 0;
#X connect 65 1 70 1;
#X connect 67 0 65 0;
#X connect 68 0 69 0;
#X connect 69 0 70 0;
#X connect 69 0 72 0;
#X connect 70 0 66 0;
#X connect 70 0 57 1;
#X connect 73 0 64 0;
#X connect 74 0 49 0;
#X connect 75 0 23 1;
#X connect 76 0 25 1;
#X connect 77 0 62 0;
