#N canvas 212 25 1064 747 12;
#X obj 61 13 notein 1;
#X obj 46 208 inlet;
#X obj 61 38 pack 0 0;
#X floatatom 194 169 4 0 0 0 - - - 0;
#X obj 91 249 bng 15 250 50 0 empty empty empty 17 7 0 10 #fcfcfc #000000
#000000;
#X obj 91 207 sel 127;
#X obj 454 711 outlet~;
#X obj 454 645 *~;
#X text 929 225 Volume;
#X msg 968 158 120;
#X obj 194 40 inlet mod;
#X floatatom 194 243 6 0 0 0 - - - 0;
#X floatatom 298 246 5 0 0 0 - - - 0;
#X floatatom 922 246 5 0 0 0 - - - 0;
#X obj 968 119 sel 127;
#X obj 968 90 route 98;
#X text 607 67 Reset to default values by pressing SHIFT, f 42;
#X floatatom 610 246 5 0 0 0 - - - 0;
#X floatatom 714 246 5 0 0 0 - - - 0;
#X text 728 225 TO DO;
#X floatatom 818 246 5 0 0 0 - - - 0;
#X msg 656 158 0;
#X msg 760 158 0;
#X msg 864 158 0;
#X msg 552 158 100;
#X obj 194 207 ctrl 48;
#X obj 298 207 ctrl 49;
#X obj 402 207 ctrl 50;
#X obj 506 207 ctrl 51;
#X obj 610 207 ctrl 52;
#X obj 714 207 ctrl 53;
#X obj 818 207 ctrl 54;
#X obj 922 207 ctrl 55;
#X obj 922 530 / 127;
#X obj 194 114 tgl 15 0 empty empty empty 17 7 0 10 #fcfcfc #000000
#000000 0 1;
#X floatatom 506 246 5 0 0 0 - - - 0;
#X floatatom 402 246 5 0 0 0 - - - 0;
#X obj 905 38 loadbang;
#X msg 905 66 127;
#X msg 448 158 10;
#X obj 61 63 route 2 6;
#X text 312 225 Decay;
#X msg 240 158 85;
#X msg 344 158 13;
#X text 624 225 TO DO;
#X text 520 225 TO DO;
#X text 268 29 This allows the parameters of the HitHat to be changed
only if its selector switch has been pressed., f 36;
#X text 201 225 Attack;
#X obj 194 422 vline~;
#X obj 194 266 / 127;
#X obj 176 475 *~;
#X obj 138 393 noise~;
#X msg 194 393 1 \$2 \, 0 \$3 \$2;
#X obj 194 364 pack f f f;
#X text 413 225 HPF cutoff;
#X obj 402 269 / 127;
#X obj 370 566 hip~;
#X obj 194 290 * 30;
#X obj 298 317 + 30, f 5;
#X obj 298 269 / 127;
#X obj 298 293 * 200;
#X obj 402 293 * 5000;
#X obj 298 341 * 20;
#X floatatom 298 395 5 0 0 0 - - - 0;
#X obj 348 365 t b f;
#X obj 395 503 -;
#X floatatom 419 529 9 0 0 0 - - - 0;
#X obj 402 317 + 7600;
#X obj 818 269 / 127;
#X obj 800 686 *~;
#X obj 800 711 outlet~ toFX;
#X text 832 225 To FX;
#X connect 0 0 2 0;
#X connect 0 1 2 1;
#X connect 1 0 4 0;
#X connect 2 0 40 0;
#X connect 3 0 25 0;
#X connect 3 0 26 0;
#X connect 3 0 27 0;
#X connect 3 0 28 0;
#X connect 3 0 32 0;
#X connect 3 0 29 0;
#X connect 3 0 30 0;
#X connect 3 0 31 0;
#X connect 4 0 53 0;
#X connect 5 0 4 0;
#X connect 7 0 6 0;
#X connect 7 0 69 0;
#X connect 9 0 32 1;
#X connect 10 0 34 0;
#X connect 11 0 49 0;
#X connect 12 0 59 0;
#X connect 13 0 33 0;
#X connect 14 0 9 0;
#X connect 14 0 24 0;
#X connect 14 0 39 0;
#X connect 14 0 43 0;
#X connect 14 0 42 0;
#X connect 14 0 23 0;
#X connect 14 0 22 0;
#X connect 14 0 21 0;
#X connect 15 0 14 0;
#X connect 20 0 68 0;
#X connect 21 0 29 1;
#X connect 22 0 30 1;
#X connect 23 0 31 1;
#X connect 24 0 28 1;
#X connect 25 0 11 0;
#X connect 26 0 12 0;
#X connect 27 0 36 0;
#X connect 28 0 35 0;
#X connect 29 0 17 0;
#X connect 30 0 18 0;
#X connect 31 0 20 0;
#X connect 32 0 13 0;
#X connect 33 0 7 1;
#X connect 34 0 3 0;
#X connect 36 0 55 0;
#X connect 37 0 38 0;
#X connect 38 0 14 0;
#X connect 39 0 27 1;
#X connect 40 0 5 0;
#X connect 40 1 5 0;
#X connect 40 2 15 0;
#X connect 42 0 25 1;
#X connect 43 0 26 1;
#X connect 48 0 50 1;
#X connect 49 0 57 0;
#X connect 50 0 56 0;
#X connect 51 0 50 0;
#X connect 52 0 48 0;
#X connect 53 0 52 0;
#X connect 55 0 61 0;
#X connect 56 0 7 0;
#X connect 57 0 53 1;
#X connect 58 0 53 2;
#X connect 58 0 62 0;
#X connect 59 0 60 0;
#X connect 60 0 58 0;
#X connect 61 0 67 0;
#X connect 62 0 63 0;
#X connect 62 0 64 0;
#X connect 64 0 65 0;
#X connect 64 1 65 1;
#X connect 65 0 66 0;
#X connect 65 0 56 1;
#X connect 67 0 65 0;
#X connect 68 0 69 1;
#X connect 69 0 70 0;
