#N canvas 0 25 1204 679 12;
#X obj 55 17 notein 1, f 10;
#X obj 10 17 inlet;
#X text 470 214 Decay;
#X floatatom 143 139 4 0 0 0 - - - 0;
#X obj 55 238 bng 15 250 50 0 empty empty empty 17 7 0 10 #fcfcfc #000000
#000000;
#X obj 430 614 *~, f 64;
#X text 886 214 Volume;
#X obj 143 17 inlet mod;
#X floatatom 143 235 5 0 0 0 - - - 0;
#X floatatom 247 235 5 0 0 0 - - - 0;
#X floatatom 352 235 5 0 0 0 - - - 0;
#X floatatom 456 235 5 0 0 0 - - - 0;
#X floatatom 875 235 5 0 0 0 - - - 0;
#X floatatom 561 235 5 0 0 0 - - - 0;
#X floatatom 665 235 5 0 0 0 - - - 0;
#X floatatom 770 235 5 0 0 0 - - - 0;
#X obj 143 196 ctrl 48;
#X obj 247 196 ctrl 49;
#X obj 352 196 ctrl 50;
#X obj 456 196 ctrl 51;
#X obj 561 196 ctrl 52;
#X obj 665 196 ctrl 53;
#X obj 770 196 ctrl 54;
#X obj 875 196 ctrl 55;
#X obj 875 311 vline~;
#X msg 875 287 \$1 5;
#X msg 921 138 127;
#X obj 143 46 == 1;
#X obj 189 108 t b b b b b b b b, f 105;
#X obj 143 167 t f f f f f f f f, f 105;
#X text 216 9 This allows the parameters of the kick to be changed
only if its selector switch has been pressed. They can be restored
to the default values by pressing SHIFT, f 99;
#X obj 55 108 pack f f, f 10;
#X text 157 214 Pitch;
#X text 268 214 Tone;
#X text 359 214 Attack;
#X text 568 214 LPfreq;
#X msg 607 138 127;
#X obj 430 643 outlet~ OUT;
#X obj 143 258 / 127;
#X text 679 214 Drive;
#X obj 13 137 route 0 4 98;
#X obj 13 166 sel 127;
#X obj 76 166 sel 127;
#X msg 816 138 30;
#N canvas 261 197 450 300 start 0;
#X obj 108 88 loadbang;
#X obj 108 123 t b b b, f 14;
#X msg 203 157 1;
#X obj 155 161 bng 15 250 50 0 empty empty empty 17 7 0 10 #fcfcfc
#000000 #000000;
#X msg 108 158 0;
#X obj 108 202 outlet;
#X obj 182 202 outlet;
#X connect 0 0 1 0;
#X connect 1 0 4 0;
#X connect 1 1 3 0;
#X connect 1 2 2 0;
#X connect 2 0 5 0;
#X connect 3 0 6 0;
#X connect 4 0 5 0;
#X restore 153 75 pd start;
#X obj 143 508 osc~, f 6;
#X obj 143 354 sig~, f 5;
#X obj 143 484 *~;
#X obj 308 518 *~, f 11;
#X obj 382 343 t b b, f 24;
#X msg 182 483 0;
#X obj 456 282 + 200;
#X obj 352 306 + 1, f 5;
#X obj 55 338 t b b;
#X obj 382 426 pow~ 4;
#X obj 382 372 ../envAR 1 400;
#X obj 522 485 lop~, f 6;
#X obj 143 306 + 40, f 5;
#X obj 143 282 * 30, f 5;
#X obj 161 458 +~ 1;
#X obj 456 258 * 6, f 5;
#X obj 308 441 noise~;
#X obj 143 532 *~ 2, f 6;
#X obj 875 263 / 50;
#X obj 308 465 lop~ 200;
#X obj 308 489 pow~ 2.3;
#X obj 161 380 ../envAR 5 60;
#X obj 561 258 / 127;
#X obj 561 306 + 400;
#X obj 561 282 * 10000;
#X obj 626 552 *~, f 6;
#X obj 665 258 / 127;
#X obj 665 282 sig~;
#X obj 626 515 clip~ -0.7 0.6;
#X msg 189 138 65;
#X msg 293 138 41;
#X obj 161 404 *~, f 19;
#X obj 161 428 pow~ 2;
#X obj 352 258 / 63;
#X obj 247 258 + 1;
#X msg 398 138 40;
#X msg 502 138 58;
#X msg 711 138 35;
#X connect 0 0 31 0;
#X connect 0 1 31 1;
#X connect 1 0 4 0;
#X connect 3 0 29 0;
#X connect 4 0 49 0;
#X connect 4 0 53 0;
#X connect 5 0 37 0;
#X connect 7 0 27 0;
#X connect 8 0 38 0;
#X connect 9 0 79 0;
#X connect 10 0 78 0;
#X connect 11 0 60 0;
#X connect 12 0 63 0;
#X connect 13 0 67 0;
#X connect 14 0 71 0;
#X connect 16 0 8 0;
#X connect 17 0 9 0;
#X connect 18 0 10 0;
#X connect 19 0 11 0;
#X connect 20 0 13 0;
#X connect 21 0 14 0;
#X connect 22 0 15 0;
#X connect 23 0 12 0;
#X connect 24 0 5 1;
#X connect 25 0 24 0;
#X connect 26 0 23 1;
#X connect 27 0 3 0;
#X connect 28 0 74 0;
#X connect 28 1 75 0;
#X connect 28 2 80 0;
#X connect 28 3 81 0;
#X connect 28 4 36 0;
#X connect 28 5 82 0;
#X connect 28 6 43 0;
#X connect 28 7 26 0;
#X connect 29 0 16 0;
#X connect 29 1 17 0;
#X connect 29 2 18 0;
#X connect 29 3 19 0;
#X connect 29 4 20 0;
#X connect 29 5 21 0;
#X connect 29 6 22 0;
#X connect 29 7 23 0;
#X connect 31 0 40 0;
#X connect 36 0 20 1;
#X connect 38 0 58 0;
#X connect 40 0 41 0;
#X connect 40 1 41 0;
#X connect 40 2 42 0;
#X connect 41 0 4 0;
#X connect 42 0 28 0;
#X connect 43 0 22 1;
#X connect 44 0 3 0;
#X connect 44 1 28 0;
#X connect 45 0 62 0;
#X connect 46 0 47 0;
#X connect 47 0 45 0;
#X connect 48 0 56 0;
#X connect 49 0 55 0;
#X connect 50 0 45 1;
#X connect 51 0 55 2;
#X connect 52 0 76 1;
#X connect 53 0 50 0;
#X connect 53 1 66 0;
#X connect 54 0 48 1;
#X connect 55 0 54 0;
#X connect 56 0 5 0;
#X connect 56 0 73 0;
#X connect 57 0 46 0;
#X connect 58 0 57 0;
#X connect 59 0 47 1;
#X connect 60 0 51 0;
#X connect 61 0 64 0;
#X connect 62 0 48 0;
#X connect 63 0 25 0;
#X connect 64 0 65 0;
#X connect 65 0 48 0;
#X connect 66 0 76 0;
#X connect 67 0 69 0;
#X connect 68 0 56 1;
#X connect 69 0 68 0;
#X connect 70 0 5 0;
#X connect 71 0 72 0;
#X connect 72 0 70 1;
#X connect 73 0 70 0;
#X connect 74 0 16 1;
#X connect 75 0 17 1;
#X connect 76 0 77 0;
#X connect 77 0 59 0;
#X connect 78 0 52 0;
#X connect 79 0 66 2;
#X connect 80 0 18 1;
#X connect 81 0 19 1;
#X connect 82 0 21 1;
