#N canvas 0 25 1280 747 12;
#X obj 40 8 notein 1;
#X obj 10 194 inlet;
#X text 361 320 Decay;
#X text 154 320 Tune;
#X obj 40 33 pack 0 0;
#X floatatom 143 264 4 0 0 0 - - - 0;
#X obj 143 535 vline~;
#X obj 289 629 bob~, f 9;
#X floatatom 419 594 10 0 0 0 - - - 0;
#X floatatom 491 594 9 0 0 0 - - - 0;
#X text 258 320 Attack, f 7;
#X obj 289 593 *~;
#X obj 307 490 vline~;
#X obj 174 560 osc~;
#X msg 199 535 0;
#X obj 40 58 route 0 4;
#X obj 55 316 bng 15 250 50 0 empty empty empty 17 7 0 10 #fcfcfc #000000
#000000;
#X obj 55 193 sel 127;
#X msg 76 421 1;
#X obj 307 434 pack 0 100 20;
#X obj 351 409 * 4;
#X msg 57 485 120;
#X obj 505 696 outlet~;
#X obj 505 670 *~;
#X text 882 320 Volume;
#X msg 917 253 120;
#X obj 143 97 inlet mod;
#X floatatom 143 341 5 0 0 0 - - - 0;
#X floatatom 247 341 5 0 0 0 - - - 0;
#X floatatom 351 341 5 0 0 0 - - - 0;
#X floatatom 455 341 5 0 0 0 - - - 0;
#X floatatom 871 341 5 0 0 0 - - - 0;
#X text 465 320 LP Filter;
#X text 429 450 Cutoff;
#X text 501 433 Resonance;
#X obj 455 364 / 127;
#X obj 491 408 + 0.5;
#X obj 419 408 * 9800;
#X obj 419 432 + 200;
#X obj 917 194 sel 127;
#X obj 917 58 route 98;
#X text 985 49 Reset to default values by pressing SHIFT, f 17;
#X floatatom 559 341 5 0 0 0 - - - 0;
#X text 570 320 TO DO;
#X floatatom 663 341 5 0 0 0 - - - 0;
#X text 674 320 TO DO;
#X floatatom 767 341 5 0 0 0 - - - 0;
#X text 778 320 TO DO;
#X msg 605 253 0;
#X msg 709 253 0;
#X msg 813 253 0;
#X text 145 115 This allows the parameters of the kick to be changed
only if its selector switch has been pressed., f 31;
#X obj 143 403 pack f f;
#X obj 247 365 * 2;
#X msg 501 253 100;
#X msg 397 253 50;
#X msg 293 253 90;
#X msg 189 253 50;
#X obj 143 302 ctrl 48;
#X obj 247 302 ctrl 49;
#X obj 351 302 ctrl 50;
#X obj 455 302 ctrl 51;
#X obj 559 302 ctrl 52;
#X obj 663 302 ctrl 53;
#X obj 767 302 ctrl 54;
#X obj 871 302 ctrl 55;
#X obj 871 615 / 127;
#X obj 143 220 tgl 15 0 empty empty empty 17 7 0 10 #fcfcfc #000000
#000000 0 1;
#X obj 928 137 loadbang;
#X msg 928 165 127;
#X connect 0 0 4 0;
#X connect 0 1 4 1;
#X connect 1 0 16 0;
#X connect 4 0 15 0;
#X connect 5 0 60 0;
#X connect 5 0 58 0;
#X connect 5 0 59 0;
#X connect 5 0 61 0;
#X connect 5 0 62 0;
#X connect 5 0 63 0;
#X connect 5 0 64 0;
#X connect 5 0 65 0;
#X connect 6 0 13 0;
#X connect 7 0 23 0;
#X connect 8 0 7 1;
#X connect 9 0 7 2;
#X connect 11 0 7 0;
#X connect 12 0 11 1;
#X connect 13 0 11 0;
#X connect 14 0 13 1;
#X connect 15 0 17 0;
#X connect 15 1 17 0;
#X connect 15 2 40 0;
#X connect 16 0 14 0;
#X connect 16 0 18 0;
#X connect 16 0 19 0;
#X connect 16 0 21 0;
#X connect 16 0 52 0;
#X connect 17 0 16 0;
#X connect 18 0 12 0;
#X connect 19 0 12 0;
#X connect 20 0 19 1;
#X connect 21 0 6 0;
#X connect 23 0 22 0;
#X connect 25 0 65 1;
#X connect 26 0 67 0;
#X connect 27 0 52 0;
#X connect 28 0 53 0;
#X connect 29 0 20 0;
#X connect 30 0 35 0;
#X connect 31 0 66 0;
#X connect 35 0 36 0;
#X connect 35 0 37 0;
#X connect 36 0 9 0;
#X connect 37 0 38 0;
#X connect 38 0 8 0;
#X connect 39 0 25 0;
#X connect 39 0 54 0;
#X connect 39 0 55 0;
#X connect 39 0 56 0;
#X connect 39 0 57 0;
#X connect 39 0 50 0;
#X connect 39 0 49 0;
#X connect 39 0 48 0;
#X connect 40 0 39 0;
#X connect 48 0 62 1;
#X connect 49 0 63 1;
#X connect 50 0 64 1;
#X connect 52 0 6 0;
#X connect 53 0 52 1;
#X connect 54 0 61 1;
#X connect 55 0 60 1;
#X connect 56 0 59 1;
#X connect 57 0 58 1;
#X connect 58 0 27 0;
#X connect 59 0 28 0;
#X connect 60 0 29 0;
#X connect 61 0 30 0;
#X connect 62 0 42 0;
#X connect 63 0 44 0;
#X connect 64 0 46 0;
#X connect 65 0 31 0;
#X connect 66 0 23 1;
#X connect 67 0 5 0;
#X connect 68 0 69 0;
#X connect 69 0 39 0;
