#N canvas 74 53 988 679 12;
#X obj 55 17 notein 1, f 10;
#X obj 10 17 inlet;
#X text 470 214 Decay;
#X floatatom 143 139 4 0 0 0 - - - 0;
#X obj 55 238 bng 15 250 50 0 empty empty empty 17 7 0 10 #fcfcfc #000000
#000000;
#X obj 430 604 *~, f 64;
#X text 886 214 Volume;
#X obj 143 17 inlet mod;
#X floatatom 143 235 5 0 0 0 - - - 0;
#X floatatom 247 235 5 0 0 0 - - - 0;
#X floatatom 352 235 5 0 0 0 - - - 0;
#X floatatom 456 235 5 0 0 0 - - - 0;
#X floatatom 875 235 5 0 0 0 - - - 0;
#X floatatom 561 235 5 0 0 0 - - - 0;
#X floatatom 665 235 5 0 0 0 - - - 0;
#X floatatom 770 235 5 0 0 0 - - - 0;
#X msg 711 138 0;
#X obj 143 196 ctrl 48;
#X obj 247 196 ctrl 49;
#X obj 352 196 ctrl 50;
#X obj 456 196 ctrl 51;
#X obj 561 196 ctrl 52;
#X obj 665 196 ctrl 53;
#X obj 770 196 ctrl 54;
#X obj 875 196 ctrl 55;
#X obj 875 311 vline~;
#X msg 875 287 \$1 5;
#X msg 921 138 127;
#X obj 143 46 == 1;
#X obj 189 108 t b b b b b b b b, f 105;
#X obj 143 167 t f f f f f f f f, f 105;
#X text 216 9 This allows the parameters of the kick to be changed
only if its selector switch has been pressed. They can be restored
to the default values by pressing SHIFT, f 99;
#X obj 55 108 pack f f, f 10;
#X text 157 214 Pitch;
#X text 268 214 Tone;
#X text 359 214 Attack;
#X text 568 214 LPfreq;
#X msg 607 138 127;
#X obj 430 633 outlet~ OUT;
#X obj 143 258 / 127;
#X floatatom 163 325 5 0 0 0 - - - 0;
#X obj 352 258 / 127;
#X obj 55 353 t b b b, f 40;
#X obj 143 518 osc~ 50;
#X obj 143 479 *~ 1, f 6;
#X obj 354 406 pow~ 5;
#X obj 280 557 *~, f 11;
#X obj 193 420 +~ 1;
#X obj 143 282 * 60, f 5;
#X obj 456 258 / 127;
#X msg 55 456 0;
#X obj 352 282 * 300;
#X obj 193 450 pow~;
#X obj 456 306 + 300;
#X obj 561 258 / 127;
#X obj 561 282 * 1500;
#X text 679 214 Drive;
#X obj 561 306 + 200;
#X obj 665 283 + 1;
#X obj 665 259 / 64;
#X obj 352 306 + 50;
#X obj 247 420 * 2, f 5;
#X obj 143 306 + 20, f 5;
#X obj 875 263 / 64;
#X obj 430 551 expr~ tanh($v1*(1+$f2)), f 34;
#X obj 247 258 / 127;
#X obj 247 282 + 1, f 5;
#X obj 13 137 route 0 4 98;
#X obj 13 166 sel 127;
#X obj 76 166 sel 127;
#X obj 456 282 * 1000;
#X msg 189 138 19;
#X msg 293 138 35;
#X msg 398 138 73;
#X msg 502 138 120;
#X msg 816 138 30;
#X obj 430 527 lop~, f 19;
#X obj 430 575 *~, f 49;
#X obj 770 258 / 127;
#N canvas 261 197 450 300 start 0;
#X obj 108 88 loadbang;
#X obj 108 123 t b b b, f 14;
#X msg 203 157 1;
#X obj 155 161 bng 15 250 50 0 empty empty empty 17 7 0 10 #fcfcfc
#000000 #000000;
#X msg 108 158 0;
#X obj 108 202 outlet;
#X obj 182 202 outlet;
#X connect 0 0 1 0;
#X connect 1 0 4 0;
#X connect 1 1 3 0;
#X connect 1 2 2 0;
#X connect 2 0 5 0;
#X connect 3 0 6 0;
#X connect 4 0 5 0;
#X restore 153 75 pd start;
#X obj 405 348 f 1;
#X obj 193 391 ../envAR, f 15;
#X obj 354 377 ../envAR, f 15;
#X connect 0 0 32 0;
#X connect 0 1 32 1;
#X connect 1 0 4 0;
#X connect 3 0 30 0;
#X connect 4 0 42 0;
#X connect 5 0 38 0;
#X connect 7 0 28 0;
#X connect 8 0 39 0;
#X connect 9 0 65 0;
#X connect 10 0 41 0;
#X connect 11 0 49 0;
#X connect 12 0 63 0;
#X connect 13 0 54 0;
#X connect 14 0 59 0;
#X connect 15 0 78 0;
#X connect 16 0 22 1;
#X connect 17 0 8 0;
#X connect 18 0 9 0;
#X connect 19 0 10 0;
#X connect 20 0 11 0;
#X connect 21 0 13 0;
#X connect 22 0 14 0;
#X connect 23 0 15 0;
#X connect 24 0 12 0;
#X connect 25 0 5 1;
#X connect 26 0 25 0;
#X connect 27 0 24 1;
#X connect 28 0 3 0;
#X connect 29 0 71 0;
#X connect 29 1 72 0;
#X connect 29 2 73 0;
#X connect 29 3 74 0;
#X connect 29 4 37 0;
#X connect 29 5 16 0;
#X connect 29 6 75 0;
#X connect 29 7 27 0;
#X connect 30 0 17 0;
#X connect 30 1 18 0;
#X connect 30 2 19 0;
#X connect 30 3 20 0;
#X connect 30 4 21 0;
#X connect 30 5 22 0;
#X connect 30 6 23 0;
#X connect 30 7 24 0;
#X connect 32 0 67 0;
#X connect 37 0 21 1;
#X connect 39 0 48 0;
#X connect 41 0 51 0;
#X connect 42 0 50 0;
#X connect 42 1 81 0;
#X connect 42 2 80 0;
#X connect 42 2 82 0;
#X connect 43 0 46 0;
#X connect 44 0 43 0;
#X connect 45 0 46 1;
#X connect 46 0 76 0;
#X connect 46 0 5 0;
#X connect 47 0 52 0;
#X connect 48 0 62 0;
#X connect 49 0 70 0;
#X connect 50 0 43 1;
#X connect 51 0 60 0;
#X connect 52 0 44 0;
#X connect 53 0 82 2;
#X connect 54 0 55 0;
#X connect 55 0 57 0;
#X connect 57 0 76 1;
#X connect 58 0 64 1;
#X connect 59 0 58 0;
#X connect 60 0 81 2;
#X connect 61 0 52 1;
#X connect 62 0 40 0;
#X connect 62 0 44 1;
#X connect 63 0 26 0;
#X connect 64 0 77 0;
#X connect 65 0 66 0;
#X connect 66 0 61 0;
#X connect 67 0 68 0;
#X connect 67 1 68 0;
#X connect 67 2 69 0;
#X connect 68 0 4 0;
#X connect 69 0 29 0;
#X connect 70 0 53 0;
#X connect 71 0 17 1;
#X connect 72 0 18 1;
#X connect 73 0 19 1;
#X connect 74 0 20 1;
#X connect 75 0 23 1;
#X connect 76 0 64 0;
#X connect 77 0 5 0;
#X connect 78 0 77 1;
#X connect 79 0 3 0;
#X connect 79 1 29 0;
#X connect 80 0 81 1;
#X connect 80 0 82 1;
#X connect 81 0 47 0;
#X connect 82 0 45 0;
