#N canvas 0 25 1280 747 12;
#X floatatom 249 157 4 0 0 0 - - - 0;
#X obj 789 688 outlet~;
#X obj 789 655 *~;
#X obj 14 67 inlet Note;
#X floatatom 1117 603 5 0 0 0 - - - 0;
#X floatatom 249 335 5 0 0 0 - - - 0;
#X floatatom 373 235 5 0 0 0 - - - 0;
#X floatatom 497 235 5 0 0 0 - - - 0;
#X floatatom 621 235 5 0 0 0 - - - 0;
#X floatatom 745 235 5 0 0 0 - - - 0;
#X floatatom 869 235 5 0 0 0 - - - 0;
#X floatatom 993 235 5 0 0 0 - - - 0;
#X floatatom 1117 235 5 0 0 0 - - - 0;
#X obj 1060 11 notein 1;
#X obj 1060 40 pack f f;
#X obj 1060 98 sel 127;
#X obj 1060 69 route 98;
#X msg 1163 147 120;
#X text 1145 214 Volume;
#X msg 1039 147 30;
#X msg 915 147 64;
#X msg 791 147 10;
#X msg 667 147 0;
#X text 277 214 Detune;
#X obj 250 532 bob~, f 36;
#X text 380 214 LP Cutoff;
#X text 483 214 LP Resonance;
#X obj 497 258 / 127;
#X obj 373 258 / 127;
#X floatatom 373 311 9 0 0 0 - - - 0;
#X floatatom 507 311 9 0 0 0 - - - 0;
#X obj 374 488 vline~;
#X msg 419 147 127;
#X msg 543 147 0;
#X msg 295 147 0;
#X text 1128 10 Reset to default values by pressing SHIFT, f 17;
#X obj 1117 258 / 127;
#X obj 335 40 inlet mod;
#X obj 249 196 ctrl 48;
#X obj 373 196 ctrl 49;
#X obj 497 196 ctrl 50;
#X obj 621 196 ctrl 51;
#X obj 745 196 ctrl 52;
#X obj 869 196 ctrl 53;
#X obj 993 196 ctrl 54;
#X obj 1117 196 ctrl 55;
#X obj 34 370 voice~;
#X obj 373 282 * 15000;
#X obj 497 282 * 3.9999;
#X obj 60 165 t b;
#X msg 60 189 127;
#X obj 122 40 inlet tempo;
#X obj 34 217 makenote;
#X obj 621 258 / 127;
#X text 593 214 Note Lenght;
#X obj 621 306 + 0.5;
#X obj 621 330 int;
#X floatatom 621 378 5 0 0 0 - - - 0;
#X floatatom 45 108 5 0 0 0 - - - 0;
#X obj 2 136 sel 0;
#X obj 621 282 * 31;
#X obj 621 354 + 1;
#X obj 34 301 pack f f f;
#X obj 34 252 poly 1 1;
#X obj 34 330 route 1, f 10;
#X obj 373 401 pack f 40;
#X obj 341 282 mtof;
#X obj 373 373 +;
#X obj 341 306 * 2;
#X floatatom 122 120 8 0 0 0 - - - 0;
#X obj 122 96 expr (6000/$f1)*4*$f2;
#X obj 213 56 t b f;
#X obj 373 334 t b f;
#X text 404 19 This allows the parameters of the Lead to be changed
only if its selector switch has been pressed., f 22;
#X connect 0 0 38 0;
#X connect 0 0 39 0;
#X connect 0 0 40 0;
#X connect 0 0 41 0;
#X connect 0 0 42 0;
#X connect 0 0 43 0;
#X connect 0 0 44 0;
#X connect 0 0 45 0;
#X connect 2 0 1 0;
#X connect 3 0 58 0;
#X connect 3 0 59 0;
#X connect 4 0 2 1;
#X connect 5 0 46 1;
#X connect 6 0 28 0;
#X connect 7 0 27 0;
#X connect 8 0 53 0;
#X connect 12 0 36 0;
#X connect 13 0 14 0;
#X connect 13 1 14 1;
#X connect 14 0 16 0;
#X connect 15 0 34 0;
#X connect 15 0 17 0;
#X connect 15 0 20 0;
#X connect 15 0 19 0;
#X connect 15 0 21 0;
#X connect 15 0 22 0;
#X connect 15 0 33 0;
#X connect 15 0 32 0;
#X connect 16 0 15 0;
#X connect 17 0 45 1;
#X connect 19 0 44 1;
#X connect 20 0 43 1;
#X connect 21 0 42 1;
#X connect 22 0 41 1;
#X connect 24 0 2 0;
#X connect 27 0 48 0;
#X connect 28 0 47 0;
#X connect 29 0 72 0;
#X connect 31 0 24 1;
#X connect 32 0 39 1;
#X connect 33 0 40 1;
#X connect 34 0 38 1;
#X connect 36 0 4 0;
#X connect 37 0 0 0;
#X connect 38 0 5 0;
#X connect 39 0 6 0;
#X connect 40 0 7 0;
#X connect 41 0 8 0;
#X connect 42 0 9 0;
#X connect 43 0 10 0;
#X connect 44 0 11 0;
#X connect 45 0 12 0;
#X connect 46 0 24 0;
#X connect 47 0 29 0;
#X connect 48 0 24 2;
#X connect 48 0 30 0;
#X connect 49 0 50 0;
#X connect 50 0 52 1;
#X connect 51 0 70 0;
#X connect 52 0 63 0;
#X connect 52 1 63 1;
#X connect 53 0 60 0;
#X connect 55 0 56 0;
#X connect 56 0 61 0;
#X connect 57 0 71 0;
#X connect 58 0 66 0;
#X connect 59 1 52 0;
#X connect 59 1 49 0;
#X connect 60 0 55 0;
#X connect 61 0 57 0;
#X connect 62 0 64 0;
#X connect 63 0 62 0;
#X connect 63 1 62 1;
#X connect 63 2 62 2;
#X connect 64 0 46 0;
#X connect 65 0 31 0;
#X connect 66 0 68 0;
#X connect 67 0 65 0;
#X connect 68 0 67 0;
#X connect 70 0 52 2;
#X connect 70 0 69 0;
#X connect 71 0 70 0;
#X connect 71 1 70 1;
#X connect 72 0 67 0;
#X connect 72 1 67 1;
