#N canvas 0 25 1280 747 12;
#X obj 355 182 ctlin 49;
#X obj 71 135 notein 1;
#X obj 20 238 inlet;
#X obj 475 182 ctlin 50;
#X text 473 165 Decay;
#X text 354 165 Tune;
#X obj 71 170 pack 0 0;
#X obj 648 227 ==, f 4;
#X floatatom 168 183 4 0 0 0 - - - 0;
#X obj 596 261 pack 0 0;
#X floatatom 596 362 5 0 0 0 - - - 0;
#X obj 203 158 bng 15 250 50 0 empty empty empty 17 7 0 10 #fcfcfc
#000000 #000000;
#X obj 596 286 route 1;
#X obj 168 129 metro 100;
#X msg 168 157 1;
#X obj 148 110 tgl 15 0 empty empty empty 17 7 0 10 #fcfcfc #000000
#000000 0 1;
#X obj 408 227 ==, f 4;
#X obj 356 261 pack 0 0;
#X floatatom 356 362 5 0 0 0 - - - 0;
#X obj 356 286 route 1;
#X obj 528 227 ==, f 4;
#X obj 476 261 pack 0 0;
#X floatatom 476 362 5 0 0 0 - - - 0;
#X obj 476 286 route 1;
#X obj 299 227 ==, f 4;
#X obj 247 261 pack 0 0;
#X floatatom 247 362 5 0 0 0 - - - 0;
#X obj 247 286 route 1;
#X obj 73 536 vline~;
#X obj 309 637 bob~, f 8;
#X floatatom 523 502 8 0 0 0 - - - 0;
#X obj 523 478 expr ($f1/127)*9800+200;
#X obj 595 182 ctlin 51;
#X obj 245 182 ctlin 48;
#X floatatom 708 502 8 0 0 0 - - - 0;
#X text 593 165 Low Pass Fiter;
#X text 244 165 Attack, f 7;
#X obj 309 611 *~;
#X obj 327 558 vline~;
#X obj 74 571 osc~;
#X msg 189 502 0;
#X obj 34 283 bng 15 250 50 0 empty empty empty 17 7 0 10 #fcfcfc #000000
#000000;
#X obj 76 238 sel 127;
#X msg 289 502 1;
#X obj 708 478 expr ($f1/127)+0.5;
#X obj 328 502 pack 0 100 20;
#X obj 372 477 * 4;
#X msg 48 502 120;
#X obj 308 709 outlet~;
#X obj 132 286 loadbang;
#X msg 257 333 48;
#X msg 366 333 101;
#X msg 486 333 48;
#X msg 606 333 101;
#X obj 88 502 pack 50 f f;
#X obj 168 86 inlet;
#X obj 308 679 *~;
#X obj 928 233 ==, f 4;
#X obj 876 267 pack 0 0;
#X floatatom 876 368 5 0 0 0 - - - 0;
#X obj 876 292 route 1;
#X text 873 171 Volume;
#X msg 886 339 120;
#X obj 875 188 ctlin 55;
#X obj 876 391 - 1;
#X obj 877 591 / 126;
#X obj 71 198 route 3 7;
#X text 223 78 This allows the parameters of the percussions to be
changed only if its selector switch has been presseds.;
#X connect 0 0 17 1;
#X connect 0 1 16 0;
#X connect 1 0 6 0;
#X connect 1 1 6 1;
#X connect 2 0 41 0;
#X connect 3 0 21 1;
#X connect 3 1 20 0;
#X connect 6 0 66 0;
#X connect 7 0 9 0;
#X connect 8 0 7 1;
#X connect 8 0 16 1;
#X connect 8 0 20 1;
#X connect 8 0 24 1;
#X connect 8 0 57 1;
#X connect 9 0 12 0;
#X connect 10 0 31 0;
#X connect 10 0 44 0;
#X connect 12 0 10 0;
#X connect 13 0 11 0;
#X connect 13 0 14 0;
#X connect 14 0 8 0;
#X connect 15 0 13 0;
#X connect 15 0 8 0;
#X connect 16 0 17 0;
#X connect 17 0 19 0;
#X connect 18 0 54 1;
#X connect 19 0 18 0;
#X connect 20 0 21 0;
#X connect 21 0 23 0;
#X connect 22 0 46 0;
#X connect 23 0 22 0;
#X connect 24 0 25 0;
#X connect 25 0 27 0;
#X connect 26 0 54 2;
#X connect 27 0 26 0;
#X connect 28 0 39 0;
#X connect 29 0 56 0;
#X connect 30 0 29 1;
#X connect 31 0 30 0;
#X connect 32 0 9 1;
#X connect 32 1 7 0;
#X connect 33 0 25 1;
#X connect 33 1 24 0;
#X connect 34 0 29 2;
#X connect 37 0 29 0;
#X connect 38 0 37 1;
#X connect 39 0 37 0;
#X connect 40 0 39 1;
#X connect 41 0 40 0;
#X connect 41 0 43 0;
#X connect 41 0 45 0;
#X connect 41 0 47 0;
#X connect 41 0 54 0;
#X connect 42 0 41 0;
#X connect 43 0 38 0;
#X connect 44 0 34 0;
#X connect 45 0 38 0;
#X connect 46 0 45 1;
#X connect 47 0 28 0;
#X connect 49 0 50 0;
#X connect 49 0 51 0;
#X connect 49 0 52 0;
#X connect 49 0 53 0;
#X connect 49 0 62 0;
#X connect 50 0 26 0;
#X connect 51 0 18 0;
#X connect 52 0 22 0;
#X connect 53 0 10 0;
#X connect 54 0 28 0;
#X connect 55 0 15 0;
#X connect 56 0 48 0;
#X connect 57 0 58 0;
#X connect 58 0 60 0;
#X connect 59 0 64 0;
#X connect 60 0 59 0;
#X connect 62 0 59 0;
#X connect 63 0 58 1;
#X connect 63 1 57 0;
#X connect 64 0 65 0;
#X connect 65 0 56 1;
#X connect 66 0 42 0;
#X connect 66 1 42 0;
