#N canvas 99 26 1014 681 12;
#X obj 21 141 bng 15 250 50 0 empty empty empty 17 7 0 10 #fcfcfc #000000
#000000;
#X obj 840 570 outlet~;
#X obj 840 541 *~, f 7;
#X text 893 205 Volume;
#X floatatom 154 226 6 0 0 0 - - - 0;
#X floatatom 258 226 5 0 0 0 - - - 0;
#X floatatom 886 226 5 0 0 0 - - - 0;
#X floatatom 781 226 5 0 0 0 - - - 0;
#X floatatom 467 226 5 0 0 0 - - - 0;
#X floatatom 363 226 5 0 0 0 - - - 0;
#X obj 66 20 notein 1, f 10;
#X obj 21 20 inlet;
#X floatatom 154 130 4 0 0 0 - - - 0;
#X obj 154 20 inlet mod;
#X obj 154 187 ctrl 48;
#X obj 258 187 ctrl 49;
#X obj 363 187 ctrl 50;
#X obj 467 187 ctrl 51;
#X obj 572 187 ctrl 52;
#X obj 676 187 ctrl 53;
#X obj 781 187 ctrl 54;
#X obj 886 187 ctrl 55;
#X msg 932 129 127;
#X obj 200 99 t b b b b b b b b, f 105;
#X obj 154 158 t f f f f f f f f, f 105;
#X obj 66 54 pack f f, f 10;
#X msg 513 129 0;
#X obj 28 112 sel 127;
#X obj 91 112 sel 127;
#X msg 618 129 0;
#X msg 722 129 0;
#X msg 827 129 0;
#X msg 200 129 14;
#X msg 304 129 30;
#X msg 409 129 41;
#N canvas 261 197 450 300 start 0;
#X obj 108 88 loadbang;
#X obj 108 123 t b b b, f 14;
#X msg 203 157 1;
#X obj 155 161 bng 15 250 50 0 empty empty empty 17 7 0 10 #fcfcfc
#000000 #000000;
#X msg 108 158 0;
#X obj 108 202 outlet;
#X obj 182 202 outlet;
#X connect 0 0 1 0;
#X connect 1 0 4 0;
#X connect 1 1 3 0;
#X connect 1 2 2 0;
#X connect 2 0 5 0;
#X connect 3 0 6 0;
#X connect 4 0 5 0;
#X restore 147 74 pd start;
#X obj 886 312 vline~;
#X msg 886 283 \$1 5;
#X obj 154 49 == 4;
#X text 227 12 This allows the parameters of the ride to be changed
only if its selector switch has been pressed. They can be restored
to the default values by pressing SHIFT, f 99;
#X obj 28 83 route 3 7 98, f 14;
#X floatatom 676 226 5 0 0 0 - - - 0;
#X floatatom 572 226 5 0 0 0 - - - 0;
#X obj 886 254 / 127;
#X obj 212 273 noise~;
#N canvas 152 157 759 479 filtering 0;
#X obj 104 108 inlet~ audioIn;
#X obj 104 334 outlet~;
#X obj 104 247 lop~, f 22;
#X obj 104 218 bob~, f 15;
#X obj 104 276 hip~, f 32;
#X obj 104 305 hip~, f 40;
#X floatatom 341 132 5 0 0 0 - - - 0;
#X floatatom 226 132 5 0 0 0 - - - 0;
#X obj 226 108 inlet LowPass;
#X obj 341 108 inlet highPass;
#X obj 155 160 * 5000;
#X obj 255 160 * 6000;
#X obj 206 189 -;
#X msg 206 160 3 \$1;
#X obj 155 189 + 7000;
#X obj 255 189 + 10000;
#X obj 325 160 * 400;
#X obj 381 160 * 400;
#X obj 325 189 + 400;
#X obj 381 189 + 400;
#X connect 0 0 3 0;
#X connect 2 0 4 0;
#X connect 3 0 2 0;
#X connect 4 0 5 0;
#X connect 5 0 1 0;
#X connect 6 0 16 0;
#X connect 6 0 17 0;
#X connect 7 0 10 0;
#X connect 7 0 11 0;
#X connect 7 0 13 0;
#X connect 8 0 7 0;
#X connect 9 0 6 0;
#X connect 10 0 14 0;
#X connect 11 0 15 0;
#X connect 12 0 3 2;
#X connect 13 0 12 0;
#X connect 14 0 3 1;
#X connect 15 0 2 1;
#X connect 16 0 18 0;
#X connect 17 0 19 0;
#X connect 18 0 4 1;
#X connect 19 0 5 1;
#X restore 348 404 pd filtering;
#X f 13;
#X obj 258 249 / 127;
#X obj 363 249 / 127;
#X obj 336 552 *~, f 5;
#N canvas 158 175 548 395 squares 0;
#X obj 33 8 inlet freq;
#X obj 33 350 outlet~;
#X obj 33 139 phasor~;
#X obj 33 163 expr~ $v1 > 0.6;
#X obj 152 139 phasor~;
#X obj 278 139 phasor~;
#X obj 397 139 phasor~;
#X obj 278 115 * 1.3;
#X obj 152 115 * 1.8;
#X obj 397 115 * 2.4;
#X obj 397 163 expr~ $v1 > 0.4;
#X obj 152 163 expr~ $v1 > 0.75;
#X obj 278 163 expr~ $v1 > 0.2;
#X obj 278 187 *~ 0.5;
#X obj 397 187 *~ 0.3;
#X obj 33 297 hip~ 300;
#X obj 33 273 lop~ 4000;
#X obj 33 225 -~ 1.4;
#X obj 33 249 expr~ tanh($v1);
#X obj 33 321 /~ 2;
#X obj 33 86 mtof;
#X obj 75 56 int;
#X obj 33 32 * 24;
#X obj 75 32 + 70;
#X connect 0 0 22 0;
#X connect 2 0 3 0;
#X connect 3 0 17 0;
#X connect 4 0 11 0;
#X connect 5 0 12 0;
#X connect 6 0 10 0;
#X connect 7 0 5 0;
#X connect 8 0 4 0;
#X connect 9 0 6 0;
#X connect 10 0 14 0;
#X connect 11 0 17 0;
#X connect 12 0 13 0;
#X connect 13 0 17 0;
#X connect 14 0 17 0;
#X connect 15 0 19 0;
#X connect 16 0 15 0;
#X connect 17 0 18 0;
#X connect 18 0 16 0;
#X connect 19 0 1 0;
#X connect 20 0 2 0;
#X connect 20 0 8 0;
#X connect 20 0 9 0;
#X connect 20 0 7 0;
#X connect 21 0 20 0;
#X connect 22 0 23 0;
#X connect 23 0 21 0;
#X restore 136 409 pd squares;
#X obj 154 249 / 127;
#X obj 348 434 pow~ 1.4;
#X obj 176 358 t b b b, f 29;
#X obj 136 385 f;
#X obj 231 428 ../envAR 2 500;
#X obj 731 414 *~;
#X obj 572 249 / 127;
#X text 175 205 Tune;
#X text 268 205 Low Freq;
#X text 373 205 High Freq;
#X text 481 205 Decay;
#X text 600 205 Rev;
#X obj 467 249 / 127;
#X obj 467 297 + 200;
#X obj 467 273 * 1000;
#X obj 333 475 *~, f 8;
#X obj 493 428 pow~ 2;
#X obj 493 404 ../envAHD 2 100 500;
#X obj 731 443 rev2~ 90 98 3000 70;
#X connect 0 0 52 0;
#X connect 2 0 1 0;
#X connect 4 0 50 0;
#X connect 5 0 46 0;
#X connect 6 0 43 0;
#X connect 8 0 62 0;
#X connect 9 0 47 0;
#X connect 10 0 25 0;
#X connect 10 1 25 1;
#X connect 11 0 0 0;
#X connect 12 0 24 0;
#X connect 13 0 38 0;
#X connect 14 0 4 0;
#X connect 15 0 5 0;
#X connect 16 0 9 0;
#X connect 17 0 8 0;
#X connect 18 0 42 0;
#X connect 19 0 41 0;
#X connect 20 0 7 0;
#X connect 21 0 6 0;
#X connect 22 0 21 1;
#X connect 23 0 32 0;
#X connect 23 1 33 0;
#X connect 23 2 34 0;
#X connect 23 3 26 0;
#X connect 23 4 29 0;
#X connect 23 5 30 0;
#X connect 23 6 31 0;
#X connect 23 7 22 0;
#X connect 24 0 14 0;
#X connect 24 1 15 0;
#X connect 24 2 16 0;
#X connect 24 3 17 0;
#X connect 24 4 18 0;
#X connect 24 5 19 0;
#X connect 24 6 20 0;
#X connect 24 7 21 0;
#X connect 25 0 40 0;
#X connect 26 0 17 1;
#X connect 27 0 0 0;
#X connect 28 0 23 0;
#X connect 29 0 18 1;
#X connect 30 0 19 1;
#X connect 31 0 20 1;
#X connect 32 0 14 1;
#X connect 33 0 15 1;
#X connect 34 0 16 1;
#X connect 35 0 12 0;
#X connect 35 1 23 0;
#X connect 36 0 2 1;
#X connect 37 0 36 0;
#X connect 38 0 12 0;
#X connect 40 0 27 0;
#X connect 40 1 27 0;
#X connect 40 2 28 0;
#X connect 42 0 56 0;
#X connect 43 0 37 0;
#X connect 44 0 45 0;
#X connect 45 0 51 0;
#X connect 46 0 45 1;
#X connect 47 0 45 2;
#X connect 48 0 55 0;
#X connect 48 0 2 0;
#X connect 49 0 48 0;
#X connect 50 0 53 1;
#X connect 51 0 65 1;
#X connect 52 0 67 0;
#X connect 52 1 54 0;
#X connect 52 2 53 0;
#X connect 53 0 49 0;
#X connect 54 0 65 0;
#X connect 55 0 68 0;
#X connect 56 0 55 1;
#X connect 62 0 64 0;
#X connect 63 0 54 2;
#X connect 63 0 67 3;
#X connect 64 0 63 0;
#X connect 65 0 48 0;
#X connect 66 0 48 1;
#X connect 67 0 66 0;
#X connect 68 0 2 0;
