#N canvas 83 25 1197 747 12;
#X obj 50 8 notein 1;
#X obj 35 203 inlet;
#X text 463 221 Decay;
#X text 154 220 Tune;
#X obj 50 33 pack 0 0;
#X floatatom 143 164 4 0 0 0 - - - 0;
#X obj 80 244 bng 15 250 50 0 empty empty empty 17 7 0 10 #fcfcfc #000000
#000000;
#X obj 80 202 sel 127;
#X obj 523 716 outlet~;
#X obj 523 680 *~;
#X text 882 220 Volume;
#X msg 917 153 120;
#X obj 144 25 inlet mod;
#X floatatom 143 238 6 0 0 0 - - - 0;
#X floatatom 247 241 5 0 0 0 - - - 0;
#X floatatom 871 241 5 0 0 0 - - - 0;
#X obj 917 106 sel 127;
#X obj 917 77 route 98;
#X text 559 60 Reset to default values by pressing SHIFT, f 49;
#X floatatom 559 241 5 0 0 0 - - - 0;
#X floatatom 663 241 5 0 0 0 - - - 0;
#X text 674 220 TO DO;
#X floatatom 767 241 5 0 0 0 - - - 0;
#X text 778 220 TO DO;
#X msg 605 153 0;
#X msg 709 153 0;
#X msg 813 153 0;
#X text 218 14 This allows the parameters of the kick to be changed
only if its selector switch has been pressed., f 36;
#X msg 501 153 100;
#X obj 143 202 ctrl 48;
#X obj 247 202 ctrl 49;
#X obj 351 202 ctrl 50;
#X obj 455 202 ctrl 51;
#X obj 559 202 ctrl 52;
#X obj 663 202 ctrl 53;
#X obj 767 202 ctrl 54;
#X obj 871 202 ctrl 55;
#X obj 871 525 / 127;
#X obj 50 58 route 1 5;
#X obj 144 109 tgl 15 0 empty empty empty 17 7 0 10 #fcfcfc #000000
#000000 0 1;
#X text 357 221 Attack;
#X floatatom 455 241 5 0 0 0 - - - 0;
#X floatatom 351 241 5 0 0 0 - - - 0;
#X obj 854 25 loadbang;
#X msg 854 53 127;
#X floatatom 1012 96 14 0 0 0 - - - 0;
#X obj 1012 77 snapshot~, f 11;
#X obj 1033 43 tgl 15 0 empty empty empty 17 7 0 10 #fcfcfc #000000
#000000 0 1;
#X obj 1033 58 metro 50;
#X obj 200 315 noise~;
#X obj 143 261 / 127;
#X obj 351 264 / 127;
#X obj 351 323 * 19;
#X obj 351 374 + 1;
#X obj 351 348 int;
#X obj 330 411 ../envAR, f 10;
#X obj 312 511 *~;
#X obj 455 374 + 5;
#X obj 198 438 osc~;
#X obj 455 264 * 2;
#X text 258 220 Noise;
#X text 570 220 Saturation;
#X obj 143 344 *~ 200;
#X obj 216 382 *~, f 5;
#X obj 198 411 +~;
#X obj 247 264 + 150;
#X obj 216 344 hip~ 5000;
#X obj 143 382 +~ 150;
#X obj 80 293 t b b, f 36;
#X obj 559 264 / 127;
#X obj 422 545 expr~ tanh( $v1*$f2);
#X obj 523 597 /~ 2;
#X msg 397 153 10;
#X msg 293 153 50;
#X msg 189 153 40;
#X connect 0 0 4 0;
#X connect 0 1 4 1;
#X connect 1 0 6 0;
#X connect 4 0 38 0;
#X connect 5 0 29 0;
#X connect 5 0 30 0;
#X connect 5 0 31 0;
#X connect 5 0 32 0;
#X connect 5 0 36 0;
#X connect 5 0 33 0;
#X connect 5 0 34 0;
#X connect 5 0 35 0;
#X connect 6 0 68 0;
#X connect 7 0 6 0;
#X connect 9 0 8 0;
#X connect 11 0 36 1;
#X connect 12 0 39 0;
#X connect 13 0 50 0;
#X connect 14 0 65 0;
#X connect 15 0 37 0;
#X connect 16 0 11 0;
#X connect 16 0 28 0;
#X connect 16 0 72 0;
#X connect 16 0 73 0;
#X connect 16 0 74 0;
#X connect 16 0 26 0;
#X connect 16 0 25 0;
#X connect 16 0 24 0;
#X connect 17 0 16 0;
#X connect 19 0 69 0;
#X connect 24 0 33 1;
#X connect 25 0 34 1;
#X connect 26 0 35 1;
#X connect 28 0 32 1;
#X connect 29 0 13 0;
#X connect 30 0 14 0;
#X connect 31 0 42 0;
#X connect 32 0 41 0;
#X connect 33 0 19 0;
#X connect 34 0 20 0;
#X connect 35 0 22 0;
#X connect 36 0 15 0;
#X connect 37 0 9 1;
#X connect 38 0 7 0;
#X connect 38 1 7 0;
#X connect 38 2 17 0;
#X connect 39 0 5 0;
#X connect 41 0 59 0;
#X connect 42 0 51 0;
#X connect 43 0 44 0;
#X connect 44 0 16 0;
#X connect 46 0 45 0;
#X connect 47 0 48 0;
#X connect 48 0 46 0;
#X connect 49 0 66 0;
#X connect 50 0 62 0;
#X connect 51 0 52 0;
#X connect 52 0 54 0;
#X connect 53 0 55 1;
#X connect 54 0 53 0;
#X connect 55 0 56 1;
#X connect 56 0 9 0;
#X connect 56 0 70 0;
#X connect 57 0 55 2;
#X connect 58 0 56 0;
#X connect 59 0 57 0;
#X connect 62 0 67 0;
#X connect 63 0 64 1;
#X connect 64 0 58 0;
#X connect 65 0 63 1;
#X connect 66 0 63 0;
#X connect 67 0 64 0;
#X connect 68 1 55 0;
#X connect 69 0 70 1;
#X connect 70 0 71 0;
#X connect 71 0 9 0;
#X connect 72 0 31 1;
#X connect 73 0 30 1;
#X connect 74 0 29 1;
