#N canvas 83 25 1197 747 12;
#X text 470 207 Decay;
#X text 164 207 Tune;
#X obj 458 672 outlet~;
#X text 882 207 Volume;
#X text 1017 179 Saturation;
#X obj 55 12 notein 1, f 10;
#X obj 10 12 inlet;
#X floatatom 143 102 4 0 0 0 - - - 0;
#X obj 143 12 inlet mod;
#X msg 711 131 0;
#X msg 816 131 0;
#X obj 143 189 ctrl 48;
#X obj 247 189 ctrl 49;
#X obj 352 189 ctrl 50;
#X obj 456 189 ctrl 51;
#X obj 561 189 ctrl 52;
#X obj 665 189 ctrl 53;
#X obj 770 189 ctrl 54;
#X obj 875 189 ctrl 55;
#X msg 921 131 127;
#X obj 189 101 t b b b b b b b b, f 105;
#X obj 143 160 t f f f f f f f f, f 105;
#X obj 55 106 pack f f;
#X msg 607 131 127;
#X obj 45 249 bng 15 250 50 0 empty empty empty 17 7 0 10 #fcfcfc #000000
#000000;
#X text 213 7 This allows the parameters of the snare to be changed
only if its selector switch has been pressed. They can be restored
to the default values by pressing SHIFT, f 99;
#X obj 143 41 == 2;
#X floatatom 143 233 5 0 0 0 - - - 0;
#X floatatom 247 233 5 0 0 0 - - - 0;
#X floatatom 352 233 5 0 0 0 - - - 0;
#X floatatom 456 233 5 0 0 0 - - - 0;
#X floatatom 875 233 5 0 0 0 - - - 0;
#X floatatom 561 233 5 0 0 0 - - - 0;
#X floatatom 665 233 5 0 0 0 - - - 0;
#X floatatom 770 233 5 0 0 0 - - - 0;
#X obj 875 569 vline~;
#X msg 875 540 \$1 5;
#X text 261 207 Pitch;
#X text 366 207 Noise;
#X obj 13 164 sel 127;
#X obj 76 164 sel 127;
#X obj 13 135 route 1 5 98;
#N canvas 261 197 450 300 start 0;
#X obj 108 88 loadbang;
#X obj 108 123 t b b b, f 14;
#X msg 203 157 1;
#X obj 155 161 bng 15 250 50 0 empty empty empty 17 7 0 10 #fcfcfc
#000000 #000000;
#X msg 108 158 0;
#X obj 108 202 outlet;
#X obj 182 202 outlet;
#X connect 0 0 1 0;
#X connect 1 0 4 0;
#X connect 1 1 3 0;
#X connect 1 2 2 0;
#X connect 2 0 5 0;
#X connect 3 0 6 0;
#X connect 4 0 5 0;
#X restore 136 66 pd start;
#X obj 875 261 / 127;
#X obj 143 548 *~, f 13;
#X obj 143 432 osc~, f 5;
#X obj 231 473 ../envAR 1;
#X obj 456 280 + 200;
#X obj 456 256 * 4, f 5;
#X obj 362 362 noise~;
#X obj 362 389 *~, f 5;
#X obj 362 497 *~, f 17;
#X obj 458 643 *~, f 60;
#X obj 352 256 / 127;
#X obj 476 427 ../envAR 5 100, f 16;
#X obj 362 465 bp~ 300 0.2;
#X obj 247 280 + 1;
#X obj 143 398 *~, f 5;
#X obj 247 444 +~ 1;
#X obj 247 420 *~;
#X obj 247 256 / 127;
#X obj 265 384 ../envAR 1 5;
#X obj 399 427 snapshot~;
#X obj 600 424 vline~;
#X msg 600 382 1 \, 0 0 10;
#X msg 189 131 69;
#X msg 293 131 93;
#X msg 398 131 127;
#X msg 502 131 86;
#X obj 770 256 / 127;
#X obj 458 610 expr~ tanh($v1*(1+$f2));
#X obj 143 256 + 160;
#X obj 45 319 t b b b, f 57;
#X connect 5 0 22 0;
#X connect 5 1 22 1;
#X connect 6 0 24 0;
#X connect 7 0 21 0;
#X connect 8 0 26 0;
#X connect 9 0 16 1;
#X connect 10 0 17 1;
#X connect 11 0 27 0;
#X connect 12 0 28 0;
#X connect 13 0 29 0;
#X connect 14 0 30 0;
#X connect 15 0 32 0;
#X connect 16 0 33 0;
#X connect 17 0 34 0;
#X connect 18 0 31 0;
#X connect 19 0 18 1;
#X connect 20 0 65 0;
#X connect 20 1 66 0;
#X connect 20 2 67 0;
#X connect 20 3 68 0;
#X connect 20 4 23 0;
#X connect 20 5 9 0;
#X connect 20 6 10 0;
#X connect 20 7 19 0;
#X connect 21 0 11 0;
#X connect 21 1 12 0;
#X connect 21 2 13 0;
#X connect 21 3 14 0;
#X connect 21 4 15 0;
#X connect 21 5 16 0;
#X connect 21 6 17 0;
#X connect 21 7 18 0;
#X connect 22 0 41 0;
#X connect 23 0 15 1;
#X connect 24 0 72 0;
#X connect 26 0 7 0;
#X connect 27 0 71 0;
#X connect 28 0 60 0;
#X connect 29 0 53 0;
#X connect 30 0 48 0;
#X connect 31 0 43 0;
#X connect 34 0 69 0;
#X connect 35 0 52 1;
#X connect 36 0 35 0;
#X connect 39 0 24 0;
#X connect 40 0 20 0;
#X connect 41 0 39 0;
#X connect 41 1 39 0;
#X connect 41 2 40 0;
#X connect 42 0 7 0;
#X connect 42 1 20 0;
#X connect 43 0 36 0;
#X connect 44 0 70 0;
#X connect 45 0 44 0;
#X connect 46 0 44 1;
#X connect 47 0 46 2;
#X connect 48 0 47 0;
#X connect 48 0 54 2;
#X connect 49 0 50 0;
#X connect 50 0 55 0;
#X connect 51 0 44 0;
#X connect 52 0 2 0;
#X connect 53 0 50 1;
#X connect 54 0 51 1;
#X connect 55 0 51 0;
#X connect 56 0 59 0;
#X connect 57 0 45 0;
#X connect 57 0 62 0;
#X connect 58 0 57 0;
#X connect 59 0 58 0;
#X connect 60 0 56 0;
#X connect 61 0 59 1;
#X connect 62 0 55 1;
#X connect 63 0 70 0;
#X connect 64 0 63 0;
#X connect 65 0 11 1;
#X connect 66 0 12 1;
#X connect 67 0 13 1;
#X connect 68 0 14 1;
#X connect 69 0 70 1;
#X connect 70 0 52 0;
#X connect 71 0 57 1;
#X connect 72 0 61 0;
#X connect 72 1 54 0;
#X connect 72 1 46 0;
#X connect 72 2 64 0;
#X connect 72 2 62 0;
