#N canvas 83 25 1197 747 12;
#X text 366 206 Decay;
#X text 164 207 Tune;
#X obj 717 692 outlet~;
#X text 882 207 Volume;
#X obj 55 12 notein 1, f 9;
#X obj 10 12 inlet;
#X floatatom 143 102 4 0 0 0 - - - 0;
#X obj 143 12 inlet mod;
#X obj 143 189 ctrl 48;
#X obj 247 189 ctrl 49;
#X obj 352 189 ctrl 50;
#X obj 456 189 ctrl 51;
#X obj 561 189 ctrl 52;
#X obj 665 189 ctrl 53;
#X obj 770 189 ctrl 54;
#X obj 875 189 ctrl 55;
#X msg 921 131 127;
#X obj 189 101 t b b b b b b b b, f 105;
#X obj 143 160 t f f f f f f f f, f 105;
#X obj 55 42 pack f f, f 9;
#X obj 10 248 bng 15 250 50 0 empty empty empty 17 7 0 20 #fcfcfc #000000
#000000;
#X text 213 7 This allows the parameters of the snare to be changed
only if its selector switch has been pressed. They can be restored
to the default values by pressing SHIFT, f 99;
#X obj 143 41 == 2;
#X floatatom 143 233 5 0 0 0 - - - 0;
#X floatatom 247 233 5 0 0 0 - - - 0;
#X floatatom 352 233 5 0 0 0 - - - 0;
#X floatatom 456 233 5 0 0 0 - - - 0;
#X floatatom 875 233 5 0 0 0 - - - 0;
#X floatatom 561 233 5 0 0 0 - - - 0;
#X floatatom 665 233 5 0 0 0 - - - 0;
#X floatatom 770 233 5 0 0 0 - - - 0;
#X obj 875 629 vline~;
#X msg 875 600 \$1 5;
#X text 261 207 Pitch;
#X text 470 207 Noise;
#X obj 37 149 sel 127;
#X obj 80 120 sel 127;
#X obj 37 71 route 1 5 98;
#N canvas 261 197 450 300 start 0;
#X obj 108 88 loadbang;
#X obj 108 123 t b b b, f 14;
#X msg 203 157 1;
#X obj 155 161 bng 15 250 50 0 empty empty empty 17 7 0 10 #fcfcfc
#000000 #000000;
#X msg 108 158 0;
#X obj 108 202 outlet;
#X obj 182 202 outlet;
#X connect 0 0 1 0;
#X connect 1 0 4 0;
#X connect 1 1 3 0;
#X connect 1 2 2 0;
#X connect 2 0 5 0;
#X connect 3 0 6 0;
#X connect 4 0 5 0;
#X restore 136 66 pd start;
#X obj 717 663 *~, f 23;
#X obj 143 500 osc~, f 5;
#X obj 143 427 sig~;
#X obj 184 355 osc~, f 5;
#X obj 143 466 +~;
#X obj 360 542 *~, f 17;
#X obj 184 437 *~, f 5;
#X obj 250 336 t b b, f 16;
#X obj 247 256 / 127;
#X obj 143 256 + 160;
#X obj 184 403 *~ 160, f 8;
#X obj 247 304 + 160;
#X obj 247 280 * 300;
#X obj 184 331 * 1.5;
#X obj 250 413 ../envAR 1 100;
#X obj 184 379 +~ 0.8;
#X obj 352 256 / 127;
#X obj 352 304 + 300;
#X obj 359 437 pow~ 5;
#X obj 352 280 * 1200;
#X obj 500 297 noise~;
#X obj 501 424 vcf~ 0.2, f 10;
#X obj 534 370 +~ 100;
#X obj 534 322 ../envAR 1 200;
#X obj 534 346 *~ 500;
#X obj 476 506 *~, f 4;
#X obj 456 256 / 127;
#X obj 456 280 sig~;
#X obj 359 413 ../envAR 10 400;
#X obj 438 565 expr~ tanh($v1*(1+$f2));
#X obj 561 256 / 63, f 5;
#N canvas 303 174 632 500 comp 0;
#X obj 84 18 inlet~;
#X obj 84 378 outlet~;
#X obj 277 29 inlet amount;
#X obj 84 320 *~, f 8;
#X obj 137 291 vline~;
#X obj 137 71 env~;
#X obj 137 165 sel 1 0;
#X obj 137 131 > 85, f 5;
#X msg 137 249 0.5 100;
#X msg 205 248 1 400;
#X connect 0 0 3 0;
#X connect 0 0 5 0;
#X connect 2 0 7 1;
#X connect 3 0 1 0;
#X connect 4 0 3 1;
#X connect 5 0 7 0;
#X connect 6 0 8 0;
#X connect 6 1 9 0;
#X connect 7 0 6 0;
#X connect 8 0 4 0;
#X connect 9 0 4 0;
#X restore 598 602 pd comp;
#X f 10;
#X obj 665 256 / 127;
#X obj 665 280 * 50, f 5;
#X text 589 207 Sat;
#X text 686 207 Comp;
#X obj 717 635 lop~, f 8;
#X obj 770 256 / 127;
#X obj 770 304 + 200;
#X obj 770 280 * 10000;
#X text 780 207 Lp Freq;
#X msg 189 131 82;
#X msg 293 131 68;
#X msg 398 131 88;
#X msg 502 131 69;
#X msg 711 131 100;
#X msg 607 131 40;
#X msg 816 131 127;
#X obj 875 261 / 127;
#X connect 4 0 19 0;
#X connect 4 1 19 1;
#X connect 5 0 20 0;
#X connect 6 0 18 0;
#X connect 7 0 22 0;
#X connect 8 0 23 0;
#X connect 9 0 24 0;
#X connect 10 0 25 0;
#X connect 11 0 26 0;
#X connect 12 0 28 0;
#X connect 13 0 29 0;
#X connect 14 0 30 0;
#X connect 15 0 27 0;
#X connect 16 0 15 1;
#X connect 17 0 80 0;
#X connect 17 1 81 0;
#X connect 17 2 82 0;
#X connect 17 3 83 0;
#X connect 17 4 85 0;
#X connect 17 5 84 0;
#X connect 17 6 86 0;
#X connect 17 7 16 0;
#X connect 18 0 8 0;
#X connect 18 1 9 0;
#X connect 18 2 10 0;
#X connect 18 3 11 0;
#X connect 18 4 12 0;
#X connect 18 5 13 0;
#X connect 18 6 14 0;
#X connect 18 7 15 0;
#X connect 19 0 37 0;
#X connect 20 0 46 0;
#X connect 22 0 6 0;
#X connect 23 0 48 0;
#X connect 24 0 47 0;
#X connect 25 0 55 0;
#X connect 26 0 65 0;
#X connect 27 0 87 0;
#X connect 28 0 69 0;
#X connect 29 0 71 0;
#X connect 30 0 76 0;
#X connect 31 0 39 1;
#X connect 32 0 31 0;
#X connect 35 0 20 0;
#X connect 36 0 17 0;
#X connect 37 0 35 0;
#X connect 37 1 35 0;
#X connect 37 2 36 0;
#X connect 38 0 6 0;
#X connect 38 1 17 0;
#X connect 39 0 2 0;
#X connect 40 0 44 1;
#X connect 41 0 43 0;
#X connect 42 0 54 0;
#X connect 43 0 40 0;
#X connect 44 0 68 0;
#X connect 45 0 43 1;
#X connect 46 0 53 0;
#X connect 46 1 62 0;
#X connect 46 1 67 0;
#X connect 47 0 51 0;
#X connect 48 0 41 0;
#X connect 48 0 52 0;
#X connect 49 0 45 0;
#X connect 50 0 49 1;
#X connect 51 0 50 0;
#X connect 52 0 42 0;
#X connect 53 0 45 1;
#X connect 54 0 49 0;
#X connect 55 0 58 0;
#X connect 56 0 67 2;
#X connect 57 0 44 0;
#X connect 58 0 56 0;
#X connect 59 0 60 0;
#X connect 60 0 64 1;
#X connect 61 0 60 1;
#X connect 62 0 63 0;
#X connect 63 0 61 0;
#X connect 64 0 44 1;
#X connect 65 0 66 0;
#X connect 66 0 64 0;
#X connect 67 0 57 0;
#X connect 68 0 70 0;
#X connect 69 0 68 1;
#X connect 70 0 75 0;
#X connect 71 0 72 0;
#X connect 72 0 70 1;
#X connect 75 0 39 0;
#X connect 76 0 78 0;
#X connect 77 0 75 1;
#X connect 78 0 77 0;
#X connect 80 0 8 1;
#X connect 81 0 9 1;
#X connect 82 0 10 1;
#X connect 83 0 11 1;
#X connect 84 0 13 1;
#X connect 85 0 12 1;
#X connect 86 0 14 1;
#X connect 87 0 32 0;
