#N canvas 122 25 1159 747 12;
#X text 366 206 Decay;
#X text 164 207 Tune;
#X obj 482 701 outlet~;
#X text 882 207 Volume;
#X obj 55 12 notein 1, f 9;
#X obj 10 12 inlet;
#X floatatom 143 102 4 0 0 0 - - - 0;
#X obj 143 12 inlet mod;
#X obj 143 189 ctrl 48;
#X obj 247 189 ctrl 49;
#X obj 352 189 ctrl 50;
#X obj 456 189 ctrl 51;
#X obj 561 189 ctrl 52;
#X obj 665 189 ctrl 53;
#X obj 770 189 ctrl 54;
#X obj 875 189 ctrl 55;
#X msg 921 131 127;
#X obj 189 101 t b b b b b b b b, f 105;
#X obj 143 160 t f f f f f f f f, f 105;
#X obj 55 42 pack f f, f 9;
#X obj 10 248 bng 15 250 50 0 empty empty empty 17 7 0 20 #fcfcfc #000000
#000000;
#X text 213 7 This allows the parameters of the snare to be changed
only if its selector switch has been pressed. They can be restored
to the default values by pressing SHIFT, f 99;
#X obj 143 41 == 2;
#X floatatom 143 233 5 0 0 0 - - - 0;
#X floatatom 247 233 5 0 0 0 - - - 0;
#X floatatom 352 233 5 0 0 0 - - - 0;
#X floatatom 456 233 5 0 0 0 - - - 0;
#X floatatom 875 233 5 0 0 0 - - - 0;
#X floatatom 561 233 5 0 0 0 - - - 0;
#X floatatom 665 233 5 0 0 0 - - - 0;
#X obj 875 569 vline~;
#X msg 875 540 \$1 5;
#X text 261 207 Pitch;
#X text 470 207 Noise;
#X obj 37 149 sel 127;
#X obj 80 120 sel 127;
#X obj 37 71 route 1 5 98;
#N canvas 261 197 450 300 start 0;
#X obj 108 88 loadbang;
#X obj 108 123 t b b b, f 14;
#X msg 203 157 1;
#X obj 155 161 bng 15 250 50 0 empty empty empty 17 7 0 10 #fcfcfc
#000000 #000000;
#X msg 108 158 0;
#X obj 108 202 outlet;
#X obj 182 202 outlet;
#X connect 0 0 1 0;
#X connect 1 0 4 0;
#X connect 1 1 3 0;
#X connect 1 2 2 0;
#X connect 2 0 5 0;
#X connect 3 0 6 0;
#X connect 4 0 5 0;
#X restore 136 66 pd start;
#X obj 482 672 *~, f 57;
#X obj 352 256 / 127;
#X text 693 207 Sat;
#X msg 711 131 100;
#X msg 816 131 0;
#X obj 456 256 / 127;
#X obj 665 256 / 127;
#X obj 561 256 / 127;
#X obj 79 522 *~, f 8;
#X obj 324 495 +~, f 14;
#X obj 132 497 osc~ 250;
#X obj 472 390 noise~;
#X obj 559 439 lop~ 4000;
#X obj 79 400 ../envAR 1 100;
#X obj 419 362 ../envAR 1 200;
#X obj 79 429 pow~ 4;
#X obj 352 280 * 600;
#X obj 174 362 / 2;
#X obj 369 368 / 3;
#X obj 281 397 ../envAR 1 30;
#X obj 79 333 t b b b, f 49;
#X obj 561 280 * 5000;
#X msg 619 381 \$1 5, f 5;
#X obj 619 405 line, f 5;
#X obj 352 304 + 100;
#X obj 472 427 hip~, f 8;
#X obj 456 280 * 3000;
#X obj 419 459 *~, f 8;
#X obj 419 391 pow~ 6;
#X obj 561 304 + 2000;
#X text 589 207 LPF;
#X obj 525 362 + 500;
#X obj 281 421 pow~ 2;
#X obj 132 468 *~;
#X obj 247 450 *~;
#X obj 247 280 sig~;
#X obj 247 474 +~ 1;
#X obj 247 256 / 63;
#X obj 559 463 clip~ -0.45 0.7;
#X obj 482 511 expr~ $v1*(1-$f3)+$v2*$f3;
#X obj 559 487 *~ 1.3;
#X msg 607 131 20;
#X obj 143 256 + 100;
#X msg 189 131 30;
#X msg 293 131 25;
#X msg 398 131 30;
#X msg 502 131 70;
#X floatatom 770 233 5 0 0 0 - - - 0;
#X obj 770 256 / 127;
#X obj 875 261 / 127;
#X obj 482 595 *~ 2.5;
#X connect 4 0 19 0;
#X connect 4 1 19 1;
#X connect 5 0 20 0;
#X connect 6 0 18 0;
#X connect 7 0 22 0;
#X connect 8 0 23 0;
#X connect 9 0 24 0;
#X connect 10 0 25 0;
#X connect 11 0 26 0;
#X connect 12 0 28 0;
#X connect 13 0 29 0;
#X connect 14 0 85 0;
#X connect 15 0 27 0;
#X connect 16 0 15 1;
#X connect 17 0 81 0;
#X connect 17 1 82 0;
#X connect 17 2 83 0;
#X connect 17 3 84 0;
#X connect 17 4 79 0;
#X connect 17 5 41 0;
#X connect 17 6 42 0;
#X connect 17 7 16 0;
#X connect 18 0 8 0;
#X connect 18 1 9 0;
#X connect 18 2 10 0;
#X connect 18 3 11 0;
#X connect 18 4 12 0;
#X connect 18 5 13 0;
#X connect 18 6 14 0;
#X connect 18 7 15 0;
#X connect 19 0 36 0;
#X connect 20 0 58 0;
#X connect 22 0 6 0;
#X connect 23 0 80 0;
#X connect 24 0 75 0;
#X connect 25 0 39 0;
#X connect 26 0 43 0;
#X connect 27 0 87 0;
#X connect 28 0 45 0;
#X connect 29 0 44 0;
#X connect 30 0 38 1;
#X connect 31 0 30 0;
#X connect 34 0 20 0;
#X connect 35 0 17 0;
#X connect 36 0 34 0;
#X connect 36 1 34 0;
#X connect 36 2 35 0;
#X connect 37 0 6 0;
#X connect 37 1 17 0;
#X connect 38 0 2 0;
#X connect 39 0 54 0;
#X connect 41 0 13 1;
#X connect 42 0 14 1;
#X connect 43 0 64 0;
#X connect 44 0 77 2;
#X connect 45 0 59 0;
#X connect 46 0 47 0;
#X connect 47 0 50 0;
#X connect 48 0 46 1;
#X connect 49 0 63 0;
#X connect 50 0 76 0;
#X connect 50 0 77 0;
#X connect 51 0 53 0;
#X connect 52 0 66 0;
#X connect 53 0 46 0;
#X connect 54 0 62 0;
#X connect 55 0 51 2;
#X connect 55 0 56 0;
#X connect 56 0 57 2;
#X connect 57 0 70 0;
#X connect 58 0 51 0;
#X connect 58 1 57 0;
#X connect 58 2 52 0;
#X connect 59 0 67 0;
#X connect 60 0 61 0;
#X connect 61 0 50 1;
#X connect 62 0 55 0;
#X connect 62 0 52 2;
#X connect 63 0 65 1;
#X connect 64 0 69 0;
#X connect 65 0 47 1;
#X connect 66 0 65 0;
#X connect 67 0 60 0;
#X connect 69 0 63 1;
#X connect 70 0 72 1;
#X connect 71 0 48 0;
#X connect 72 0 74 0;
#X connect 73 0 72 0;
#X connect 74 0 71 0;
#X connect 75 0 73 0;
#X connect 76 0 78 0;
#X connect 77 0 88 0;
#X connect 78 0 77 1;
#X connect 79 0 12 1;
#X connect 80 0 71 1;
#X connect 81 0 8 1;
#X connect 82 0 9 1;
#X connect 83 0 10 1;
#X connect 84 0 11 1;
#X connect 85 0 86 0;
#X connect 87 0 31 0;
#X connect 88 0 38 0;
