#N canvas 248 25 548 635 12;
#X obj 26 376 phasor~;
#X obj 205 415 *~ 2;
#X obj 205 445 -~ 1;
#X obj 115 376 phasor~;
#X obj 205 376 phasor~;
#X obj 26 221 mtof;
#X obj 115 192 mtof;
#X obj 205 192 mtof;
#X obj 26 69 unpack f f, f 45;
#X obj 205 505 *~, f 12;
#X obj 205 534 outlet~;
#X obj 26 13 inlet Freq & Vel;
#X obj 215 250 inlet Detune;
#X msg 72 347 0;
#X obj 205 476 /~ 3;
#X obj 286 476 vline~;
#X obj 338 108 / 127;
#X msg 338 377 \$1 5;
#X floatatom 127 98 5 0 0 0 - - - 0;
#X floatatom 215 167 5 0 0 0 - - - 0;
#X floatatom 125 167 5 0 0 0 - - - 0;
#X obj 72 221 t b b b, f 26;
#X obj 215 279 / 127;
#X obj 161 347 f;
#X obj 251 347 f;
#X obj 115 143 + 0.1;
#X obj 205 143 - 0.1;
#X connect 0 0 1 0;
#X connect 1 0 2 0;
#X connect 2 0 14 0;
#X connect 3 0 1 0;
#X connect 4 0 1 0;
#X connect 5 0 0 0;
#X connect 6 0 3 0;
#X connect 7 0 4 0;
#X connect 8 0 5 0;
#X connect 8 0 18 0;
#X connect 8 0 21 0;
#X connect 8 0 25 0;
#X connect 8 0 26 0;
#X connect 8 1 16 0;
#X connect 9 0 10 0;
#X connect 11 0 8 0;
#X connect 12 0 22 0;
#X connect 13 0 0 1;
#X connect 14 0 9 0;
#X connect 15 0 9 1;
#X connect 16 0 17 0;
#X connect 17 0 15 0;
#X connect 21 0 13 0;
#X connect 21 1 23 0;
#X connect 21 2 24 0;
#X connect 22 0 23 1;
#X connect 22 0 24 1;
#X connect 23 0 3 1;
#X connect 24 0 4 1;
#X connect 25 0 6 0;
#X connect 25 0 20 0;
#X connect 26 0 7 0;
#X connect 26 0 19 0;
