#N canvas 272 25 862 747 12;
#X obj 275 347 osc~;
#X obj 56 347 phasor~;
#X obj 56 376 *~ 2;
#X obj 56 405 -~ 1;
#X obj 129 347 phasor~;
#X obj 129 376 *~ 2;
#X obj 129 405 -~ 1;
#X obj 202 347 phasor~;
#X obj 202 376 *~ 2;
#X obj 202 405 -~ 1;
#X obj 56 248 mtof;
#X obj 129 248 mtof;
#X obj 202 248 mtof;
#X obj 202 161 * -1;
#X obj 129 219 +;
#X obj 202 219 +;
#X obj 274 248 mtof;
#X obj 274 219 - 12;
#X obj 202 190 t b f;
#X obj 56 107 unpack f f, f 48;
#X obj 219 640 *~, f 6;
#X obj 218 586 /~ 4;
#X obj 219 679 outlet~;
#X obj 258 611 vline~;
#X obj 56 71 inlet Freq & Vel;
#X obj 231 50 inlet Detune;
#X msg 392 405 \$1 5, f 6;
#X obj 392 318 / 127;
#X floatatom 177 133 5 0 0 0 - - - 0;
#X obj 231 78 expr if ($f1<65 \, ($f1/64)*0.15-1 \, (($f1-65)*0.1875)%
12)+1;
#X msg 15 248 0;
#X obj 15 223 t b;
#X obj 238 446 clip~ -0.7 0.5;
#X connect 0 0 32 0;
#X connect 1 0 2 0;
#X connect 2 0 3 0;
#X connect 3 0 21 0;
#X connect 4 0 5 0;
#X connect 5 0 6 0;
#X connect 6 0 21 0;
#X connect 7 0 8 0;
#X connect 8 0 9 0;
#X connect 9 0 21 0;
#X connect 10 0 1 0;
#X connect 11 0 4 0;
#X connect 12 0 7 0;
#X connect 13 0 18 0;
#X connect 14 0 11 0;
#X connect 15 0 12 0;
#X connect 16 0 0 0;
#X connect 17 0 16 0;
#X connect 18 0 14 0;
#X connect 18 0 15 0;
#X connect 18 1 15 1;
#X connect 19 0 10 0;
#X connect 19 0 14 0;
#X connect 19 0 15 0;
#X connect 19 0 31 0;
#X connect 19 0 17 0;
#X connect 19 1 27 0;
#X connect 20 0 22 0;
#X connect 21 0 20 0;
#X connect 23 0 20 1;
#X connect 24 0 19 0;
#X connect 25 0 29 0;
#X connect 26 0 23 0;
#X connect 27 0 26 0;
#X connect 28 0 14 1;
#X connect 28 0 13 0;
#X connect 29 0 28 0;
#X connect 30 0 1 1;
#X connect 30 0 4 1;
#X connect 30 0 7 1;
#X connect 30 0 0 1;
#X connect 31 0 30 0;
#X connect 32 0 21 0;
